<?xml version="1.0" encoding="utf-8"?><svg xmlns="http://www.w3.org/2000/svg" xmlns:xlink="http://www.w3.org/1999/xlink"><symbol fill="none" viewBox="0 0 244 77" id="arrow" xmlns="http://www.w3.org/2000/svg"><path opacity=".5" d="M241.474 1.274a1 1 0 00-1.2-.748l-8.767 2.035a1 1 0 00.452 1.948l7.793-1.809 1.809 7.793a1 1 0 101.948-.452l-2.035-8.767zm-.974.226l-.849-.529-.002.003-.007.012a110.324 110.324 0 01-2.874 4.204l1.624 1.167a112.955 112.955 0 002.206-3.176c.247-.37.433-.656.559-.85l.142-.223a3.37 3.37 0 00.036-.058l.01-.015.002-.004.001-.001h.001v-.001L240.5 1.5zm-6.182 7a176.978 176.978 0 01-6.526 8.055l1.518 1.303a179.513 179.513 0 006.599-8.147L234.318 8.5zm-9.264 11.174a192.226 192.226 0 01-7.106 7.5l1.414 1.414a194.029 194.029 0 007.18-7.578l-1.488-1.336zm-10.069 10.4a187.2 187.2 0 01-7.668 6.947l1.301 1.519a189.513 189.513 0 007.75-7.022l-1.383-1.445zm-10.848 9.61a176.173 176.173 0 01-8.2 6.315l1.173 1.62c2.902-2.1 5.666-4.24 8.293-6.387l-1.266-1.548zm-11.577 8.698a162.935 162.935 0 01-8.696 5.585l1.027 1.717a165.61 165.61 0 008.803-5.654l-1.134-1.648zm-12.274 7.662a151.342 151.342 0 01-9.182 4.766l.86 1.805a153.283 153.283 0 009.303-4.828l-.981-1.743zm-12.93 6.486a141.897 141.897 0 01-9.591 3.831l.673 1.883a144.027 144.027 0 009.727-3.885l-.809-1.83zm-13.514 5.168a135.439 135.439 0 01-9.922 2.805l.47 1.944a137.635 137.635 0 0010.069-2.846l-.617-1.903zm-13.958 3.716a132.484 132.484 0 01-10.174 1.72l.257 1.983a134.582 134.582 0 0010.327-1.746l-.41-1.957zm-14.278 2.185a133.04 133.04 0 01-5.164.403l.116 1.996a135.13 135.13 0 005.242-.409l-.194-1.99zm-5.164.403c-1.738.101-3.458.177-5.161.227l.06 2a181.57 181.57 0 005.217-.23l-.116-1.997zm-9.276.301c-3.503.022-6.928-.061-10.273-.24l-.106 1.998c3.384.18 6.849.264 10.392.242l-.013-2zm-14.388-.51a165.862 165.862 0 01-10.206-1.111l-.278 1.98c3.351.471 6.795.85 10.329 1.126l.155-1.994zm-14.28-1.736A161.704 161.704 0 0172.41 70.05l-.453 1.948c3.297.766 6.702 1.45 10.213 2.033l.328-1.973zm-14.075-2.989a159.454 159.454 0 01-9.854-2.899l-.626 1.9c3.2 1.054 6.526 2.04 9.978 2.935l.502-1.936zM54.678 64.83a158.159 158.159 0 01-9.555-3.781l-.796 1.834a160.185 160.185 0 009.676 3.83l.675-1.883zm-13.314-5.47c-3.246-1.51-6.3-3.067-9.16-4.633l-.961 1.754a158.495 158.495 0 009.278 4.692l.843-1.813zm-12.738-6.655c-3.18-1.853-6.086-3.7-8.715-5.483l-1.123 1.655a153.067 153.067 0 008.83 5.556l1.008-1.728zm-12.073-7.83a132.338 132.338 0 01-8.116-6.324l-1.291 1.527c2.22 1.878 4.97 4.067 8.238 6.42l1.17-1.622zm-11.2-9.031a79.607 79.607 0 01-2.719-2.593 44.738 44.738 0 01-.844-.87l-.04-.044-.009-.01-.002-.002L1 33a739.006 739.006 0 00-.738.675l.002.001.003.004a1.25 1.25 0 00.06.065c.04.044.101.108.18.191.16.167.396.412.709.726a81.615 81.615 0 002.788 2.659l1.349-1.477z" fill="#fff"/></symbol><symbol fill="none" viewBox="0 0 253 81" id="arrow_2" xmlns="http://www.w3.org/2000/svg"><path opacity=".25" d="M128.5 16l.278-.96-.278.96zm124.495 62.358a1 1 0 01-.893 1.096l-8.953.918a1 1 0 01-.204-1.99l7.959-.815-.816-7.959a1 1 0 011.99-.203l.917 8.953zm-.995.102l-.631.775h-.001l-.002-.002-.011-.01a5.267 5.267 0 01-.045-.036l-.184-.147c-.164-.131-.41-.327-.736-.582a176.41 176.41 0 00-2.903-2.22l1.201-1.6c1.289.967 2.272 1.727 2.935 2.245.331.26.582.46.751.594l.191.153.049.04.013.01a.012.012 0 00.003.003h.001l.001.001-.632.776zm-7.713-4.584a317.7 317.7 0 00-8.091-5.678l1.125-1.654a321.738 321.738 0 018.141 5.713l-1.175 1.619zm-11.383-7.89a381.383 381.383 0 00-8.356-5.388l1.062-1.694a382.111 382.111 0 018.4 5.416l-1.106 1.666zm-11.723-7.474a404.694 404.694 0 00-8.523-5.08l1.003-1.73a404.848 404.848 0 018.565 5.104l-1.045 1.706zm-11.952-7.044a405.891 405.891 0 00-8.683-4.781l.944-1.764a410.71 410.71 0 018.725 4.804l-.986 1.74zm-12.188-6.635a405.8 405.8 0 00-8.855-4.488l.882-1.795a405.314 405.314 0 018.899 4.51l-.926 1.773zm-12.419-6.218a391.71 391.71 0 00-8.991-4.17l.819-1.825c3.087 1.385 6.1 2.785 9.036 4.192l-.864 1.803zm-12.63-5.78a378.662 378.662 0 00-9.127-3.842l.752-1.853A381.349 381.349 0 01172.792 31l-.8 1.834zm-12.814-5.315a363.597 363.597 0 00-9.272-3.5l.681-1.881a365.793 365.793 0 019.323 3.52l-.732 1.861zm-13.008-4.83a348.203 348.203 0 00-9.403-3.137l.606-1.907a348.81 348.81 0 019.457 3.156l-.66 1.888zm-13.188-4.316c-1.576-.48-3.162-.952-4.759-1.413l.555-1.921c1.606.463 3.202.938 4.787 1.42l-.583 1.914zm-4.759-1.413a375.012 375.012 0 00-4.944-1.39l.528-1.93c1.647.451 3.305.917 4.971 1.399l-.555 1.92zm-8.904-2.452c-3.356-.879-6.67-1.697-9.939-2.457l.453-1.948a371.46 371.46 0 019.992 2.47l-.506 1.935zm-13.944-3.366a371.79 371.79 0 00-10.017-2.07l.377-1.964c3.302.635 6.661 1.327 10.072 2.081l-.432 1.953zM91.318 8.32A370.52 370.52 0 0081.21 6.634l.301-1.978c3.317.506 6.707 1.07 10.163 1.695l-.356 1.968zM77.168 6.04c-3.476-.49-6.865-.919-10.16-1.29l.224-1.988c3.314.374 6.721.804 10.215 1.298l-.28 1.98zM62.92 4.312c-3.52-.357-6.925-.65-10.206-.888l.145-1.995c3.3.24 6.723.534 10.263.893l-.202 1.99zm-14.297-1.16c-3.575-.218-6.988-.371-10.226-.471l.062-2c3.257.102 6.69.255 10.285.474l-.121 1.996zM34.3 2.578a313.82 313.82 0 00-10.244-.025l-.029-2a315.81 315.81 0 0110.31.026l-.038 2zm-14.34.062c-3.977.112-7.402.293-10.216.486l-.137-1.995c2.84-.195 6.292-.377 10.297-.49l.056 1.999zm-14.294.807c-1.647.147-2.907.283-3.753.382a75.03 75.03 0 00-1.254.158l-.013.002H.642L.5 3 .36 2.01h.006l.017-.003.065-.009c.057-.008.141-.02.252-.033.221-.03.55-.07.981-.121.864-.101 2.142-.24 3.808-.388l.178 1.992z" fill="#14080E"/></symbol><symbol viewBox="0 0 24 24" id="bitcoin" xmlns="http://www.w3.org/2000/svg"><path d="M12 2c5.514 0 10 4.486 10 10s-4.486 10-10 10S2 17.514 2 12 6.486 2 12 2zm0-2C5.373 0 0 5.373 0 12s5.373 12 12 12 12-5.373 12-12S18.627 0 12 0zm0 18v-1.511h-.5V18h-1v-1.511H8.016L8.266 15h.539c.442 0 .695-.425.695-.854V9.702C9.5 9.286 9.258 9 8.817 9H8V7.5h2.5V6h1v1.5h.5V6h1v1.526c2.158.073 3.012.891 3.257 1.812.29 1.09-.429 2.005-1.046 2.228.75.192 1.789.746 1.789 2.026 0 1.742-1.344 2.908-4 2.908V18h-1zm-.5-5.503V15c1.984 0 3.344-.188 3.344-1.258 0-1.148-1.469-1.245-3.344-1.245zm0-.997c1.105 0 2.789-.078 2.789-1.25 0-1-1.039-1.25-2.789-1.25v2.5z"/></symbol><symbol viewBox="0 0 24 24" id="done" xmlns="http://www.w3.org/2000/svg"><path d="M12 2c5.514 0 10 4.486 10 10s-4.486 10-10 10S2 17.514 2 12 6.486 2 12 2zm0-2C5.373 0 0 5.373 0 12s5.373 12 12 12 12-5.373 12-12S18.627 0 12 0zm6.25 8.891l-1.421-1.409-6.105 6.218-3.078-2.937-1.396 1.436 4.5 4.319 7.5-7.627z"/></symbol><symbol viewBox="0 0 24 24" id="done_black" xmlns="http://www.w3.org/2000/svg"><path d="M20.285 2L9 13.567 3.714 8.556 0 12.272 9 21 24 5.715z"/></symbol><symbol viewBox="0 0 24 24" id="done_white" xmlns="http://www.w3.org/2000/svg"><path d="M20.285 2L9 13.567 3.714 8.556 0 12.272 9 21 24 5.715z" fill="#fff"/></symbol><symbol viewBox="0 0 24 24" id="facebook" xmlns="http://www.w3.org/2000/svg"><path d="M12 2c5.514 0 10 4.486 10 10s-4.486 10-10 10S2 17.514 2 12 6.486 2 12 2zm0-2C5.373 0 0 5.373 0 12s5.373 12 12 12 12-5.373 12-12S18.627 0 12 0zm-2 10H8v2h2v6h3v-6h1.82l.18-2h-2v-.833c0-.478.096-.667.558-.667H15V6h-2.404C10.798 6 10 6.792 10 8.308V10z"/></symbol><symbol viewBox="0 0 24 24" id="hide_password" xmlns="http://www.w3.org/2000/svg"><path d="M19.604 2.562l-3.346 3.137A13.214 13.214 0 0012.015 5C4.446 5 0 11.551 0 11.551s1.928 2.951 5.146 5.138l-2.911 2.909 1.414 1.414 17.37-17.035-1.415-1.415zm-6.016 5.779c-3.288-1.453-6.681 1.908-5.265 5.206l-1.726 1.707c-1.814-1.16-3.225-2.65-4.06-3.66C4.03 9.946 7.354 7 12.015 7c.927 0 1.796.119 2.61.315l-1.037 1.026zm-2.883 7.431l5.09-4.993c1.017 3.111-2.003 6.067-5.09 4.993zM24 11.551S19.748 19 12.015 19c-1.379 0-2.662-.291-3.851-.737l1.614-1.583c.715.193 1.458.32 2.237.32 4.791 0 8.104-3.527 9.504-5.364a15.309 15.309 0 00-3.587-2.952l1.489-1.46C22.403 9.124 24 11.551 24 11.551z"/></symbol><symbol viewBox="0 0 24 24" id="instagram" xmlns="http://www.w3.org/2000/svg"><path d="M12 2.163c3.204 0 3.584.012 4.85.07 3.252.148 4.771 1.691 4.919 4.919.058 1.265.069 1.645.069 4.849 0 3.205-.012 3.584-.069 4.849-.149 3.225-1.664 4.771-4.919 4.919-1.266.058-1.644.07-4.85.07-3.204 0-3.584-.012-4.849-.07-3.26-.149-4.771-1.699-4.919-4.92-.058-1.265-.07-1.644-.07-4.849 0-3.204.013-3.583.07-4.849.149-3.227 1.664-4.771 4.919-4.919 1.266-.057 1.645-.069 4.849-.069zM12 0C8.741 0 8.333.014 7.053.072 2.695.272.273 2.69.073 7.052.014 8.333 0 8.741 0 12c0 3.259.014 3.668.072 4.948.2 4.358 2.618 6.78 6.98 6.98C8.333 23.986 8.741 24 12 24c3.259 0 3.668-.014 4.948-.072 4.354-.2 6.782-2.618 6.979-6.98.059-1.28.073-1.689.073-4.948 0-3.259-.014-3.667-.072-4.947-.196-4.354-2.617-6.78-6.979-6.98C15.668.014 15.259 0 12 0zm0 5.838a6.162 6.162 0 100 12.324 6.162 6.162 0 000-12.324zM12 16a4 4 0 110-8 4 4 0 010 8zm6.406-11.845a1.44 1.44 0 100 2.881 1.44 1.44 0 000-2.881z"/></symbol><symbol fill="none" viewBox="0 0 62 44" id="logo" xmlns="http://www.w3.org/2000/svg"><path fill-rule="evenodd" clip-rule="evenodd" d="M14.56 19.318a15.831 15.831 0 015.786-5.4A15.782 15.782 0 0128.016 12c7.99 0 14.566 5.735 15.548 13.148-2.3.42-4.649.919-7.026 1.494-16.43 3.985-28.85 10.384-30.742 15.437A12.167 12.167 0 01.85 36.116 12.206 12.206 0 01.5 28.37a12.176 12.176 0 014.384-6.388 12.12 12.12 0 017.342-2.439 8.466 8.466 0 013.825 1.29 8.493 8.493 0 012.799 2.915 7.896 7.896 0 00-4.288-4.412v-.018zm34.433 1.963c1.378 2.301 1.508 2.248 1.656 4.94l.893-.208.592-2.312 2.016-.593-.295 4.904 1.478-.76 1.443-4.969 2.756-1.038c2.313-.954 1.81-2.034-.45-1.364l-2.873.931-4.14-3.006-1.367.124 2.958 3.695-1.917.92-1.644-1.377-1.076.13-.03-.017zm-3.637 5.035c-14.372 4.276-23.621 10.04-21.628 14.02.993 1.98 4.607 3.207 9.888 3.664h10.646c.899-.06 1.816-.13 2.75-.214a8.822 8.822 0 005.195-3.448 8.866 8.866 0 00-1.123-11.636 8.811 8.811 0 00-5.758-2.386h.03zM6.904 11.175a2.573 2.573 0 105.121-.506 2.573 2.573 0 00-5.121.506z" fill="#fff"/><path fill-rule="evenodd" clip-rule="evenodd" d="M11.137 3.367c-3.741 2.632-2.1 4.409.094 3.87 2.884-.856 5.516 4.075 5.536 8.35 0 0 3.743-3.7 9.748-4.124 7.5-.53 11.623 3.375 11.623 3.375-.2-8.49-16.814-19.007-27-11.47z" fill="#D00A10"/></symbol><symbol fill="none" viewBox="0 0 80 80" id="play" xmlns="http://www.w3.org/2000/svg"><path d="M80 40a40 40 0 11-80 0 40 40 0 0180 0zM33.95 25.465A2.5 2.5 0 0030 27.5v25a2.5 2.5 0 003.95 2.035l17.5-12.5a2.501 2.501 0 000-4.07l-17.5-12.5z" fill="#009DDC"/></symbol><symbol viewBox="0 0 24 24" id="profile" xmlns="http://www.w3.org/2000/svg"><path d="M12 2c2.757 0 5 2.243 5 5.001 0 2.756-2.243 5-5 5s-5-2.244-5-5A5.006 5.006 0 0112 2zm0-2a7 7 0 100 14 7 7 0 000-14zm6.369 13.353a9.057 9.057 0 01-1.658 1.302c2.872 1.874 4.378 5.083 4.972 7.346H2.296c.572-2.29 2.058-5.503 4.973-7.358a9.008 9.008 0 01-1.658-1.312C1.353 16.403 0 21.837 0 24h24c0-2.142-1.44-7.557-5.631-10.647z"/></symbol><symbol viewBox="0 0 24 24" id="show_password" xmlns="http://www.w3.org/2000/svg"><path d="M12.015 7c4.751 0 8.063 3.012 9.504 4.636C20.118 13.473 16.806 17 12.015 17c-4.42 0-7.93-3.536-9.478-5.407C4.03 9.946 7.354 7 12.015 7zm0-2C4.446 5 0 11.551 0 11.551S4.835 19 12.015 19C19.748 19 24 11.551 24 11.551S19.709 5 12.015 5zM12 8a4 4 0 100 8 4 4 0 000-8zm-.004 3.999a1.446 1.446 0 11-2.044-2.046 1.446 1.446 0 012.044 2.046z"/></symbol></svg>