<?xml version="1.0" encoding="utf-8"?><svg xmlns="http://www.w3.org/2000/svg" xmlns:xlink="http://www.w3.org/1999/xlink"><symbol viewBox="0 0 24 24" id="done" xmlns="http://www.w3.org/2000/svg"><path d="M12 2c5.514 0 10 4.486 10 10s-4.486 10-10 10S2 17.514 2 12 6.486 2 12 2zm0-2C5.373 0 0 5.373 0 12s5.373 12 12 12 12-5.373 12-12S18.627 0 12 0zm6.25 8.891l-1.421-1.409-6.105 6.218-3.078-2.937-1.396 1.436 4.5 4.319 7.5-7.627z"/></symbol><symbol viewBox="0 0 24 24" id="done_black" xmlns="http://www.w3.org/2000/svg"><path d="M20.285 2L9 13.567 3.714 8.556 0 12.272 9 21 24 5.715z"/></symbol><symbol viewBox="0 0 24 24" id="done_white" xmlns="http://www.w3.org/2000/svg"><path d="M20.285 2L9 13.567 3.714 8.556 0 12.272 9 21 24 5.715z" fill="#fff"/></symbol><symbol viewBox="0 0 24 24" id="hide_password" xmlns="http://www.w3.org/2000/svg"><path d="M19.604 2.562l-3.346 3.137A13.214 13.214 0 0012.015 5C4.446 5 0 11.551 0 11.551s1.928 2.951 5.146 5.138l-2.911 2.909 1.414 1.414 17.37-17.035-1.415-1.415zm-6.016 5.779c-3.288-1.453-6.681 1.908-5.265 5.206l-1.726 1.707c-1.814-1.16-3.225-2.65-4.06-3.66C4.03 9.946 7.354 7 12.015 7c.927 0 1.796.119 2.61.315l-1.037 1.026zm-2.883 7.431l5.09-4.993c1.017 3.111-2.003 6.067-5.09 4.993zM24 11.551S19.748 19 12.015 19c-1.379 0-2.662-.291-3.851-.737l1.614-1.583c.715.193 1.458.32 2.237.32 4.791 0 8.104-3.527 9.504-5.364a15.309 15.309 0 00-3.587-2.952l1.489-1.46C22.403 9.124 24 11.551 24 11.551z"/></symbol><symbol fill="none" viewBox="0 0 62 44" id="logo" xmlns="http://www.w3.org/2000/svg"><path fill-rule="evenodd" clip-rule="evenodd" d="M14.56 19.318a15.831 15.831 0 015.786-5.4A15.782 15.782 0 0128.016 12c7.99 0 14.566 5.735 15.548 13.148-2.3.42-4.649.919-7.026 1.494-16.43 3.985-28.85 10.384-30.742 15.437A12.167 12.167 0 01.85 36.116 12.206 12.206 0 01.5 28.37a12.176 12.176 0 014.384-6.388 12.12 12.12 0 017.342-2.439 8.466 8.466 0 013.825 1.29 8.493 8.493 0 012.799 2.915 7.896 7.896 0 00-4.288-4.412v-.018zm34.433 1.963c1.378 2.301 1.508 2.248 1.656 4.94l.893-.208.592-2.312 2.016-.593-.295 4.904 1.478-.76 1.443-4.969 2.756-1.038c2.313-.954 1.81-2.034-.45-1.364l-2.873.931-4.14-3.006-1.367.124 2.958 3.695-1.917.92-1.644-1.377-1.076.13-.03-.017zm-3.637 5.035c-14.372 4.276-23.621 10.04-21.628 14.02.993 1.98 4.607 3.207 9.888 3.664h10.646c.899-.06 1.816-.13 2.75-.214a8.822 8.822 0 005.195-3.448 8.866 8.866 0 00-1.123-11.636 8.811 8.811 0 00-5.758-2.386h.03zM6.904 11.175a2.573 2.573 0 105.121-.506 2.573 2.573 0 00-5.121.506z" fill="#fff"/><path fill-rule="evenodd" clip-rule="evenodd" d="M11.137 3.367c-3.741 2.632-2.1 4.409.094 3.87 2.884-.856 5.516 4.075 5.536 8.35 0 0 3.743-3.7 9.748-4.124 7.5-.53 11.623 3.375 11.623 3.375-.2-8.49-16.814-19.007-27-11.47z" fill="#D00A10"/></symbol><symbol fill="none" viewBox="0 0 80 80" id="play" xmlns="http://www.w3.org/2000/svg"><path d="M80 40a40 40 0 11-80 0 40 40 0 0180 0zM33.95 25.465A2.5 2.5 0 0030 27.5v25a2.5 2.5 0 003.95 2.035l17.5-12.5a2.501 2.501 0 000-4.07l-17.5-12.5z" fill="#009DDC"/></symbol><symbol viewBox="0 0 24 24" id="show_password" xmlns="http://www.w3.org/2000/svg"><path d="M12.015 7c4.751 0 8.063 3.012 9.504 4.636C20.118 13.473 16.806 17 12.015 17c-4.42 0-7.93-3.536-9.478-5.407C4.03 9.946 7.354 7 12.015 7zm0-2C4.446 5 0 11.551 0 11.551S4.835 19 12.015 19C19.748 19 24 11.551 24 11.551S19.709 5 12.015 5zM12 8a4 4 0 100 8 4 4 0 000-8zm-.004 3.999a1.446 1.446 0 11-2.044-2.046 1.446 1.446 0 012.044 2.046z"/></symbol></svg>