<svg width="500" height="400" viewBox="0 0 500 400" fill="none" xmlns="http://www.w3.org/2000/svg">
<path d="M500 332.4H0V332.65H500V332.4Z" fill="#EBEBEB"/>
<path d="M449.9 348.49H416.78V348.74H449.9V348.49Z" fill="#EBEBEB"/>
<path d="M331.22 351.21H322.53V351.46H331.22V351.21Z" fill="#EBEBEB"/>
<path d="M415.78 339.21H396.59V339.46H415.78V339.21Z" fill="#EBEBEB"/>
<path d="M95.65 340.89H52.46V341.14H95.65V340.89Z" fill="#EBEBEB"/>
<path d="M110.89 340.89H104.56V341.14H110.89V340.89Z" fill="#EBEBEB"/>
<path d="M225.15 345.11H131.47V345.36H225.15V345.11Z" fill="#EBEBEB"/>
<path d="M237 287.8H43.91C42.3973 287.797 40.9475 287.195 39.8788 286.124C38.8102 285.053 38.21 283.603 38.21 282.09V10.66C38.2231 9.15602 38.8292 7.71798 39.8964 6.65822C40.9637 5.59846 42.4059 5.00258 43.91 5H237C238.514 5 239.967 5.60159 241.038 6.67242C242.108 7.74325 242.71 9.19561 242.71 10.71V282.09C242.71 283.604 242.108 285.057 241.038 286.128C239.967 287.198 238.514 287.8 237 287.8ZM43.91 5.2C42.4636 5.20265 41.0774 5.77907 40.0556 6.80273C39.0338 7.82639 38.46 9.21365 38.46 10.66V282.09C38.46 283.536 39.0338 284.924 40.0556 285.947C41.0774 286.971 42.4636 287.547 43.91 287.55H237C238.447 287.547 239.834 286.971 240.858 285.948C241.881 284.924 242.457 283.537 242.46 282.09V10.66C242.457 9.21273 241.881 7.82549 240.858 6.80212C239.834 5.77874 238.447 5.20264 237 5.2H43.91Z" fill="#EBEBEB"/>
<path d="M453.31 287.8H260.21C258.696 287.797 257.246 287.195 256.175 286.125C255.105 285.054 254.503 283.604 254.5 282.09V10.66C254.516 9.15511 255.124 7.71708 256.193 6.65759C257.262 5.59811 258.705 5.00255 260.21 5H453.31C454.812 5.0052 456.252 5.60225 457.317 6.66173C458.382 7.72121 458.987 9.15775 459 10.66V282.09C459 283.601 458.401 285.05 457.335 286.121C456.268 287.191 454.821 287.795 453.31 287.8ZM260.21 5.2C258.763 5.20264 257.375 5.77874 256.352 6.80212C255.329 7.82549 254.753 9.21273 254.75 10.66V282.09C254.753 283.537 255.329 284.924 256.352 285.948C257.375 286.971 258.763 287.547 260.21 287.55H453.31C454.757 287.547 456.145 286.971 457.168 285.948C458.191 284.924 458.767 283.537 458.77 282.09V10.66C458.767 9.21273 458.191 7.82549 457.168 6.80212C456.145 5.77874 454.757 5.20264 453.31 5.2H260.21Z" fill="#EBEBEB"/>
<path d="M149.43 148.49H142.7V332.65H149.43V148.49Z" fill="#F5F5F5"/>
<path d="M176.04 171.87H169.31V332.65H176.04V171.87Z" fill="#F5F5F5"/>
<path d="M202.4 195.25H195.67V332.65H202.4V195.25Z" fill="#F5F5F5"/>
<path d="M228.77 179.66H222.04V332.65H228.77V179.66Z" fill="#F5F5F5"/>
<path d="M255.14 171.87H248.41V332.65H255.14V171.87Z" fill="#F5F5F5"/>
<path d="M281.5 156.28H274.77V332.65H281.5V156.28Z" fill="#F5F5F5"/>
<path d="M307.87 164.08H301.14V332.65H307.87V164.08Z" fill="#F5F5F5"/>
<path d="M334.24 156.28H327.51V332.65H334.24V156.28Z" fill="#F5F5F5"/>
<path d="M360.6 140.69H353.87V332.64H360.6V140.69Z" fill="#F5F5F5"/>
<path d="M386.97 125.11H380.24V332.65H386.97V125.11Z" fill="#F5F5F5"/>
<path d="M413.33 109.52H406.6V332.65H413.33V109.52Z" fill="#F5F5F5"/>
<path d="M199 184.3C198.625 184.285 198.269 184.132 198 183.87L141.66 128.94C141.375 128.661 141.212 128.281 141.207 127.882C141.202 127.484 141.356 127.1 141.635 126.815C141.913 126.53 142.294 126.367 142.692 126.362C143.091 126.358 143.475 126.511 143.76 126.79L199.19 180.84L277.26 123.84C277.562 123.624 277.933 123.528 278.302 123.568C278.671 123.609 279.012 123.784 279.26 124.06L304.82 153L410.62 92.3798C410.791 92.282 410.98 92.2189 411.176 92.1941C411.372 92.1692 411.57 92.1832 411.761 92.2352C411.951 92.2872 412.129 92.3762 412.285 92.4971C412.441 92.618 412.572 92.7684 412.67 92.9398C412.768 93.1112 412.831 93.3001 412.855 93.4959C412.88 93.6917 412.866 93.8904 412.814 94.0808C412.762 94.2711 412.673 94.4494 412.552 94.6054C412.432 94.7613 412.281 94.892 412.11 94.9898L305.25 156.23C304.949 156.399 304.6 156.461 304.26 156.405C303.92 156.348 303.609 156.177 303.38 155.92L277.92 127.12L199.92 184.01C199.653 184.205 199.33 184.307 199 184.3Z" fill="#F0F0F0"/>
<path d="M192.65 331.5L143.48 137.59L145.94 127.9H143.38V72.52H136.78V127.9H134.22L136.68 137.59L87.5 331.5H94.31L136.78 164.02V332.52H143.38V164.02L185.85 331.5H192.65Z" fill="#E0E0E0"/>
<path d="M177.128 135.664C181.958 115.2 169.285 94.6965 148.821 89.8667C128.358 85.0369 107.854 97.7104 103.024 118.174C98.1946 138.637 110.868 159.141 131.331 163.971C151.795 168.8 172.299 156.127 177.128 135.664Z" fill="#E6E6E6"/>
<path d="M140.08 159.43C158.029 159.43 172.58 144.879 172.58 126.93C172.58 108.981 158.029 94.4302 140.08 94.4302C122.131 94.4302 107.58 108.981 107.58 126.93C107.58 144.879 122.131 159.43 140.08 159.43Z" fill="#F5F5F5"/>
<path d="M140.08 152.37C154.13 152.37 165.52 140.98 165.52 126.93C165.52 112.88 154.13 101.49 140.08 101.49C126.03 101.49 114.64 112.88 114.64 126.93C114.64 140.98 126.03 152.37 140.08 152.37Z" fill="#E6E6E6"/>
<path d="M148.064 146.188C158.703 141.782 163.755 129.585 159.348 118.947C154.941 108.308 142.745 103.256 132.106 107.663C121.468 112.069 116.416 124.266 120.822 134.904C125.229 145.543 137.425 150.595 148.064 146.188Z" fill="#F5F5F5"/>
<path d="M154.159 130.242C155.995 122.465 151.178 114.671 143.4 112.836C135.622 111 127.829 115.817 125.993 123.595C124.158 131.373 128.975 139.166 136.752 141.002C144.53 142.837 152.324 138.02 154.159 130.242Z" fill="#E6E6E6"/>
<path d="M144.062 136.525C149.363 134.329 151.88 128.251 149.685 122.95C147.489 117.648 141.411 115.131 136.109 117.327C130.808 119.523 128.29 125.6 130.486 130.902C132.682 136.203 138.76 138.721 144.062 136.525Z" fill="#F5F5F5"/>
<path d="M144.79 126.93C144.79 127.864 144.513 128.777 143.994 129.553C143.475 130.33 142.737 130.935 141.874 131.292C141.011 131.649 140.061 131.741 139.146 131.559C138.23 131.376 137.389 130.925 136.729 130.264C136.069 129.603 135.621 128.761 135.44 127.845C135.259 126.928 135.353 125.979 135.712 125.117C136.071 124.254 136.678 123.518 137.455 123.001C138.233 122.483 139.146 122.208 140.08 122.21C140.699 122.21 141.313 122.332 141.885 122.569C142.457 122.807 142.977 123.155 143.414 123.593C143.852 124.031 144.198 124.552 144.434 125.124C144.671 125.697 144.791 126.311 144.79 126.93Z" fill="#E6E6E6"/>
<path d="M91.2198 95.5298L92.2498 102.41L85.0898 104.82L92.2498 108.58L99.3898 106.07L98.1398 99.2898L91.2198 95.5298Z" fill="#E6E6E6"/>
<path d="M140.08 127.93C139.92 127.928 139.763 127.891 139.62 127.82L88.3898 101.56C88.1618 101.435 87.9915 101.226 87.9152 100.977C87.8388 100.729 87.8623 100.46 87.9807 100.228C88.0991 99.9968 88.3031 99.8205 88.5493 99.7368C88.7956 99.6531 89.0648 99.6686 89.2998 99.7801L140.53 126C140.765 126.12 140.944 126.328 141.026 126.579C141.109 126.83 141.088 127.104 140.97 127.34C140.892 127.513 140.768 127.659 140.61 127.764C140.453 127.868 140.269 127.926 140.08 127.93Z" fill="#E0E0E0"/>
<path d="M210.58 84.1601C210.575 82.7842 210.893 81.4263 211.509 80.1958C212.125 78.9653 213.021 77.8965 214.125 77.0755C215.229 76.2544 216.511 75.704 217.866 75.4686C219.222 75.2332 220.614 75.3194 221.93 75.7201C221.539 73.0667 221.725 70.3603 222.474 67.7852C223.224 65.2101 224.52 62.8268 226.274 60.7977C228.027 58.7686 230.198 57.1415 232.638 56.0271C235.077 54.9127 237.728 54.3373 240.41 54.3401C241.561 54.3397 242.709 54.4468 243.84 54.6601C245.681 51.6356 248.455 49.2917 251.744 47.9818C255.033 46.6719 258.659 46.4672 262.075 47.3984C265.49 48.3297 268.511 50.3464 270.68 53.1445C272.849 55.9425 274.049 59.3701 274.1 62.9101H274.38C278.369 62.9101 282.194 64.4947 285.015 67.3152C287.836 70.1358 289.42 73.9612 289.42 77.9501C289.42 81.9389 287.836 85.7644 285.015 88.585C282.194 91.4055 278.369 92.9901 274.38 92.9901H219.14C216.844 92.9249 214.664 91.9653 213.065 90.3158C211.465 88.6663 210.574 86.4574 210.58 84.1601Z" fill="#F0F0F0"/>
<path d="M367.47 79.3201C367.47 78.1929 367.918 77.1119 368.715 76.3149C369.512 75.5178 370.593 75.0701 371.72 75.0701C372.133 75.0738 372.543 75.1344 372.94 75.2501C372.876 74.8196 372.843 74.3852 372.84 73.9501C372.839 72.6272 373.13 71.3204 373.692 70.1227C374.254 68.9251 375.073 67.8661 376.091 67.021C377.109 66.176 378.301 65.5658 379.581 65.2337C380.862 64.9017 382.2 64.8561 383.5 65.1001C384.391 63.6459 385.73 62.5204 387.316 61.8931C388.902 61.2658 390.648 61.1706 392.293 61.6218C393.938 62.073 395.391 63.0462 396.435 64.3949C397.478 65.7436 398.056 67.3949 398.08 69.1001H398.21C400.133 69.1001 401.977 69.8639 403.336 71.2235C404.696 72.5832 405.46 74.4273 405.46 76.3501C405.46 78.2729 404.696 80.117 403.336 81.4766C401.977 82.8362 400.133 83.6001 398.21 83.6001H371.6C370.488 83.5713 369.431 83.1064 368.659 82.3057C367.886 81.505 367.459 80.4327 367.47 79.3201Z" fill="#F0F0F0"/>
<path d="M94.7201 84.61C94.7201 84.2349 94.7942 83.8635 94.938 83.5171C95.0819 83.1706 95.2927 82.856 95.5584 82.5912C95.8241 82.3265 96.1395 82.1167 96.4864 81.9741C96.8333 81.8315 97.205 81.7587 97.5801 81.76C97.8579 81.7593 98.1342 81.7997 98.4001 81.88C98.3566 81.5887 98.3332 81.2946 98.3301 81C98.3432 79.4128 98.9795 77.8942 100.102 76.7718C101.224 75.6494 102.743 75.0131 104.33 75C104.706 75.0015 105.081 75.0384 105.45 75.11C106.044 74.1268 106.942 73.3639 108.008 72.9369C109.074 72.51 110.25 72.4424 111.358 72.7443C112.466 73.0462 113.446 73.7012 114.148 74.6099C114.851 75.5187 115.237 76.6316 115.25 77.78H115.34C116.595 77.8369 117.779 78.3753 118.647 79.2833C119.515 80.1914 119.999 81.399 119.999 82.655C119.999 83.911 119.515 85.1187 118.647 86.0267C117.779 86.9347 116.595 87.4732 115.34 87.53H97.5001C97.1258 87.5209 96.757 87.4382 96.4147 87.2865C96.0723 87.1348 95.7633 86.9172 95.5051 86.646C95.2469 86.3749 95.0447 86.0555 94.91 85.7061C94.7753 85.3568 94.7108 84.9843 94.7201 84.61Z" fill="#F0F0F0"/>
<path d="M250 377.56C357.082 377.56 443.89 372.492 443.89 366.24C443.89 359.988 357.082 354.92 250 354.92C142.917 354.92 56.1099 359.988 56.1099 366.24C56.1099 372.492 142.917 377.56 250 377.56Z" fill="#F5F5F5"/>
<path d="M138.38 175.56L145.24 171.64C145.24 171.64 147.88 167.57 148.67 167.38C149.46 167.19 158.16 167.38 158.16 167.38C158.16 167.38 156.85 173.02 156.71 174.13C156.57 175.24 148.27 174.13 148.27 174.13L141.55 178.13L138.38 175.56Z" fill="#EBB376"/>
<path d="M74.4903 358L67.3103 356.57C67.1822 356.569 67.0576 356.612 66.9575 356.693C66.8574 356.773 66.7878 356.885 66.7603 357.01L64.8303 364.19C64.7897 364.435 64.8419 364.687 64.9769 364.896C65.1119 365.105 65.3199 365.256 65.5603 365.32H65.7703C68.3103 365.32 70.1603 365.12 73.3403 365.12C75.3403 365.12 81.2203 365.33 83.9303 365.33C86.6403 365.33 87.0003 362.65 85.9303 362.41C80.9303 361.32 77.2104 359.82 75.6203 358.41C75.3124 358.13 74.9063 357.982 74.4903 358Z" fill="#263238"/>
<path d="M162.36 357.76H154.52C154.392 357.757 154.266 357.8 154.166 357.88C154.065 357.961 153.996 358.074 153.97 358.2L152.69 364C152.653 364.245 152.708 364.496 152.844 364.703C152.981 364.91 153.19 365.058 153.43 365.12H153.64C156.18 365.07 158.02 364.92 161.21 364.92C163.21 364.92 169.09 365.12 171.8 365.12C174.51 365.12 174.86 362.45 173.75 362.2C168.75 361.12 165.03 359.61 163.44 358.2C163.299 358.058 163.131 357.945 162.945 357.87C162.76 357.794 162.561 357.757 162.36 357.76Z" fill="#263238"/>
<path d="M88.3301 225.67L121.53 217.25C129.06 233.69 156.69 301.19 163.39 357.35L152.15 360.2C152.15 360.2 132.25 277.38 115.56 253.2C115.56 253.2 114.67 289.96 112.86 295.31C111.37 299.71 77.2001 358.58 77.2001 358.58L66.1001 357.33C66.1001 357.33 94.0001 297.25 95.6401 289.76C96.8001 284.66 91.7201 247.2 91.7201 247.2C90.8301 243.86 89.4901 230.03 89.4901 230.03C89.4901 230.03 88.4901 226.36 88.3301 225.67Z" fill="#009DDC"/>
<path opacity="0.2" d="M115.57 253.22C118.388 257.482 120.846 261.971 122.92 266.64C120.62 253.7 113.49 241.17 113.49 241.17L115.57 253.22Z" fill="black"/>
<path opacity="0.3" d="M88.3301 225.67L121.53 217.25C129.06 233.69 156.69 301.19 163.39 357.35L152.15 360.2C152.15 360.2 132.25 277.38 115.56 253.2C115.56 253.2 114.67 289.96 112.86 295.31C111.37 299.71 77.2001 358.58 77.2001 358.58L66.1001 357.33C66.1001 357.33 94.0001 297.25 95.6401 289.76C96.8001 284.66 91.7201 247.2 91.7201 247.2C90.8301 243.86 89.4901 230.03 89.4901 230.03C89.4901 230.03 88.4901 226.36 88.3301 225.67Z" fill="black"/>
<path d="M146.05 176.13C146.05 176.13 130.91 186.35 126.92 186.89C125.33 187.11 122.05 186.57 118.66 185.89C113.52 184.79 108.16 183.25 108.16 183.25L107.49 178.18L106.78 172.76C107.98 172.36 123.64 178.76 125.98 179.76C128.32 180.76 143.45 171.76 143.45 171.76L146.05 176.13Z" fill="#263238"/>
<path d="M99.2302 223.33L100.21 227.17L89.4902 230.03L88.4902 226.05L99.2302 223.33Z" fill="black"/>
<path d="M116.14 219.04L117.07 222.68L101.4 226.86L100.42 223.03L116.14 219.04Z" fill="black"/>
<path d="M123.24 221.04L118.25 222.37L117.33 218.74L121.91 217.58L123.24 221.04Z" fill="black"/>
<path d="M107.615 225.204L113.799 223.636L112.669 219.177L106.484 220.745L107.615 225.204Z" fill="white"/>
<path d="M121.9 217.57L88.4802 226.05C86.8502 221.64 85.1902 217.2 83.5702 212.87C82.3802 209.7 81.2102 206.59 80.0702 203.58C79.7835 202.806 79.4935 202.046 79.2002 201.3L78.2002 198.64C77.4602 196.693 76.7469 194.816 76.0602 193.01L74.2202 188.2L73.3502 185.92L71.7002 181.62L106.79 172.72C118.36 192.91 121.9 217.57 121.9 217.57Z" fill="#263238"/>
<path d="M84.4402 180.76C88.0502 182.49 94.7102 179.44 94.7102 179.44C94.7102 179.44 96.9202 177 95.6002 175.92C92.9202 176.27 93.0902 175.39 92.1202 174.02C91.5655 173.155 91.1851 172.191 91.0002 171.18C90.8802 170.622 90.7901 170.058 90.7302 169.49L80.2002 165.71C82.5902 169.57 86.3002 176.88 84.4402 180.76Z" fill="#EBB376"/>
<path opacity="0.2" d="M83.4004 169.16C85.3004 174.21 89.9604 174.36 92.1204 174.02C91.5657 173.155 91.1853 172.19 91.0004 171.18L83.4004 169.16Z" fill="black"/>
<path d="M97.1202 150C97.1202 150 99.8702 158.3 95.9002 162.35C91.9302 166.4 89.2402 150.53 89.2402 150.53L97.1202 150Z" fill="#263238"/>
<path d="M83.9201 171.39C85.108 172.63 86.6696 173.446 88.3656 173.713C90.0616 173.98 91.7985 173.684 93.3101 172.87C95.292 171.846 96.8084 170.104 97.5501 168C97.6501 167.72 97.7401 167.42 97.8201 167.12C99.1601 161.53 98.3201 152.3 92.2301 149.82C90.8878 149.267 89.4263 149.066 87.9846 149.237C86.5428 149.408 85.1687 149.945 83.9931 150.797C82.8175 151.649 81.8793 152.787 81.2679 154.104C80.6565 155.421 80.3922 156.872 80.5001 158.32C80.8601 164.55 80.7801 168.21 83.9201 171.39Z" fill="#EBB376"/>
<path d="M89.9302 160.09C89.9302 160.59 90.1902 161 90.5302 161C90.8702 161 91.1202 160.59 91.1302 160.09C91.1402 159.59 90.8602 159.17 90.5302 159.17C90.2002 159.17 89.9302 159.58 89.9302 160.09Z" fill="#263238"/>
<path d="M95.6504 160.09C95.6504 160.6 95.9204 161.01 96.2504 161.01C96.5804 161.01 96.8404 160.59 96.8504 160.09C96.8604 159.59 96.5704 159.18 96.2504 159.18C95.9304 159.18 95.6504 159.61 95.6504 160.09Z" fill="#263238"/>
<path d="M93.8301 160.34C94.4279 161.888 95.2391 163.346 96.2401 164.67C95.8929 164.919 95.4952 165.088 95.0752 165.166C94.6552 165.243 94.2233 165.228 93.8101 165.12L93.8301 160.34Z" fill="#D58745"/>
<path d="M97.7403 157.75C97.6923 157.774 97.6392 157.787 97.5853 157.787C97.5314 157.787 97.4782 157.774 97.4303 157.75C97.1345 157.522 96.7895 157.368 96.4229 157.298C96.0564 157.229 95.6787 157.246 95.3203 157.35C95.2473 157.378 95.1663 157.375 95.0951 157.343C95.0238 157.312 94.9681 157.253 94.9403 157.18C94.9124 157.107 94.9147 157.026 94.9466 156.954C94.9784 156.883 95.0373 156.828 95.1103 156.8C95.5587 156.658 96.0348 156.627 96.4979 156.709C96.961 156.79 97.3975 156.983 97.7703 157.27C97.803 157.291 97.8311 157.318 97.853 157.351C97.8749 157.383 97.89 157.419 97.8974 157.458C97.9049 157.496 97.9046 157.535 97.8965 157.573C97.8884 157.612 97.8726 157.648 97.8503 157.68C97.8167 157.708 97.7797 157.731 97.7403 157.75Z" fill="#263238"/>
<path d="M88.8 157.82C88.7428 157.812 88.688 157.792 88.64 157.76C88.585 157.704 88.5542 157.628 88.5542 157.55C88.5542 157.471 88.585 157.396 88.64 157.34C88.9895 157.02 89.4111 156.789 89.8691 156.667C90.327 156.545 90.8076 156.536 91.27 156.64C91.3429 156.663 91.4043 156.713 91.4415 156.78C91.4787 156.847 91.4889 156.926 91.47 157C91.4467 157.076 91.3955 157.139 91.3267 157.178C91.2579 157.217 91.1768 157.229 91.1 157.21C90.7352 157.137 90.3582 157.151 90.0001 157.252C89.642 157.353 89.3129 157.537 89.04 157.79C89.0042 157.811 88.9644 157.825 88.9231 157.83C88.8818 157.835 88.8399 157.832 88.8 157.82Z" fill="#263238"/>
<path d="M85.0602 150.6L85.6602 151.75C83.6602 152.52 84.1602 154.88 84.6602 155.93C85.6602 158.19 84.5102 161.82 82.8202 163.33C82.8202 163.33 82.7102 162.33 81.8802 162.61C81.0502 162.89 81.5302 168.07 83.2902 170.47C83.2902 170.47 80.7002 168.34 79.0402 162.96C77.5102 157.96 77.1502 153.79 78.1002 151.79L85.0602 150.6Z" fill="#263238"/>
<path d="M77.7802 163.44C78.1204 164.138 78.5949 164.763 79.1766 165.277C79.7582 165.792 80.4357 166.187 81.1702 166.44C83.1702 167.1 84.1702 165.37 83.7702 163.44C83.3502 161.75 81.8402 159.3 79.7702 159.49C79.3337 159.539 78.9163 159.695 78.5557 159.946C78.1951 160.197 77.9028 160.534 77.7052 160.926C77.5076 161.318 77.4109 161.753 77.424 162.192C77.4371 162.631 77.5595 163.06 77.7802 163.44Z" fill="#EBB376"/>
<path d="M85 173.89C87.94 175.95 93.67 176.62 96.48 172.89C99.29 169.16 98.39 163.17 98.39 163.17C98.0672 164.508 97.4525 165.758 96.59 166.83C95 164.91 92.3 166 92.3 166C91.731 165.26 90.9146 164.748 90 164.56C88.69 164.43 85 164.65 85 164.65C83.82 163.9 83.77 160.56 83.77 160.56L83.05 161.16C83.05 161.16 82.05 171.82 85 173.89Z" fill="#263238"/>
<path d="M92.8604 152.72C92.8604 152.72 99.8604 149.32 99.0304 145.92C98.2004 142.52 96.1604 146.4 96.1604 146.4C96.1604 146.4 97.1004 143.82 95.2604 143.4C93.4204 142.98 94.0004 144.63 93.0004 145.62C92.0004 146.61 82.3004 145.17 79.1704 147.11C76.0404 149.05 78.4304 155.76 78.4304 155.76C80.279 153.904 82.6289 152.628 85.192 152.088C87.7552 151.548 90.4202 151.768 92.8604 152.72Z" fill="#263238"/>
<path opacity="0.2" d="M85 173.89C87.94 175.95 93.67 176.62 96.48 172.89C99.29 169.16 98.39 163.17 98.39 163.17C98.0672 164.508 97.4525 165.758 96.59 166.83C95 164.91 92.3 166 92.3 166C91.731 165.26 90.9146 164.748 90 164.56C88.69 164.43 85 164.65 85 164.65C83.82 163.9 83.77 160.56 83.77 160.56L83.05 161.16C83.05 161.16 82.05 171.82 85 173.89Z" fill="white"/>
<path d="M92.6003 167.9C92.0622 168.62 91.5776 169.379 91.1503 170.17L90.7003 170C88.7003 169.27 87.9803 168.27 87.8203 167.37C87.7556 166.934 87.7933 166.489 87.9303 166.07C88.0032 165.827 88.1074 165.595 88.2403 165.38C89.2922 166.384 90.547 167.151 91.9203 167.63C92.3303 167.81 92.6003 167.9 92.6003 167.9Z" fill="#263238"/>
<path d="M91.9202 167.64L91.4702 168.3C89.5702 167.61 88.3202 166.87 87.9302 166.08C88.003 165.837 88.1073 165.605 88.2402 165.39C89.292 166.394 90.5469 167.161 91.9202 167.64Z" fill="white"/>
<path d="M90.7003 170C88.7003 169.27 87.9803 168.27 87.8203 167.37C88.584 167.667 89.291 168.093 89.9103 168.63C90.3111 168.992 90.5875 169.472 90.7003 170Z" fill="#DE5753"/>
<path d="M96.0303 179.45L95.4403 184.63L106.24 207.64L105.17 210.69L101.64 209.06L93.9403 185.59L88.2803 181.76L92.4003 179.5L96.0303 179.45Z" fill="#009DDC"/>
<path d="M84.6801 175.91L91.8301 178.86L92.1201 174.02L97.3901 175.32L97.8401 182.69L92.7701 180.62L90.6501 185.34L81.6401 179.32L84.6801 175.91Z" fill="#263238"/>
<path opacity="0.2" d="M84.6801 175.91L91.8301 178.86L92.1201 174.02L97.3901 175.32L97.8401 182.69L92.7701 180.62L90.6501 185.34L81.6401 179.32L84.6801 175.91Z" fill="white"/>
<path opacity="0.2" d="M78.1903 198.64C77.4503 196.693 76.737 194.817 76.0503 193.01L74.2103 188.2L73.3403 185.92C74.3403 185.43 76.8903 185.72 77.6003 186.92C80.2003 191.46 78.1903 198.64 78.1903 198.64Z" fill="black"/>
<path opacity="0.2" d="M90.7202 203.72C90.2931 205.684 89.4284 207.527 88.1904 209.111C86.9525 210.696 85.3733 211.98 83.5702 212.87C82.3802 209.7 81.2102 206.59 80.0702 203.58C79.7835 202.806 79.4935 202.046 79.2002 201.3L78.2002 198.64L89.7802 200.11L90.7202 203.72Z" fill="black"/>
<path opacity="0.2" d="M118.66 185.85C113.52 184.75 108.16 183.21 108.16 183.21L107.49 178.14C107.49 178.14 116.94 179.15 118.66 185.85Z" fill="black"/>
<path d="M71.6902 304C71.3767 304.01 71.0678 303.922 70.8069 303.748C70.5461 303.574 70.3465 303.322 70.2361 303.029C70.1257 302.735 70.1101 302.414 70.1916 302.111C70.273 301.808 70.4474 301.539 70.6902 301.34C87.3802 287.64 87.0602 266.17 86.7502 245.4C86.5102 229.74 86.2902 214.94 93.6602 204.88C104 190.74 145.59 168.31 152.48 167.67C157.41 167.18 307.78 125.39 386.61 103.36C386.993 103.252 387.404 103.302 387.751 103.497C388.098 103.692 388.353 104.017 388.46 104.4C388.568 104.783 388.518 105.193 388.323 105.54C388.128 105.887 387.803 106.142 387.42 106.25C378.09 108.86 158.94 170.09 152.76 170.66C146.83 171.21 105.66 193.55 96.0802 206.66C89.3102 215.91 89.5202 230.22 89.7502 245.36C90.0502 265.84 90.4002 289.06 72.5902 303.67C72.3351 303.877 72.0185 303.993 71.6902 304Z" fill="#263238"/>
<path opacity="0.4" d="M387.47 106.24L366.91 112C310.36 127.78 157.91 170.2 152.81 170.67C146.88 171.22 105.71 193.56 96.1304 206.67C89.3603 215.92 89.5704 230.23 89.8004 245.37C90.1004 265.85 90.4504 289.07 72.6404 303.68C72.3602 303.912 72.0042 304.033 71.6404 304.02C71.3269 304.03 71.018 303.942 70.7571 303.768C70.4963 303.594 70.2967 303.342 70.1863 303.049C70.0759 302.755 70.0603 302.434 70.1418 302.131C70.2232 301.828 70.3976 301.559 70.6404 301.36C87.3304 287.66 87.0103 266.19 86.7003 245.42C86.4604 229.76 86.2404 214.96 93.6104 204.9C103.95 190.76 145.54 168.33 152.43 167.69C157.07 167.23 290.29 130.25 371.71 107.53L386.56 103.38C386.944 103.272 387.354 103.322 387.701 103.517C388.048 103.712 388.303 104.037 388.41 104.42C388.518 104.803 388.469 105.213 388.273 105.56C388.078 105.907 387.754 106.162 387.37 106.27L387.47 106.24Z" fill="white"/>
<path opacity="0.2" d="M387.47 106.24L366.91 112C368.351 110.309 369.997 108.804 371.81 107.52L386.66 103.37C387.043 103.262 387.454 103.311 387.801 103.507C388.147 103.702 388.403 104.026 388.51 104.41C388.618 104.793 388.568 105.203 388.373 105.55C388.178 105.897 387.853 106.152 387.47 106.26V106.24Z" fill="black"/>
<path d="M81.9102 200.8L89.7701 200.11C89.7701 200.11 93.8802 197.51 94.6702 197.68C95.4602 197.85 103.29 201.68 103.29 201.68C103.29 201.68 99.7402 206.25 99.1502 207.2C98.5602 208.15 91.4902 203.67 91.4902 203.67L83.7001 204.5L81.9102 200.8Z" fill="#EBB376"/>
<path d="M71.6901 181.62C68.1201 184.17 58.8201 204.96 59.8101 208.17C60.8001 211.38 89.7401 205.05 89.7401 205.05L88.4601 199.64H72.8901L76.5901 193.8C76.5901 193.8 78.8701 191.58 77.4701 186.42C76.4601 182.7 71.6901 181.62 71.6901 181.62Z" fill="#263238"/>
<path d="M373.21 183.71L367.28 180.9C367.28 180.9 364.28 175.16 363.4 174.24C362.52 173.32 358.27 176.89 358.27 177.51C358.27 178.13 361.35 183.93 362.15 184.28C363.34 184.455 364.55 184.455 365.74 184.28L371.38 187.01L373.21 183.71Z" fill="#9F5B53"/>
<path d="M387.05 148.14L388.24 143.89C388.24 143.89 390.12 138.35 389.92 137.07C389.552 135.555 389.078 134.068 388.5 132.62C388.5 132.62 383.3 138.95 383.3 139.74C383.3 140.53 385.36 143.4 385.36 143.4L384.36 148.14H387.05Z" fill="#9F5B53"/>
<path d="M391.62 179.8C391.62 179.8 387.14 174.23 385.82 169.05C384.5 163.87 388.49 147.05 388.49 147.05L384.28 145.93C384.28 145.93 379.28 163.14 379.11 169.42C378.94 175.7 388.28 194.13 388.28 194.13L391.62 179.8Z" fill="#009DDC"/>
<path opacity="0.2" d="M388.91 191.36L388.27 194.09C388.27 194.09 385.05 187.74 382.42 181.22C385.157 183.186 387.22 185.948 388.33 189.13C388.584 189.856 388.778 190.602 388.91 191.36Z" fill="black"/>
<path d="M415.34 192C415.283 193.162 415.143 194.319 414.92 195.46C414.46 197.96 413.68 200.91 412.79 204.16C412.31 205.87 411.79 207.7 411.33 209.63C409.1 218.3 407.89 221.75 406.24 232.82L374.59 225.31C376.3 215.834 378.909 206.542 382.38 197.56C383.3 195.17 384.38 192.78 385.47 190.42C387.217 186.72 389.275 183.174 391.62 179.82C391.62 179.82 396.74 184.5 412.82 187.31C414.77 187.61 415.44 189.31 415.34 192Z" fill="#009DDC"/>
<path opacity="0.2" d="M411.36 188.39C411.36 189.39 415.15 194.15 414.92 195.39C414.49 195.68 413.98 196 413.4 196.39C402.69 202.62 388.64 199.46 382.4 197.53C383.32 195.14 385.4 190.75 386.48 188.39L393.99 190.06C393.99 190.06 406.27 187.26 411.36 188.39Z" fill="black"/>
<path d="M398.49 181.71C399.64 181.27 409.08 183.62 408.38 183.82C407.68 184.02 404.16 194.82 399.23 194.01C394.3 193.2 394.39 183.27 398.49 181.71Z" fill="#009DDC"/>
<path d="M355.75 358.66L349.81 359.95L346.34 346.29L352.29 345L355.75 358.66Z" fill="#9F5B53"/>
<path d="M348.33 357.47H355.72C355.84 357.47 355.957 357.512 356.05 357.588C356.143 357.665 356.207 357.772 356.23 357.89L357.43 363.3C357.456 363.416 357.459 363.535 357.438 363.652C357.418 363.769 357.374 363.88 357.31 363.98C357.246 364.08 357.162 364.166 357.064 364.233C356.966 364.3 356.856 364.346 356.74 364.37H356.54C354.15 364.37 352.41 364.18 349.41 364.18C347.56 364.18 341.98 364.37 339.41 364.37C336.84 364.37 336.53 361.85 337.57 361.62C342.26 360.62 345.79 359.18 347.29 357.84C347.43 357.712 347.594 357.614 347.773 357.55C347.951 357.487 348.14 357.46 348.33 357.47Z" fill="#263238"/>
<path d="M346.32 358.54C345.906 358.571 345.494 358.462 345.15 358.23C345.038 358.138 344.951 358.019 344.899 357.885C344.846 357.75 344.829 357.603 344.85 357.46C344.845 357.376 344.865 357.292 344.908 357.219C344.951 357.146 345.014 357.087 345.09 357.05C345.77 356.7 347.73 357.91 347.95 358.05C347.975 358.063 347.996 358.083 348.008 358.108C348.021 358.134 348.025 358.162 348.02 358.19C348.016 358.219 348.004 358.246 347.984 358.268C347.964 358.289 347.938 358.304 347.91 358.31C347.39 358.446 346.857 358.523 346.32 358.54ZM345.41 357.28C345.351 357.26 345.288 357.26 345.23 357.28C345.23 357.28 345.14 357.33 345.13 357.45C345.119 357.545 345.132 357.641 345.167 357.73C345.202 357.819 345.258 357.898 345.33 357.96C346.009 358.271 346.782 358.31 347.49 358.07C346.854 357.675 346.148 357.406 345.41 357.28Z" fill="#009DDC"/>
<path d="M347.87 358.32H347.8C347.18 357.98 345.96 356.64 346.08 356C346.103 355.892 346.162 355.796 346.248 355.727C346.333 355.657 346.44 355.62 346.55 355.62C346.659 355.605 346.771 355.615 346.876 355.648C346.981 355.68 347.078 355.736 347.16 355.81C347.86 356.38 348.01 358.13 348.02 358.21C348.022 358.236 348.016 358.262 348.004 358.285C347.991 358.308 347.973 358.327 347.95 358.34C347.936 358.344 347.921 358.344 347.907 358.341C347.893 358.337 347.88 358.33 347.87 358.32ZM346.65 355.85H346.58C346.39 355.85 346.38 355.96 346.37 356C346.29 356.4 347.07 357.41 347.69 357.88C347.656 357.198 347.415 356.542 347 356C346.955 355.952 346.901 355.914 346.841 355.889C346.78 355.863 346.716 355.85 346.65 355.85Z" fill="#009DDC"/>
<path d="M406.5 233.65C406.5 233.65 401.37 258.11 389.37 264.65C387.993 265.425 386.484 265.937 384.92 266.16C384.92 266.16 372.75 271.16 362.23 275.89C355.83 278.78 350.04 281.6 347.97 283.18C342.49 287.35 355.91 352.45 355.91 352.45L346.79 352.55C346.79 352.55 327.6 294.91 330.79 279.78C333.98 264.65 368.42 241.49 368.42 241.49L373.72 226.91L406.5 233.65Z" fill="#263238"/>
<path opacity="0.2" d="M389.37 264.68C387.993 265.454 386.484 265.966 384.92 266.19C384.92 266.19 372.75 271.19 362.23 275.92C369 263.47 381.07 255.38 381.07 255.38L389.37 264.68Z" fill="black"/>
<path d="M432.21 358.66L426.27 359.95L422.8 346.29L428.75 345L432.21 358.66Z" fill="#9F5B53"/>
<path d="M424.79 357.47H432.18C432.301 357.47 432.417 357.512 432.51 357.588C432.603 357.665 432.667 357.772 432.69 357.89L433.89 363.3C433.917 363.416 433.919 363.535 433.899 363.652C433.878 363.769 433.835 363.88 433.77 363.98C433.706 364.08 433.623 364.166 433.525 364.233C433.427 364.3 433.316 364.346 433.2 364.37H433C430.61 364.37 428.87 364.18 425.87 364.18C424.02 364.18 418.44 364.37 415.87 364.37C413.3 364.37 412.99 361.85 414.03 361.62C418.72 360.62 422.25 359.18 423.75 357.84C423.89 357.712 424.054 357.614 424.233 357.55C424.412 357.487 424.601 357.46 424.79 357.47Z" fill="#263238"/>
<path d="M422.78 358.54C422.366 358.571 421.954 358.462 421.61 358.23C421.498 358.138 421.411 358.019 421.359 357.885C421.306 357.75 421.289 357.603 421.31 357.46C421.305 357.376 421.325 357.292 421.368 357.219C421.411 357.146 421.474 357.087 421.55 357.05C422.23 356.7 424.19 357.91 424.41 358.05C424.435 358.063 424.456 358.083 424.468 358.108C424.481 358.134 424.485 358.162 424.48 358.19C424.476 358.219 424.464 358.246 424.444 358.268C424.424 358.289 424.398 358.304 424.37 358.31C423.85 358.446 423.317 358.523 422.78 358.54ZM421.87 357.28C421.811 357.26 421.748 357.26 421.69 357.28C421.69 357.28 421.6 357.33 421.59 357.45C421.579 357.545 421.592 357.641 421.627 357.73C421.662 357.819 421.718 357.898 421.79 357.96C422.469 358.271 423.242 358.31 423.95 358.07C423.314 357.675 422.608 357.406 421.87 357.28Z" fill="#009DDC"/>
<path d="M424.33 358.32H424.26C423.64 357.98 422.42 356.64 422.54 356C422.563 355.892 422.622 355.796 422.708 355.727C422.793 355.657 422.9 355.62 423.01 355.62C423.119 355.605 423.231 355.615 423.336 355.648C423.441 355.68 423.538 355.736 423.62 355.81C424.32 356.38 424.47 358.13 424.48 358.21C424.482 358.236 424.476 358.262 424.464 358.285C424.451 358.308 424.433 358.327 424.41 358.34C424.396 358.344 424.381 358.344 424.367 358.341C424.353 358.337 424.34 358.33 424.33 358.32ZM423.11 355.85H423C422.81 355.85 422.8 355.96 422.79 356C422.71 356.4 423.49 357.41 424.11 357.88C424.071 357.188 423.82 356.524 423.39 355.98C423.314 355.907 423.215 355.861 423.11 355.85Z" fill="#009DDC"/>
<path d="M408.55 186.89C407.06 187.89 400.19 187.51 400.19 187.51L397 191L396.69 185.23C396.69 185.23 394.54 184.34 395.13 183.72C395.878 183.776 396.629 183.681 397.34 183.443C398.051 183.204 398.707 182.826 399.27 182.33C400.66 180.97 400.93 178.78 400.91 176.61C400.91 176.61 400.91 176.55 400.91 176.53L406.78 173.53L410.84 171.44C408.93 175.56 406.2 183.29 408.55 186.89Z" fill="#9F5B53"/>
<path opacity="0.2" d="M408.72 174.9C406.78 179.81 401.72 182 399.23 182.32C400.62 180.96 400.89 178.77 400.87 176.6C400.875 176.57 400.875 176.54 400.87 176.51L406.74 173.51C406.75 174.31 409 174.15 408.72 174.9Z" fill="black"/>
<path d="M412.45 174.7C412.45 174.7 416.26 176.7 417.53 174.31C418.8 171.92 416.99 171.78 418.86 170.92C420.73 170.06 423.39 169.46 422.78 167.65C422.17 165.84 420.28 165.65 422.38 163.65C424.48 161.65 424.94 158.83 421.8 158.28C418.66 157.73 419.86 155.28 419.7 154.28C419.54 153.28 417.78 152.58 415.87 152.98C413.96 153.38 413.16 150.55 411.98 149.67C410.8 148.79 409.17 149.87 408.74 151.06C408.31 152.25 407.18 150.67 405.5 150.47C403.82 150.27 404.21 152.04 403.69 153.69C403.17 155.34 402.14 154.27 400.94 155.63C399.74 156.99 399.63 166.27 412.45 174.7Z" fill="#263238"/>
<path d="M414.11 169C411.24 173.5 409.61 176.47 406.39 177.93C405.957 178.13 405.509 178.297 405.05 178.43C398.79 180.27 393.63 174.24 395.28 168.27C395.594 167.193 395.995 166.143 396.48 165.13C398.72 160.44 403.03 155.64 408.18 156.27C409.255 156.393 410.296 156.727 411.242 157.253C412.188 157.778 413.022 158.485 413.694 159.333C414.367 160.182 414.865 161.154 415.161 162.195C415.458 163.236 415.545 164.325 415.42 165.4C415.269 166.686 414.82 167.918 414.11 169Z" fill="#9F5B53"/>
<path d="M405.3 166C405.09 166.45 404.64 166.65 404.36 166.5C404.08 166.35 404.05 165.86 404.28 165.44C404.51 165.02 404.95 164.79 405.22 164.94C405.49 165.09 405.54 165.59 405.3 166Z" fill="#263238"/>
<path d="M400.45 163.33C400.388 163.518 400.255 163.674 400.079 163.766C399.904 163.857 399.699 163.877 399.51 163.82C399.24 163.66 399.2 163.19 399.44 162.76C399.68 162.33 400.1 162.11 400.38 162.27C400.66 162.43 400.68 162.92 400.45 163.33Z" fill="#263238"/>
<path d="M401.88 164.4C400.637 165.421 399.261 166.269 397.79 166.92C397.966 167.294 398.222 167.625 398.54 167.89C398.858 168.154 399.23 168.345 399.63 168.45L401.88 164.4Z" fill="#892B29"/>
<path d="M408.2 164.88C408.148 164.888 408.094 164.882 408.045 164.863C407.996 164.844 407.953 164.812 407.92 164.77C407.717 164.471 407.447 164.225 407.13 164.051C406.814 163.877 406.461 163.781 406.1 163.77C406.058 163.778 406.015 163.777 405.974 163.766C405.932 163.755 405.894 163.736 405.861 163.709C405.828 163.681 405.802 163.647 405.784 163.609C405.766 163.57 405.756 163.528 405.756 163.485C405.756 163.443 405.766 163.401 405.784 163.362C405.802 163.323 405.828 163.289 405.861 163.262C405.894 163.235 405.932 163.215 405.974 163.205C406.015 163.194 406.058 163.192 406.1 163.2C406.556 163.203 407.004 163.317 407.406 163.531C407.809 163.745 408.153 164.054 408.41 164.43C408.434 164.46 408.451 164.493 408.461 164.53C408.472 164.566 408.475 164.604 408.47 164.641C408.465 164.678 408.453 164.714 408.434 164.747C408.415 164.779 408.39 164.808 408.36 164.83C408.311 164.86 408.257 164.877 408.2 164.88Z" fill="#263238"/>
<path d="M400.8 171.13C401.472 171.348 402.186 171.401 402.882 171.285C403.578 171.168 404.236 170.885 404.8 170.46C404.825 170.431 404.839 170.393 404.839 170.355C404.839 170.316 404.825 170.279 404.8 170.25C404.772 170.222 404.734 170.207 404.695 170.207C404.656 170.207 404.618 170.222 404.59 170.25C404.056 170.634 403.44 170.888 402.791 170.992C402.142 171.096 401.477 171.047 400.85 170.85C400.832 170.842 400.813 170.838 400.794 170.839C400.775 170.839 400.756 170.844 400.739 170.852C400.722 170.861 400.706 170.873 400.695 170.888C400.683 170.904 400.674 170.921 400.67 170.94C400.662 170.957 400.658 170.977 400.659 170.996C400.659 171.015 400.664 171.034 400.672 171.051C400.681 171.068 400.693 171.084 400.708 171.095C400.724 171.107 400.741 171.116 400.76 171.12L400.8 171.13Z" fill="#263238"/>
<path d="M400 159.18C399.984 159.124 399.984 159.066 400 159.01C400.032 158.942 400.09 158.889 400.161 158.863C400.232 158.836 400.311 158.839 400.38 158.87C400.799 159.058 401.168 159.344 401.453 159.704C401.739 160.065 401.933 160.488 402.02 160.94C402.028 161.015 402.007 161.091 401.96 161.151C401.913 161.211 401.845 161.25 401.77 161.26C401.694 161.268 401.619 161.247 401.559 161.2C401.499 161.154 401.46 161.085 401.45 161.01C401.371 160.657 401.211 160.327 400.981 160.048C400.752 159.768 400.46 159.546 400.13 159.4C400.094 159.374 400.064 159.341 400.042 159.303C400.019 159.266 400.005 159.224 400 159.18Z" fill="#263238"/>
<path d="M404.12 156.69C405.58 156.87 406.3 158.69 406.3 158.69C408.065 159.335 409.772 160.131 411.4 161.07C411.897 161.475 412.27 162.011 412.479 162.617C412.687 163.223 412.722 163.875 412.58 164.5C412.53 164.98 411.35 165.42 411.35 165.42C411.35 165.42 409.19 170.52 408.6 171.93L408.9 176.64C412.869 174.13 416.048 170.549 418.07 166.31C421.48 159.21 407.25 152.96 407.25 152.96L404.12 156.69Z" fill="#263238"/>
<path d="M413.25 176.12C411.92 176.848 410.357 177.021 408.9 176.6C406.97 176.02 407.08 174.04 408.51 172.77C409.79 171.67 412.36 170.58 413.85 171.86C414.176 172.139 414.427 172.495 414.579 172.896C414.731 173.297 414.779 173.73 414.719 174.155C414.659 174.58 414.493 174.982 414.236 175.326C413.98 175.669 413.64 175.943 413.25 176.12Z" fill="#9F5B53"/>
<path d="M408.38 183.82L400.43 186.11L397 190.76L397.93 185.07C397.93 185.07 397.08 183.76 398.49 181.71L393.65 182.71L390.73 187.59L396.41 186.26L396.8 191.93L400.11 188.03L402.82 192.31L410.88 187.2L408.38 183.82Z" fill="#009DDC"/>
<path opacity="0.2" d="M408.38 183.82L400.43 186.11L397 190.76L397.93 185.07C397.93 185.07 397.08 183.76 398.49 181.71L393.65 182.71L390.73 187.59L396.41 186.26L396.8 191.93L400.11 188.03L402.82 192.31L410.88 187.2L408.38 183.82Z" fill="black"/>
<path d="M375.01 222L373.77 226.94L406.49 233.65L406.98 228.16L375.01 222Z" fill="black"/>
<path d="M389.62 224.59C389.36 224.22 382.08 222.65 381.39 223.17C381.39 223.17 379.98 228.04 380.22 228.55C380.46 229.06 387.54 230.05 388.22 230.19C388.9 230.33 389.88 225 389.62 224.59ZM387.62 229.59C387.08 229.48 381.26 228.67 381.06 228.25C380.86 227.83 382.06 223.83 382.06 223.83C382.63 223.4 388.61 224.69 388.82 224.99C389.03 225.29 388.16 229.65 387.62 229.54V229.59Z" fill="white"/>
<path d="M387.9 226.25L386.45 225.95C386.318 225.925 386.181 225.95 386.067 226.02C385.952 226.09 385.868 226.201 385.83 226.33C385.809 226.402 385.804 226.478 385.814 226.553C385.824 226.627 385.85 226.699 385.89 226.763C385.929 226.827 385.982 226.882 386.044 226.925C386.106 226.967 386.176 226.996 386.25 227.01L387.7 227.29C387.841 227.318 387.987 227.289 388.106 227.209C388.225 227.129 388.307 227.006 388.335 226.865C388.363 226.724 388.334 226.579 388.254 226.459C388.174 226.34 388.051 226.258 387.91 226.23L387.9 226.25Z" fill="white"/>
<path d="M406.49 233.65C406.49 233.65 407.12 270.65 406.08 281.45C405.04 292.25 432 351.36 432 351.36H423.27C423.27 351.36 396.82 308.08 390.76 294.76C384.7 281.44 380.22 249.66 380.22 249.66L406.49 233.65Z" fill="#263238"/>
<path d="M415.45 189.4C414.1 186.34 393.37 190.87 391.5 190.34C389.63 189.81 370.17 181.66 370.17 181.66L368.48 186C368.48 186 385.93 196 389.75 197.58C393.57 199.16 408.84 198.4 412.75 196.71C413.419 196.422 414.023 196 414.524 195.471C415.025 194.943 415.414 194.317 415.667 193.634C415.919 192.95 416.03 192.223 415.993 191.495C415.956 190.767 415.771 190.054 415.45 189.4Z" fill="#009DDC"/>
<path d="M411.78 109.93L405.5 69.9302L372.42 93.3202L383.42 97.9802C372.8 122.32 338.35 193.63 279.07 246.21C203.38 313.36 97.4399 346.4 96.3799 346.72L102.24 365.85C106.74 364.47 213.32 331.27 292.38 261.14C355.38 205.26 390.8 131.56 401.92 105.76L411.78 109.93Z" fill="#009DDC"/>
<path opacity="0.4" d="M405.78 102.93L405.5 69.9302L372.42 93.3202L383.42 97.9802C372.8 122.32 338.35 193.63 279.07 246.21C203.38 313.36 97.4399 346.4 96.3799 346.72L98.2399 358.85C102.74 357.47 209.32 327.27 288.38 257.14C351.38 201.26 384.8 126.56 395.92 100.76L405.78 102.93Z" fill="white"/>
<path d="M400 111.62C399.844 111.622 399.689 111.598 399.54 111.55L380.33 105.34C380.132 105.289 379.947 105.198 379.785 105.072C379.624 104.947 379.49 104.79 379.392 104.611C379.293 104.432 379.232 104.234 379.213 104.031C379.193 103.827 379.216 103.622 379.279 103.427C379.341 103.233 379.443 103.053 379.578 102.9C379.713 102.746 379.877 102.621 380.062 102.533C380.247 102.446 380.447 102.397 380.652 102.389C380.856 102.382 381.059 102.416 381.25 102.49L400.46 108.69C400.802 108.799 401.094 109.026 401.283 109.331C401.471 109.636 401.545 109.999 401.489 110.353C401.433 110.707 401.253 111.03 400.979 111.263C400.706 111.495 400.359 111.622 400 111.62Z" fill="#263238"/>
<path opacity="0.4" d="M400 111.62C399.844 111.622 399.689 111.598 399.54 111.55L380.33 105.34C380.132 105.289 379.947 105.198 379.785 105.072C379.624 104.947 379.49 104.79 379.392 104.611C379.293 104.432 379.232 104.234 379.213 104.031C379.193 103.827 379.216 103.622 379.279 103.427C379.341 103.233 379.443 103.053 379.578 102.9C379.713 102.746 379.877 102.621 380.062 102.533C380.247 102.446 380.447 102.397 380.652 102.389C380.856 102.382 381.059 102.416 381.25 102.49L400.46 108.69C400.802 108.799 401.094 109.026 401.283 109.331C401.471 109.636 401.545 109.999 401.489 110.353C401.433 110.707 401.253 111.03 400.979 111.263C400.706 111.495 400.359 111.622 400 111.62Z" fill="white"/>
<path d="M169.93 298.82C169.532 298.82 169.151 298.662 168.87 298.381C168.588 298.099 168.43 297.718 168.43 297.32C168.43 249.58 182.3 243.32 184.9 242.55L229 211.7L229.1 211.64L398.52 111.18C398.862 110.985 399.266 110.933 399.647 111.033C400.027 111.134 400.352 111.38 400.553 111.718C400.754 112.057 400.813 112.46 400.719 112.842C400.625 113.224 400.385 113.554 400.05 113.76L230.71 214.19L186.4 245.19C186.211 245.321 185.997 245.41 185.77 245.45C185.66 245.45 171.43 248.95 171.43 297.35C171.422 297.743 171.261 298.117 170.98 298.391C170.7 298.666 170.323 298.82 169.93 298.82Z" fill="#263238"/>
<path opacity="0.4" d="M169.93 298.82C169.532 298.82 169.151 298.662 168.87 298.381C168.588 298.099 168.43 297.718 168.43 297.32C168.43 249.58 182.3 243.32 184.9 242.55L229 211.7L229.1 211.64L398.52 111.18C398.862 110.985 399.266 110.933 399.647 111.033C400.027 111.134 400.352 111.38 400.553 111.718C400.754 112.057 400.813 112.46 400.719 112.842C400.625 113.224 400.385 113.554 400.05 113.76L230.71 214.19L186.4 245.19C186.211 245.321 185.997 245.41 185.77 245.45C185.66 245.45 171.43 248.95 171.43 297.35C171.422 297.743 171.261 298.117 170.98 298.391C170.7 298.666 170.323 298.82 169.93 298.82Z" fill="white"/>
<path d="M181.45 249.28C181.45 249.28 173.74 254.28 167.88 255.79C166.434 256.279 164.882 256.365 163.39 256.04C159.03 254.66 161.62 246.22 164.22 240.89C164.64 240.02 165.06 239.24 165.45 238.58L173.07 243.29C173.07 243.29 168.45 249.88 168.98 250.29C169.51 250.7 176.63 246.73 176.98 246.6C177.33 246.47 181.45 249.28 181.45 249.28Z" fill="#009DDC"/>
<path opacity="0.2" d="M181.45 249.28C181.45 249.28 173.74 254.28 167.88 255.79C166.253 250.932 165.029 245.949 164.22 240.89C164.64 240.02 165.06 239.24 165.45 238.58L173.07 243.29C173.07 243.29 168.45 249.88 168.98 250.29C169.51 250.7 176.63 246.73 176.98 246.6C177.33 246.47 181.45 249.28 181.45 249.28Z" fill="black"/>
<path d="M219 220.26L223.52 216.26C223.881 215.118 224.378 214.024 225 213C225.49 212.59 233.72 211.95 233.72 211.95C233.72 211.95 233.88 216.3 233.23 217.43C232.58 218.56 225.86 219.05 225.86 219.05L222.26 222.52L219 220.26Z" fill="#EEC1BB"/>
<path d="M243.08 315.05C241.79 333.61 238.34 359.95 238.34 359.95L233.9 360.95C233.9 360.95 229.8 338.9 230.45 318.44C230.566 313.98 230.987 309.533 231.71 305.13C231.71 305.13 216.33 299.22 205.65 293.93C200.55 291.41 196.52 289.02 195.75 287.48C193.37 282.73 204.19 271.57 204.19 271.57C204.53 271.84 211.06 276 218.66 280.93C228.75 287.47 240.72 295.37 242.66 297.34C243.82 298.47 243.72 305.79 243.08 315.05Z" fill="#EEC1BB"/>
<path opacity="0.2" d="M243.08 315.05C238.976 316.538 234.75 317.666 230.45 318.42C230.566 313.96 230.987 309.513 231.71 305.11C231.71 305.11 216.33 299.2 205.65 293.91L218.65 280.91C228.74 287.45 240.71 295.35 242.65 297.32C243.82 298.47 243.72 305.79 243.08 315.05Z" fill="black"/>
<path d="M208.46 268.47C208.46 268.47 251.13 293 256.93 298.54C262.73 304.08 296.21 355.85 296.21 355.85L293.39 358.54C293.39 358.54 265.59 334.68 254.5 312L208.5 289.77L208.46 268.47Z" fill="#EEC1BB"/>
<path d="M176 223.18C176.069 223.228 176.143 223.268 176.22 223.3C177.268 223.894 178.424 224.271 179.62 224.41C183.1 224.72 185.34 223.94 186.62 222.2C188.4 219.62 188.36 215.5 187.38 210.65C187.056 208.709 186.425 206.833 185.51 205.09C185.51 205.09 185.51 205.02 185.51 205.01L185.39 204.81C184.834 203.835 184.041 203.014 183.086 202.424C182.13 201.833 181.042 201.492 179.92 201.43C178.944 201.349 177.961 201.376 176.99 201.51C167.49 202.74 168 218.76 176 223.18Z" fill="#EEC1BB"/>
<path opacity="0.2" d="M176.26 223.3C177.31 223.861 178.464 224.201 179.65 224.3C183.12 224.61 185.35 223.71 186.65 221.96C184.705 222.735 182.561 222.858 180.54 222.31C179.799 222.138 179.027 222.138 178.286 222.31C177.544 222.481 176.851 222.82 176.26 223.3Z" fill="black"/>
<path d="M175.62 231.12C174.79 233.8 178.22 235.22 178.22 235.22C184.22 233.22 185.57 230.29 185.57 230.29C180.97 227.29 182.99 220.35 182.99 220.35L181.99 220.75L174.99 221.49C174.99 221.49 176.58 225.32 176.76 226.18C177.64 230.69 175.62 231.12 175.62 231.12Z" fill="#EBB376"/>
<path d="M185.57 205C185.57 205 187.03 211.61 181.1 215.36C181.1 215.36 179.35 222.69 175.36 223.36C169.92 224.26 164.03 217.17 164.81 208.99C165.83 198.41 181.25 195.4 185.57 205Z" fill="#263238"/>
<path d="M184 213C183.85 212 182.77 210.32 181.18 210.79C179.59 211.26 179.18 215.53 183.44 215.88C184.09 216 184.35 215.2 184 213Z" fill="#EBB376"/>
<path d="M294.35 352.67L289.75 356.21C289.656 356.286 289.59 356.391 289.563 356.509C289.535 356.627 289.549 356.751 289.6 356.86L291.94 361.86C291.99 361.966 292.061 362.061 292.148 362.139C292.235 362.218 292.337 362.278 292.448 362.317C292.558 362.357 292.676 362.373 292.793 362.367C292.91 362.36 293.024 362.331 293.13 362.28C293.19 362.252 293.247 362.219 293.3 362.18C295.16 360.69 295.22 360.46 297.59 358.64C299.04 357.52 303.59 354.28 305.59 352.73C307.59 351.18 306.33 348.99 305.37 349.44C301.05 351.44 297.37 352.51 295.37 352.36C295.003 352.332 294.639 352.443 294.35 352.67Z" fill="#263238"/>
<path d="M295.35 352.58C295.325 352.593 295.296 352.597 295.268 352.592C295.24 352.588 295.214 352.575 295.193 352.556C295.173 352.536 295.158 352.511 295.152 352.483C295.147 352.455 295.149 352.426 295.16 352.4C295.25 352.16 296.07 350.01 296.81 349.88C296.892 349.863 296.977 349.869 297.056 349.9C297.134 349.93 297.201 349.982 297.25 350.05C297.352 350.152 297.427 350.277 297.467 350.416C297.507 350.554 297.512 350.7 297.48 350.84C297.361 351.249 297.103 351.602 296.75 351.84C296.313 352.14 295.844 352.388 295.35 352.58ZM295.56 352.17C296.266 351.931 296.853 351.43 297.2 350.77C297.22 350.676 297.215 350.577 297.188 350.485C297.16 350.392 297.109 350.308 297.04 350.24C296.96 350.16 296.89 350.14 296.86 350.17C296.798 350.182 296.739 350.21 296.69 350.25C296.195 350.813 295.812 351.464 295.56 352.17Z" fill="#009DDC"/>
<path d="M295.34 352.63C295.315 352.631 295.291 352.626 295.268 352.616C295.245 352.605 295.226 352.59 295.21 352.57C295.21 352.5 294.21 351.03 294.42 350.15C294.444 350.043 294.489 349.942 294.552 349.853C294.616 349.763 294.697 349.688 294.79 349.63C294.875 349.562 294.981 349.525 295.09 349.525C295.199 349.525 295.305 349.562 295.39 349.63C295.88 350.06 295.73 351.85 295.44 352.5L295.39 352.55L295.34 352.63ZM294.67 350.17C294.667 350.861 294.873 351.538 295.26 352.11C295.499 351.362 295.464 350.554 295.16 349.83C295.16 349.83 295.05 349.72 294.91 349.83H294.85C294.751 349.918 294.687 350.039 294.67 350.17Z" fill="#009DDC"/>
<path d="M239.12 357L233.31 357.11C233.191 357.117 233.077 357.162 232.987 357.24C232.896 357.318 232.834 357.423 232.81 357.54L231.72 362.95C231.688 363.176 231.743 363.406 231.875 363.592C232.007 363.778 232.206 363.906 232.43 363.95C232.496 363.96 232.564 363.96 232.63 363.95C235 363.86 235.19 363.71 238.18 363.65C240.02 363.65 245.57 363.7 248.11 363.65C250.65 363.6 250.93 361.08 249.89 360.87C245.2 359.95 241.67 358.61 240.15 357.3C239.858 357.072 239.489 356.965 239.12 357Z" fill="#263238"/>
<path d="M239.64 357.64C239.611 357.636 239.584 357.621 239.564 357.599C239.544 357.578 239.532 357.55 239.53 357.52C239.522 357.493 239.524 357.465 239.535 357.439C239.546 357.414 239.565 357.393 239.59 357.38C239.8 357.24 241.73 356 242.41 356.33C242.487 356.365 242.553 356.421 242.599 356.492C242.645 356.563 242.67 356.645 242.67 356.73C242.69 356.872 242.674 357.017 242.623 357.152C242.573 357.287 242.489 357.406 242.38 357.5C242.044 357.742 241.634 357.859 241.22 357.83C240.688 357.827 240.158 357.763 239.64 357.64ZM240.05 357.43C240.76 357.657 241.529 357.603 242.2 357.28C242.271 357.215 242.324 357.134 242.356 357.043C242.387 356.952 242.396 356.855 242.38 356.76C242.38 356.65 242.32 356.6 242.29 356.6C242.228 356.586 242.163 356.586 242.1 356.6C241.371 356.745 240.675 357.027 240.05 357.43Z" fill="#009DDC"/>
<path d="M239.6 357.67C239.577 357.658 239.557 357.639 239.545 357.616C239.532 357.593 239.527 357.566 239.53 357.54C239.53 357.46 239.64 355.72 240.33 355.13C240.412 355.056 240.509 355.001 240.614 354.968C240.719 354.935 240.831 354.926 240.94 354.94C241.049 354.938 241.156 354.973 241.242 355.041C241.327 355.108 241.387 355.204 241.41 355.31C241.54 355.94 240.41 357.31 239.74 357.65H239.67C239.65 357.665 239.625 357.673 239.6 357.67ZM240.52 355.3C240.108 355.855 239.871 356.52 239.84 357.21C240.46 356.73 241.21 355.7 241.12 355.31C241.12 355.31 241.12 355.17 240.91 355.17H240.84C240.721 355.172 240.607 355.219 240.52 355.3Z" fill="#009DDC"/>
<path d="M207.27 261.9L186.1 270.79C177.35 249.04 165.45 238.58 165.45 238.58C173.93 228.41 189.59 223.73 189.59 223.73C191.903 225.612 193.899 227.854 195.5 230.37C197.266 233.103 198.804 235.976 200.1 238.96C203.246 246.35 205.647 254.034 207.27 261.9Z" fill="#009DDC"/>
<path d="M185.37 209.42C185.37 209.42 192.02 202.64 185.65 198.17C179.28 193.7 172.96 199.67 172.96 199.67C172.96 199.67 157.83 203.48 161.15 213.53C164.47 223.58 166.59 224.41 161.84 229.63C157.09 234.85 152.25 242.55 157.21 247.4C162.17 252.25 179.27 247.05 184.4 239.61C189.53 232.17 180.19 216.4 185.37 209.42Z" fill="#263238"/>
<path d="M205.73 255.38L182.73 263.27C182.73 263.27 187.82 288.32 191.51 292.51C195.2 296.7 219.87 316.1 223.36 314.57C226.85 313.04 250 292.51 250 292.51L210.83 265.65L205.73 255.38Z" fill="#263238"/>
<path d="M202.38 260.09L207.27 258.47L206.06 256.05L201.43 257.68L202.38 260.09Z" fill="black"/>
<path d="M187.76 262.49L182.75 264.25L183.42 266.39L188.32 264.76L187.76 262.49Z" fill="black"/>
<path d="M189.37 264.41L201.4 260.42L200.5 258L188.71 262.15L189.37 264.41Z" fill="black"/>
<path opacity="0.2" d="M200.1 239C195.04 238.41 192.19 230.8 192.19 230.8C193.284 230.604 194.39 230.474 195.5 230.41C197.266 233.143 198.804 236.016 200.1 239Z" fill="black"/>
<path d="M189.59 223.73C195.09 222.91 207.39 227.37 208.46 227.32C209.53 227.27 221.46 217.89 221.46 217.89L224.56 220.62C224.56 220.62 212.06 233.51 209.49 233.62C206.92 233.73 193.49 232.76 193.49 232.76C193.49 232.76 190.2 231.59 189.57 228.62C189.187 227.012 189.194 225.335 189.59 223.73Z" fill="#009DDC"/>
</svg>
