<svg width="62" height="44" viewBox="0 0 62 44" fill="none" xmlns="http://www.w3.org/2000/svg">
<path fill-rule="evenodd" clip-rule="evenodd" d="M14.5607 19.3181C16.0023 17.056 17.993 15.198 20.3463 13.918C22.6996 12.6381 25.3384 11.9782 28.0155 12C36.0056 12 42.5822 17.7347 43.564 25.1476C41.2633 25.5686 38.9154 26.0668 36.5379 26.642C20.1082 30.6272 7.68837 37.026 5.79582 42.0786C3.54358 40.6847 1.80726 38.591 0.85116 36.1163C-0.104937 33.6416 -0.228434 30.9214 0.499467 28.3699C1.22737 25.8183 2.7668 23.5751 4.88341 21.9817C7.00003 20.3884 9.57789 19.5322 12.2246 19.5434C13.5846 19.6581 14.8969 20.1002 16.0501 20.8322C17.2033 21.5642 18.1633 22.5644 18.8485 23.748C18.4653 22.7619 17.8882 21.8631 17.1516 21.1051C16.415 20.3472 15.5339 19.7455 14.5607 19.3358V19.3181ZM48.9932 21.281C50.3712 23.582 50.5013 23.5286 50.6492 26.2209L51.5422 26.0134L52.1337 23.7006L54.1504 23.1075L53.8547 28.0119L55.3332 27.2528L56.7763 22.2832L59.5323 21.2454C61.8448 20.2906 61.3421 19.2113 59.0829 19.8814L56.2085 20.8125L52.0686 17.8058L50.7024 17.9304L53.6595 21.6249L51.7433 22.5441L50.0992 21.1683L49.0228 21.2988L48.9932 21.281ZM45.356 26.3158C30.9844 30.5916 21.7346 36.3559 23.7277 40.3351C24.7213 42.3158 28.3349 43.5434 33.6163 44H44.2618C45.1608 43.9407 46.0775 43.8696 47.0119 43.7865C49.1042 43.3086 50.951 42.0825 52.2068 40.3378C53.4627 38.5931 54.0414 36.4493 53.8348 34.3076C53.6282 32.1659 52.6503 30.1731 51.0842 28.7021C49.5182 27.2311 47.4712 26.3828 45.3264 26.3158H45.356Z" fill="white"/>
<path fill-rule="evenodd" clip-rule="evenodd" d="M6.90357 11.1751C7.04315 12.5892 8.30291 13.6223 9.71699 13.4828C11.1311 13.3432 12.1643 12.0837 12.0247 10.6696C11.8851 9.25519 10.6256 8.22203 9.21153 8.36161C7.79738 8.50119 6.76397 9.76072 6.90357 11.1751Z" fill="white"/>
<path fill-rule="evenodd" clip-rule="evenodd" d="M11.1371 3.36716C7.39594 5.99876 9.03737 7.77599 11.2312 7.23615C14.1151 6.38106 16.7469 11.3118 16.7669 15.5874C16.7669 15.5874 20.5097 11.8877 26.5153 11.4631C34.0141 10.9329 38.1385 14.8375 38.1385 14.8375C37.938 6.34874 21.3238 -4.16855 11.1371 3.36716Z" fill="#D00A10"/>
</svg>
