<svg width="500" height="373" viewBox="0 0 500 373" fill="none" xmlns="http://www.w3.org/2000/svg">
<path d="M500 327.4H0V327.65H500V327.4Z" fill="#EBEBEB"/>
<path d="M449.9 343.49H416.78V343.74H449.9V343.49Z" fill="#EBEBEB"/>
<path d="M331.22 346.21H322.53V346.46H331.22V346.21Z" fill="#EBEBEB"/>
<path d="M415.78 334.21H396.59V334.46H415.78V334.21Z" fill="#EBEBEB"/>
<path d="M95.65 335.89H52.46V336.14H95.65V335.89Z" fill="#EBEBEB"/>
<path d="M110.89 335.89H104.56V336.14H110.89V335.89Z" fill="#EBEBEB"/>
<path d="M225.15 340.11H131.47V340.36H225.15V340.11Z" fill="#EBEBEB"/>
<path d="M237 282.8H43.91C42.3973 282.797 40.9475 282.195 39.8788 281.124C38.8102 280.053 38.21 278.603 38.21 277.09V5.66C38.2231 4.15602 38.8292 2.71798 39.8964 1.65822C40.9637 0.598458 42.4059 0.00257639 43.91 0H237C238.514 0 239.967 0.601588 241.038 1.67242C242.108 2.74325 242.71 4.19561 242.71 5.71V277.09C242.71 278.604 242.108 280.057 241.038 281.128C239.967 282.198 238.514 282.8 237 282.8ZM43.91 0.200001C42.4636 0.20265 41.0774 0.779065 40.0556 1.80273C39.0338 2.82639 38.46 4.21365 38.46 5.66V277.09C38.46 278.536 39.0338 279.924 40.0556 280.947C41.0774 281.971 42.4636 282.547 43.91 282.55H237C238.447 282.547 239.834 281.971 240.858 280.948C241.881 279.924 242.457 278.537 242.46 277.09V5.66C242.457 4.21273 241.881 2.82549 240.858 1.80212C239.834 0.77874 238.447 0.202644 237 0.200001H43.91Z" fill="#EBEBEB"/>
<path d="M453.31 282.8H260.21C258.696 282.797 257.246 282.195 256.175 281.125C255.105 280.054 254.503 278.604 254.5 277.09V5.66C254.516 4.15511 255.124 2.71708 256.193 1.65759C257.262 0.598109 258.705 0.00254829 260.21 0H453.31C454.812 0.0052045 456.252 0.602249 457.317 1.66173C458.382 2.72121 458.987 4.15775 459 5.66V277.09C459 278.601 458.401 280.05 457.335 281.121C456.268 282.191 454.821 282.795 453.31 282.8ZM260.21 0.200001C258.763 0.202644 257.375 0.77874 256.352 1.80212C255.329 2.82549 254.753 4.21273 254.75 5.66V277.09C254.753 278.537 255.329 279.924 256.352 280.948C257.375 281.971 258.763 282.547 260.21 282.55H453.31C454.757 282.547 456.145 281.971 457.168 280.948C458.191 279.924 458.767 278.537 458.77 277.09V5.66C458.767 4.21273 458.191 2.82549 457.168 1.80212C456.145 0.77874 454.757 0.202644 453.31 0.200001H260.21Z" fill="#EBEBEB"/>
<path d="M179.14 187.69L410.83 187.69V33.62L179.14 33.62L179.14 187.69Z" fill="#E6E6E6"/>
<path d="M175.55 187.69L407.24 187.69V33.62L175.55 33.62L175.55 187.69Z" fill="#F5F5F5"/>
<path d="M400.8 180.45V40.8398L181.98 40.8398V180.45H400.8Z" fill="white"/>
<path d="M184.7 180.46V40.85H181.99V180.46H184.7Z" fill="#E6E6E6"/>
<path d="M178.21 146.76L404.58 146.76V137.05L178.21 137.05V146.76Z" fill="#F5F5F5"/>
<g opacity="0.4">
<path opacity="0.4" d="M190.23 26.0098H168.36V156.35H190.23V26.0098Z" fill="#E6E6E6"/>
<path opacity="0.4" d="M190.24 145.88H201.08L201.08 26.0099H190.24V145.88Z" fill="#F5F5F5"/>
<path opacity="0.4" d="M222.95 26.0098H201.08V156.35H222.95V26.0098Z" fill="#E6E6E6"/>
<path opacity="0.4" d="M222.96 145.88H233.8L233.8 26.0099H222.96V145.88Z" fill="#F5F5F5"/>
<path opacity="0.4" d="M255.67 26.0098H233.8V156.35H255.67V26.0098Z" fill="#E6E6E6"/>
<path opacity="0.4" d="M255.68 145.88H266.52V26.0099H255.68V145.88Z" fill="#F5F5F5"/>
<path opacity="0.4" d="M288.39 26.0098H266.52V156.35H288.39V26.0098Z" fill="#E6E6E6"/>
<path opacity="0.4" d="M288.4 145.88H299.24V26.0099H288.4V145.88Z" fill="#F5F5F5"/>
<path opacity="0.4" d="M321.11 26.0098H299.24V156.35H321.11V26.0098Z" fill="#E6E6E6"/>
<path opacity="0.4" d="M321.11 145.88H331.95V26.0099H321.11V145.88Z" fill="#F5F5F5"/>
<path opacity="0.4" d="M353.82 26.0098H331.95V156.35H353.82V26.0098Z" fill="#E6E6E6"/>
<path opacity="0.4" d="M353.83 145.88H364.67V26.0099H353.83V145.88Z" fill="#F5F5F5"/>
<path opacity="0.4" d="M386.54 26.0098H364.67V156.35H386.54V26.0098Z" fill="#E6E6E6"/>
<path opacity="0.4" d="M386.55 145.88H397.39V26.0099H386.55V145.88Z" fill="#F5F5F5"/>
<path opacity="0.4" d="M419.26 26.0098H397.39V156.35H419.26V26.0098Z" fill="#E6E6E6"/>
</g>
<path d="M82.7901 327.4H134.08V222H82.7901L82.7901 327.4Z" fill="#EBEBEB"/>
<path d="M92.53 327.4H82.79V305.93H102.75L92.53 327.4Z" fill="#F5F5F5"/>
<path d="M375.43 327.4H426.72V222H375.43V327.4Z" fill="#EBEBEB"/>
<path d="M82.7902 314.23L383.93 314.23V222L82.7902 222V314.23Z" fill="#F5F5F5"/>
<path d="M373.92 288.21H284.65C284.433 288.21 284.224 288.123 284.07 287.97C283.916 287.816 283.83 287.607 283.83 287.39V229C283.83 228.782 283.916 228.574 284.07 228.42C284.224 228.266 284.433 228.18 284.65 228.18H301.13C301.307 228.176 301.48 228.233 301.62 228.34C304.07 230.131 306.787 231.525 309.67 232.47C313.147 233.621 316.788 234.202 320.45 234.19H338.11C344.866 234.309 351.483 232.27 357 228.37C357.138 228.264 357.307 228.208 357.48 228.21H373.97C374.188 228.21 374.396 228.296 374.55 228.45C374.704 228.604 374.79 228.812 374.79 229.03V287.39C374.79 287.502 374.768 287.613 374.723 287.716C374.679 287.819 374.614 287.911 374.533 287.988C374.451 288.065 374.355 288.124 374.249 288.162C374.144 288.201 374.032 288.217 373.92 288.21ZM285.47 286.57H373.1V229.85H357.7C351.959 233.851 345.107 235.95 338.11 235.85H320.45C316.61 235.862 312.794 235.251 309.15 234.04C306.192 233.069 303.4 231.653 300.87 229.84H285.47V286.57Z" fill="#E6E6E6"/>
<path d="M278 288.21H188.72C188.502 288.21 188.294 288.123 188.14 287.97C187.986 287.816 187.9 287.607 187.9 287.39V229C187.9 228.782 187.986 228.574 188.14 228.42C188.294 228.266 188.502 228.18 188.72 228.18H204.31C204.487 228.176 204.659 228.233 204.8 228.34C207.232 230.13 209.932 231.524 212.8 232.47C216.277 233.621 219.917 234.202 223.58 234.19H241.24C247.972 234.289 254.561 232.24 260.05 228.34C260.192 228.235 260.364 228.179 260.54 228.18H278C278.108 228.179 278.215 228.199 278.315 228.24C278.415 228.28 278.506 228.341 278.583 228.417C278.659 228.493 278.719 228.584 278.76 228.685C278.801 228.785 278.821 228.892 278.82 229V287.36C278.824 287.47 278.806 287.58 278.766 287.683C278.727 287.786 278.667 287.88 278.591 287.959C278.514 288.039 278.422 288.102 278.321 288.145C278.219 288.188 278.11 288.21 278 288.21ZM189.55 286.57H277.18V229.85H260.86C255.126 233.849 248.281 235.948 241.29 235.85H223.63C219.79 235.862 215.974 235.251 212.33 234.04C209.367 233.076 206.57 231.659 204.04 229.84H189.54L189.55 286.57Z" fill="#E6E6E6"/>
<path d="M182.07 288.21H92.8C92.5826 288.21 92.374 288.123 92.2202 287.97C92.0664 287.816 91.98 287.607 91.98 287.39V229C91.9787 228.892 91.999 228.785 92.0397 228.685C92.0805 228.584 92.1408 228.493 92.2172 228.417C92.2936 228.341 92.3846 228.28 92.4847 228.24C92.5848 228.199 92.692 228.179 92.8 228.18H108.39C108.563 228.178 108.733 228.234 108.87 228.34C111.304 230.126 114.004 231.52 116.87 232.47C120.35 233.621 123.994 234.202 127.66 234.19H145.32C152.058 234.288 158.653 232.239 164.15 228.34C164.291 228.233 164.463 228.176 164.64 228.18H182.02C182.238 228.18 182.446 228.266 182.6 228.42C182.754 228.574 182.84 228.782 182.84 229V287.36C182.848 287.574 182.772 287.783 182.628 287.942C182.484 288.101 182.284 288.197 182.07 288.21ZM93.62 286.57H181.25V229.85H165C159.262 233.85 152.414 235.948 145.42 235.85H127.71C123.87 235.864 120.054 235.252 116.41 234.04C113.447 233.076 110.65 231.659 108.12 229.84H93.62V286.57Z" fill="#E6E6E6"/>
<path d="M374.19 327.4H383.93V305.93H363.98L374.19 327.4Z" fill="#F5F5F5"/>
<path d="M143.94 204.34H135.85C135.91 198.74 135.85 184.52 135.28 151.95C134.28 92.95 132.41 89.31 132.41 89.31L142 118.45C144.277 125.303 145.603 132.436 145.94 139.65C147 162.37 143 180.51 143.94 204.34Z" fill="#E6E6E6"/>
<path d="M150.09 109.66C160.88 93.33 182.42 84.81 204.44 76.79C213.08 73.64 188.82 112.71 171.18 130.43C157.48 144.19 144.18 143.88 140.25 157.43C139.49 141.69 140.79 123.73 150.09 109.66Z" fill="#E6E6E6"/>
<path d="M137.73 99.1799C129.27 80.0799 107.9 55.3099 83.8802 37.8599C74.4502 31.0099 97.7202 89.8599 114.13 113.92C126.91 132.68 138.83 144.1 140.69 157.48C148.75 140.74 146.18 118.27 137.73 99.1799Z" fill="#E6E6E6"/>
<path d="M138.53 222C143.103 222 147.503 220.25 150.828 217.11C154.152 213.969 156.15 209.676 156.41 205.11L158 188.92H119.06L120.64 205.11C120.903 209.677 122.902 213.97 126.228 217.11C129.555 220.251 133.956 222 138.53 222Z" fill="#F0F0F0"/>
<path d="M116.54 189.01H160.52L161.78 183.26H115.28L116.54 189.01Z" fill="#F0F0F0"/>
<path d="M118.71 198.87H158.35L159.49 193.12H117.57L118.71 198.87Z" fill="#F0F0F0"/>
<path d="M250 372.56C357.082 372.56 443.89 367.492 443.89 361.24C443.89 354.988 357.082 349.92 250 349.92C142.917 349.92 56.1099 354.988 56.1099 361.24C56.1099 367.492 142.917 372.56 250 372.56Z" fill="#F5F5F5"/>
<path d="M405.28 263.33H94.71V298.49H405.28V263.33Z" fill="#009DDC"/>
<path opacity="0.3" d="M405.29 263.33H338.67V298.49H405.29V263.33Z" fill="black"/>
<path d="M129 298.49H94.71V361.24H129V298.49Z" fill="#009DDC"/>
<path opacity="0.3" d="M94.7197 298.49V302L119 309.33V361.24H129V298.49H94.7197Z" fill="black"/>
<path d="M405.29 298.49H371V361.24H405.29V298.49Z" fill="#009DDC"/>
<path opacity="0.2" d="M405.29 298.49H371V361.24H405.29V298.49Z" fill="black"/>
<path opacity="0.3" d="M371 298.49V302L395.29 309.33V361.24H405.29V298.49H371Z" fill="black"/>
<path d="M338.67 298.49H304.38V361.24H338.67V298.49Z" fill="#009DDC"/>
<path opacity="0.3" d="M304.38 298.49V302L328.67 309.33V361.24H338.67V298.49H304.38Z" fill="black"/>
<path d="M195.62 298.49H161.33V361.24H195.62V298.49Z" fill="#009DDC"/>
<path opacity="0.2" d="M195.62 298.49H161.33V361.24H195.62V298.49Z" fill="black"/>
<path opacity="0.3" d="M161.33 298.49V302L185.62 309.33V361.24H195.62V298.49H161.33Z" fill="black"/>
<path d="M362.48 256.42H172.6C172.008 256.424 171.422 256.306 170.879 256.072C170.335 255.839 169.846 255.495 169.441 255.063C169.037 254.63 168.727 254.119 168.531 253.561C168.334 253.003 168.256 252.41 168.3 251.82L176.12 127.73C176.219 126.493 176.774 125.337 177.678 124.487C178.582 123.637 179.77 123.153 181.01 123.13H370.88C371.472 123.125 372.058 123.244 372.602 123.477C373.145 123.711 373.635 124.055 374.039 124.487C374.443 124.919 374.753 125.431 374.949 125.989C375.146 126.547 375.224 127.14 375.18 127.73L367.36 251.82C367.261 253.055 366.707 254.209 365.806 255.059C364.904 255.909 363.719 256.394 362.48 256.42Z" fill="#263238"/>
<path opacity="0.6" d="M362.48 256.42H172.6C172.008 256.424 171.422 256.306 170.879 256.072C170.335 255.839 169.846 255.495 169.441 255.063C169.037 254.63 168.727 254.119 168.531 253.561C168.334 253.003 168.256 252.41 168.3 251.82L176.12 127.73C176.219 126.493 176.774 125.337 177.678 124.487C178.582 123.637 179.77 123.153 181.01 123.13H370.88C371.472 123.125 372.058 123.244 372.602 123.477C373.145 123.711 373.635 124.055 374.039 124.487C374.443 124.919 374.753 125.431 374.949 125.989C375.146 126.547 375.224 127.14 375.18 127.73L367.36 251.82C367.261 253.055 366.707 254.209 365.806 255.059C364.904 255.909 363.719 256.394 362.48 256.42Z" fill="black"/>
<path d="M361.06 256.42H171.19C170.598 256.426 170.01 256.309 169.465 256.076C168.921 255.843 168.43 255.499 168.025 255.067C167.62 254.634 167.309 254.122 167.112 253.564C166.915 253.005 166.836 252.411 166.88 251.82L174.7 127.73C174.799 126.493 175.355 125.337 176.258 124.487C177.162 123.637 178.35 123.153 179.59 123.13H369.46C370.052 123.124 370.639 123.241 371.184 123.475C371.728 123.708 372.218 124.051 372.622 124.484C373.027 124.917 373.337 125.429 373.533 125.987C373.728 126.546 373.806 127.14 373.76 127.73L365.94 251.82C365.841 253.055 365.287 254.21 364.386 255.06C363.484 255.909 362.299 256.394 361.06 256.42Z" fill="#263238"/>
<path d="M360.82 258H134.89C133.85 257.99 132.829 258.276 131.944 258.822C131.059 259.369 130.347 260.155 129.89 261.09C129.774 261.332 129.723 261.601 129.739 261.869C129.756 262.137 129.841 262.397 129.987 262.623C130.132 262.849 130.332 263.035 130.569 263.162C130.806 263.289 131.071 263.354 131.34 263.35H364.32C364.589 263.354 364.854 263.289 365.091 263.162C365.328 263.035 365.529 262.849 365.674 262.623C365.819 262.397 365.904 262.137 365.921 261.869C365.938 261.601 365.886 261.332 365.77 261.09C365.319 260.161 364.615 259.379 363.74 258.833C362.864 258.286 361.852 257.997 360.82 258Z" fill="#263238"/>
<path opacity="0.6" d="M360.82 258H328.69C327.658 257.997 326.646 258.285 325.77 258.831C324.894 259.378 324.191 260.161 323.74 261.09C323.625 261.332 323.573 261.599 323.589 261.867C323.606 262.134 323.69 262.393 323.834 262.619C323.978 262.845 324.177 263.031 324.413 263.159C324.648 263.287 324.912 263.352 325.18 263.35H364.32C364.589 263.354 364.855 263.29 365.091 263.162C365.328 263.035 365.529 262.85 365.674 262.623C365.819 262.397 365.904 262.138 365.921 261.869C365.938 261.601 365.886 261.333 365.77 261.09C365.319 260.162 364.615 259.379 363.74 258.833C362.864 258.286 361.852 257.998 360.82 258Z" fill="black"/>
<path d="M340.9 261.9H332.6C332.409 261.897 332.225 261.819 332.091 261.683C331.956 261.546 331.88 261.362 331.88 261.17C331.88 260.978 331.956 260.794 332.091 260.657C332.225 260.521 332.409 260.443 332.6 260.44H340.9C340.996 260.44 341.091 260.459 341.18 260.496C341.268 260.532 341.349 260.586 341.417 260.654C341.484 260.722 341.538 260.802 341.575 260.891C341.611 260.979 341.63 261.074 341.63 261.17C341.63 261.266 341.611 261.361 341.575 261.449C341.538 261.538 341.484 261.618 341.417 261.686C341.349 261.754 341.268 261.808 341.18 261.844C341.091 261.881 340.996 261.9 340.9 261.9Z" fill="#009DDC"/>
<path opacity="0.7" d="M234.17 261.9H225.88C225.687 261.9 225.501 261.823 225.364 261.686C225.227 261.549 225.15 261.364 225.15 261.17C225.15 261.074 225.169 260.979 225.206 260.891C225.243 260.802 225.296 260.722 225.364 260.654C225.432 260.586 225.512 260.532 225.601 260.496C225.69 260.459 225.785 260.44 225.88 260.44H234.17C234.266 260.44 234.361 260.459 234.45 260.496C234.538 260.532 234.619 260.586 234.687 260.654C234.754 260.722 234.808 260.802 234.845 260.891C234.882 260.979 234.9 261.074 234.9 261.17C234.9 261.364 234.823 261.549 234.687 261.686C234.55 261.823 234.364 261.9 234.17 261.9Z" fill="white"/>
<path d="M349.49 260.44H344.06C343.729 260.44 343.46 260.709 343.46 261.04V261.3C343.46 261.631 343.729 261.9 344.06 261.9H349.49C349.822 261.9 350.09 261.631 350.09 261.3V261.04C350.09 260.709 349.822 260.44 349.49 260.44Z" fill="#009DDC"/>
<path d="M171.16 247.34L178.42 132.21C178.458 131.73 178.673 131.281 179.025 130.951C179.377 130.622 179.839 130.436 180.32 130.43H367.81C368.04 130.426 368.268 130.471 368.48 130.561C368.691 130.65 368.882 130.783 369.039 130.951C369.196 131.118 369.317 131.317 369.393 131.534C369.469 131.751 369.499 131.981 369.48 132.21L362.23 247.34C362.191 247.821 361.973 248.27 361.62 248.599C361.266 248.928 360.803 249.114 360.32 249.12H172.84C172.611 249.122 172.383 249.076 172.172 248.986C171.96 248.896 171.77 248.763 171.612 248.596C171.455 248.429 171.333 248.231 171.255 248.015C171.178 247.799 171.145 247.569 171.16 247.34Z" fill="white"/>
<path opacity="0.1" d="M277.82 126.88L215.37 245.58H169.3C169.069 245.583 168.84 245.539 168.627 245.448C168.415 245.358 168.223 245.225 168.065 245.056C167.907 244.888 167.785 244.688 167.709 244.47C167.632 244.252 167.602 244.02 167.62 243.79L174.88 128.67C174.918 128.189 175.133 127.739 175.484 127.408C175.836 127.077 176.298 126.888 176.78 126.88H277.82Z" fill="#009DDC"/>
<path opacity="0.1" d="M332.51 126.88L270.06 245.58H255.5L317.95 126.88H332.51Z" fill="#009DDC"/>
<path opacity="0.1" d="M365.94 128.67L358.68 243.79C358.645 244.272 358.431 244.723 358.079 245.055C357.727 245.386 357.264 245.574 356.78 245.58H285.78L348.23 126.88H364.23C364.463 126.874 364.695 126.916 364.911 127.005C365.126 127.094 365.321 127.227 365.482 127.396C365.643 127.564 365.767 127.765 365.846 127.984C365.925 128.204 365.957 128.437 365.94 128.67Z" fill="#009DDC"/>
<path opacity="0.4" d="M275.63 127C275.603 127.363 275.441 127.702 275.176 127.952C274.912 128.202 274.564 128.343 274.2 128.35C274.026 128.352 273.854 128.318 273.694 128.249C273.535 128.181 273.391 128.08 273.272 127.953C273.154 127.826 273.063 127.676 273.006 127.511C272.948 127.347 272.926 127.173 272.94 127C272.965 126.636 273.126 126.296 273.391 126.045C273.656 125.795 274.006 125.654 274.37 125.65C274.544 125.648 274.716 125.682 274.876 125.751C275.036 125.819 275.179 125.92 275.298 126.047C275.416 126.174 275.507 126.324 275.564 126.488C275.622 126.653 275.644 126.827 275.63 127Z" fill="white"/>
<path d="M244.65 99.39C239.18 105.65 236.02 124.84 240.07 134.28C244.12 143.72 197.13 153.17 235.9 168.51C274.67 183.85 305.68 166.06 294.46 150.17C283.24 134.28 295.67 107.82 282.68 101.17C270.94 95.11 255.61 86.84 244.65 99.39Z" fill="#263238"/>
<path d="M233.06 176.66C231.01 183.66 228.83 190.66 226.57 197.66C224.31 204.66 221.96 211.58 219.47 218.53L218.52 221.15L218.04 222.46L217.89 222.85L217.65 223.44C217.5 223.82 217.27 224.23 217.07 224.62C216.093 226.405 214.634 227.881 212.86 228.88C211.25 229.754 209.452 230.228 207.62 230.26C205.051 230.272 202.504 229.772 200.13 228.79C198.187 228.001 196.305 227.068 194.5 226C187.944 221.968 181.934 217.108 176.62 211.54L180.93 206.46C182.38 207.39 183.93 208.38 185.43 209.31C186.93 210.24 188.5 211.14 190.02 212.03C192.998 213.773 196.073 215.345 199.23 216.74C200.669 217.374 202.153 217.899 203.67 218.31C204.719 218.658 205.829 218.787 206.93 218.69C207.21 218.69 207.16 218.53 206.93 218.62C206.7 218.71 206.45 218.97 206.44 218.94C206.43 218.91 206.44 218.94 206.44 218.88C206.445 218.86 206.445 218.839 206.44 218.82L206.52 218.57L206.9 217.28L207.67 214.68L213.78 193.68C215.86 186.68 218 179.68 220.2 172.68L233.06 176.66Z" fill="#DD86CA"/>
<path d="M180.62 206.3L169 202L173.61 214.28C173.61 214.28 181.81 215.46 184.99 211.15L182.4 207.68C181.951 207.059 181.333 206.58 180.62 206.3Z" fill="#DD86CA"/>
<path d="M158.75 205.57L163.17 215.64L173.66 214.26L169.04 201.98L158.75 205.57Z" fill="#DD86CA"/>
<path d="M224.58 158.55C219.26 159.9 215.58 181.77 215.58 181.77L230.23 191.77C230.23 191.77 244.23 169.71 240.18 163.87C235.88 157.74 232.33 156.58 224.58 158.55Z" fill="#009DDC"/>
<path opacity="0.5" d="M224.58 158.55C219.26 159.9 215.58 181.77 215.58 181.77L230.23 191.77C230.23 191.77 244.23 169.71 240.18 163.87C235.88 157.74 232.33 156.58 224.58 158.55Z" fill="white"/>
<path opacity="0.2" d="M224.1 166.5L235.47 169.13L236.56 180.26C234.634 184.189 232.508 188.018 230.19 191.73L221.3 185.73C221.69 180.58 222.65 170 224.1 166.5Z" fill="black"/>
<path d="M224.58 158.55C224.58 158.55 218.43 160.71 230.74 236.37H283.1C282.22 215.06 282.2 201.91 292.38 158.18C285.051 156.664 277.622 155.685 270.15 155.25C261.34 154.82 254.15 154.54 246.37 155.25C236.16 156.18 224.58 158.55 224.58 158.55Z" fill="#009DDC"/>
<path opacity="0.5" d="M224.58 158.55C224.58 158.55 218.43 160.71 230.74 236.37H283.1C282.22 215.06 282.2 201.91 292.38 158.18C285.051 156.664 277.622 155.685 270.15 155.25C261.34 154.82 254.15 154.54 246.37 155.25C236.16 156.18 224.58 158.55 224.58 158.55Z" fill="white"/>
<path opacity="0.2" d="M280.06 178.48L286.82 184.24C285.38 191.89 284.41 198.24 283.82 203.93C282.53 198.25 279.31 182.83 280.06 178.48Z" fill="black"/>
<path d="M267.79 128.47C266.29 136.12 264.79 150.14 270.15 155.25C270.15 155.25 265.15 166.71 251.9 166.71C238.65 166.71 246.37 155.25 246.37 155.25C254.9 153.25 254.68 146.88 253.2 140.94L267.79 128.47Z" fill="#DD86CA"/>
<path d="M268.45 152.39C267.19 154.94 263.13 160.77 251.79 162.85C251.475 162.908 251.15 162.843 250.88 162.67C248.76 161.19 247.44 158.06 248.37 154.43C248.432 154.207 248.43 153.971 248.365 153.749C248.299 153.527 248.173 153.328 248.001 153.174C247.828 153.02 247.615 152.917 247.387 152.878C247.159 152.838 246.925 152.863 246.71 152.95C245.839 153.314 245.003 153.756 244.21 154.27C244.036 154.385 243.895 154.544 243.8 154.73C242.97 156.29 239.61 163.93 249.75 168.64C249.912 168.709 250.085 168.75 250.26 168.76C256.26 168.88 266.75 167.7 273.38 155.76C273.499 155.544 273.552 155.299 273.532 155.053C273.512 154.808 273.422 154.574 273.27 154.38C272.379 153.404 271.344 152.571 270.2 151.91C270.056 151.817 269.895 151.756 269.725 151.73C269.556 151.704 269.384 151.714 269.218 151.76C269.053 151.805 268.9 151.885 268.767 151.993C268.635 152.102 268.527 152.237 268.45 152.39Z" fill="#FAFAFA"/>
<path d="M271.23 183.87L257.73 183.48C257.589 183.481 257.449 183.452 257.32 183.395C257.191 183.338 257.076 183.254 256.981 183.149C256.887 183.044 256.816 182.921 256.772 182.786C256.729 182.652 256.715 182.51 256.73 182.37L256.86 180.7C256.899 180.419 257.04 180.162 257.255 179.978C257.471 179.794 257.747 179.695 258.03 179.7L271.53 180.09C271.672 180.089 271.813 180.118 271.943 180.176C272.073 180.233 272.189 180.318 272.283 180.424C272.378 180.53 272.449 180.655 272.491 180.79C272.534 180.926 272.547 181.069 272.53 181.21L272.4 182.87C272.361 183.151 272.22 183.408 272.005 183.592C271.789 183.776 271.514 183.875 271.23 183.87Z" fill="#FAFAFA"/>
<path opacity="0.2" d="M261.84 133.56L253.2 140.93C253.571 142.312 253.818 143.724 253.94 145.15C257.19 144.68 261.67 141.1 262.02 137.69C262.211 136.314 262.15 134.914 261.84 133.56Z" fill="black"/>
<path d="M277.87 114C275.46 126.57 274.71 131.94 267.47 137.61C256.58 146.15 241.67 140.43 240.29 127.4C239.04 115.67 243.19 97.0898 256.29 93.6498C259.161 92.8869 262.179 92.8695 265.058 93.5991C267.938 94.3286 270.583 95.7811 272.744 97.8189C274.905 99.8568 276.51 102.412 277.407 105.244C278.304 108.076 278.464 111.089 277.87 114Z" fill="#DD86CA"/>
<path d="M270.72 104.7C269.16 112.57 268.79 123 276 123C283.21 123 288.86 110.73 282.64 101.12C276.42 91.5099 271.63 100.06 270.72 104.7Z" fill="#263238"/>
<path d="M283.18 105.67C283.18 114.23 272.4 110 267.63 106.31C262.86 102.62 262.63 103.02 253.79 103.01C244.95 103 243.18 102.39 240.57 98.1699C237.96 93.9499 238.2 91.1699 244.08 92.0599C249.96 92.9499 245.02 86.9499 249.4 83.6199C253.78 80.2899 258.97 81.1299 264.96 88.7299C270.95 96.3299 283.18 90.8399 283.18 105.67Z" fill="#263238"/>
<path d="M280.015 125.184C281.149 121.315 280.037 117.583 277.53 116.848C275.023 116.113 272.071 118.654 270.937 122.523C269.803 126.392 270.915 130.124 273.422 130.859C275.929 131.593 278.881 129.053 280.015 125.184Z" fill="white"/>
<path d="M260 134.86C257.679 134.86 255.382 134.387 253.25 133.47C253.204 133.451 253.163 133.424 253.128 133.389C253.093 133.354 253.066 133.313 253.047 133.267C253.028 133.222 253.019 133.173 253.02 133.123C253.02 133.074 253.03 133.025 253.05 132.98C253.092 132.889 253.167 132.817 253.26 132.78C253.353 132.743 253.457 132.743 253.55 132.78C255.559 133.642 257.721 134.093 259.908 134.105C262.095 134.117 264.261 133.69 266.28 132.85C268.244 132.047 270.026 130.859 271.524 129.356C273.022 127.853 274.203 126.066 275 124.1C278 115.51 281.06 104.79 277.52 98.1001C276.808 96.798 275.823 95.6653 274.632 94.7798C273.441 93.8944 272.072 93.277 270.62 92.9701C270.524 92.9442 270.441 92.8815 270.391 92.7954C270.34 92.7093 270.326 92.6068 270.35 92.5101C270.376 92.4137 270.439 92.3313 270.525 92.2808C270.611 92.2303 270.713 92.2156 270.81 92.2401C272.361 92.5739 273.823 93.2379 275.094 94.187C276.366 95.136 277.419 96.3479 278.18 97.7401C281.86 104.65 278.79 115.58 275.7 124.33C274.862 126.395 273.619 128.271 272.044 129.848C270.469 131.424 268.594 132.67 266.53 133.51C264.462 134.379 262.244 134.838 260 134.86Z" fill="white"/>
<path opacity="0.6" d="M279.65 125.22C278.76 128.22 276.72 130.33 275.09 129.86C273.46 129.39 272.86 126.53 273.75 123.49C274.64 120.45 276.68 118.37 278.31 118.85C279.94 119.33 280.54 122.18 279.65 125.22Z" fill="#009DDC"/>
<path d="M254.288 131.815L250.371 131.059C249.682 130.927 249.016 131.377 248.883 132.066L248.839 132.292C248.707 132.98 249.157 133.646 249.846 133.779L253.764 134.535C254.452 134.668 255.118 134.217 255.251 133.529L255.295 133.303C255.428 132.614 254.977 131.948 254.288 131.815Z" fill="white"/>
<path d="M249.17 115.05C249.17 115.05 246.85 119.26 244.65 121.15C245.84 122.6 248.24 122.32 248.24 122.32L249.17 115.05Z" fill="#A02724"/>
<path d="M251.38 127.7H251.47C253.737 127.879 255.988 127.193 257.77 125.78C257.807 125.742 257.827 125.692 257.827 125.64C257.827 125.587 257.807 125.537 257.77 125.5C257.752 125.482 257.731 125.468 257.708 125.458C257.685 125.448 257.66 125.443 257.635 125.443C257.61 125.443 257.585 125.448 257.562 125.458C257.539 125.468 257.518 125.482 257.5 125.5C255.799 126.837 253.658 127.49 251.5 127.33C251.474 127.325 251.448 127.327 251.423 127.333C251.397 127.339 251.374 127.351 251.353 127.367C251.332 127.383 251.315 127.403 251.303 127.426C251.29 127.449 251.282 127.474 251.28 127.5C251.275 127.539 251.282 127.579 251.299 127.615C251.317 127.651 251.345 127.68 251.38 127.7Z" fill="#263238"/>
<path d="M262.82 110.1C262.877 110.131 262.941 110.148 263.005 110.148C263.07 110.148 263.134 110.131 263.19 110.1C263.276 110.043 263.336 109.954 263.359 109.854C263.381 109.753 263.364 109.648 263.31 109.56C262.832 108.759 262.17 108.084 261.379 107.59C260.587 107.096 259.69 106.798 258.76 106.72C258.656 106.72 258.556 106.76 258.481 106.833C258.406 106.906 258.363 107.005 258.36 107.11C258.36 107.211 258.4 107.309 258.471 107.382C258.542 107.455 258.639 107.497 258.74 107.5C259.541 107.576 260.313 107.841 260.992 108.271C261.672 108.702 262.24 109.288 262.65 109.98C262.695 110.034 262.754 110.076 262.82 110.1Z" fill="#263238"/>
<path d="M257.09 115.22C256.92 116.22 256.23 116.99 255.55 116.88C254.87 116.77 254.48 115.88 254.65 114.8C254.82 113.72 255.52 113.03 256.19 113.14C256.86 113.25 257.27 114.19 257.09 115.22Z" fill="#263238"/>
<path d="M245.43 113.24C245.26 114.24 244.57 115.01 243.89 114.9C243.21 114.79 242.82 113.85 242.99 112.82C243.16 111.79 243.86 111.04 244.53 111.16C245.2 111.28 245.61 112.2 245.43 113.24Z" fill="#263238"/>
<path d="M244.82 111.27L242.46 110.13C242.46 110.13 243.4 112.28 244.82 111.27Z" fill="#263238"/>
<path d="M256.48 113.25L254.12 112.12C254.12 112.12 255.06 114.27 256.48 113.25Z" fill="#263238"/>
<path d="M241.47 106.27C241.531 106.306 241.6 106.325 241.67 106.325C241.741 106.325 241.81 106.306 241.87 106.27C242.487 105.751 243.22 105.389 244.007 105.215C244.795 105.041 245.612 105.06 246.39 105.27C246.488 105.304 246.596 105.298 246.69 105.253C246.784 105.208 246.856 105.128 246.89 105.03C246.925 104.932 246.919 104.824 246.874 104.73C246.829 104.636 246.748 104.564 246.65 104.53C245.753 104.274 244.807 104.239 243.893 104.427C242.979 104.615 242.124 105.021 241.4 105.61C241.358 105.639 241.323 105.677 241.297 105.721C241.27 105.765 241.253 105.814 241.247 105.865C241.24 105.915 241.244 105.967 241.259 106.016C241.273 106.065 241.297 106.111 241.33 106.15C241.364 106.203 241.412 106.245 241.47 106.27Z" fill="#263238"/>
<path d="M228.75 249.12C228.75 249.12 228.61 241.96 230.75 236.37H283.1C283.1 236.37 287.81 243.97 289.03 249.12H228.75Z" fill="#009DDC"/>
<path d="M283.89 233.3L284.3 237.98C284.49 238.35 284.06 238.72 283.45 238.72H230.45C229.98 238.72 229.59 238.49 229.56 238.19L229.08 233.5C229.08 233.18 229.46 232.9 229.98 232.9H282.98C283.153 232.882 283.329 232.909 283.488 232.979C283.648 233.049 283.786 233.16 283.89 233.3Z" fill="#009DDC"/>
<path opacity="0.3" d="M283.89 233.3L284.3 237.98C284.49 238.35 284.06 238.72 283.45 238.72H230.45C229.98 238.72 229.59 238.49 229.56 238.19L229.08 233.5C229.08 233.18 229.46 232.9 229.98 232.9H282.98C283.153 232.882 283.329 232.909 283.488 232.979C283.648 233.049 283.786 233.16 283.89 233.3Z" fill="#FAFAFA"/>
<path d="M276.76 239.22H278.18C278.47 239.22 278.68 239.08 278.66 238.9L278 232.81C278 232.63 277.73 232.49 277.45 232.49H276C275.71 232.49 275.5 232.63 275.52 232.81L276.18 238.9C276.23 239.08 276.48 239.22 276.76 239.22Z" fill="#009DDC"/>
<path d="M234.47 239.22H235.89C236.17 239.22 236.39 239.08 236.37 238.9L235.7 232.81C235.7 232.63 235.44 232.49 235.15 232.49H233.73C233.45 232.49 233.23 232.63 233.25 232.81L233.92 238.9C233.94 239.08 234.19 239.22 234.47 239.22Z" fill="#009DDC"/>
<path d="M255.62 239.22H257C257.28 239.22 257.5 239.08 257.48 238.9L256.81 232.81C256.81 232.63 256.54 232.49 256.26 232.49H254.84C254.56 232.49 254.34 232.63 254.36 232.81L255.03 238.9C255.09 239.08 255.33 239.22 255.62 239.22Z" fill="#009DDC"/>
<path d="M296.86 173C299.16 180.467 301.37 187.973 303.49 195.52L306.68 206.78L308.27 212.38L308.67 213.76L308.87 214.45L308.92 214.61L308.76 214.36C308.507 213.998 308.197 213.68 307.84 213.42C307.058 212.851 306.127 212.521 305.16 212.47C304.43 212.435 303.702 212.579 303.04 212.89C302.32 213.28 302.39 213.37 302.45 213.3C302.62 213.153 302.774 212.988 302.91 212.81C303.382 212.221 303.816 211.603 304.21 210.96C305.09 209.52 305.96 207.9 306.78 206.24C308.48 202.92 310.01 199.4 311.56 195.86C313.11 192.32 314.56 188.74 316.06 185.13C317.56 181.52 318.99 177.89 320.47 174.31L326.86 176.21C325.2 184.01 323.26 191.67 320.86 199.3C319.68 203.13 318.37 206.92 316.86 210.76C316.08 212.68 315.25 214.6 314.22 216.59C313.671 217.666 313.057 218.708 312.38 219.71C311.96 220.338 311.492 220.933 310.98 221.49C310.169 222.41 309.183 223.162 308.08 223.7C306.979 224.235 305.763 224.489 304.54 224.44C303.09 224.359 301.697 223.847 300.54 222.97C299.803 222.414 299.164 221.738 298.65 220.97C298.325 220.477 298.041 219.959 297.8 219.42C297.71 219.2 297.61 218.97 297.54 218.77L297.35 218.28L297.09 217.57L296.57 216.16C295.89 214.29 295.2 212.42 294.57 210.55C293.29 206.81 292.01 203.08 290.81 199.33C288.357 191.837 286.07 184.307 283.95 176.74L296.86 173Z" fill="#DD86CA"/>
<path d="M292.38 158.18C297.63 159.77 305.66 180.36 305.66 180.36L285.31 194.91C285.31 194.91 276.16 177.31 278.36 170.53C280.66 163.47 286.4 156.36 292.38 158.18Z" fill="#009DDC"/>
<path opacity="0.5" d="M292.38 158.18C297.63 159.77 305.66 180.36 305.66 180.36L285.31 194.91C285.31 194.91 276.16 177.31 278.36 170.53C280.66 163.47 286.4 156.36 292.38 158.18Z" fill="white"/>
<path d="M320.7 177.05L317.91 164.75L329.51 170.87C329.51 170.87 329.65 179.15 324.97 181.76L320.7 177.05Z" fill="#DD86CA"/>
<path d="M322.77 154.99L330.17 160.24L329.51 170.87L317.91 164.75L322.77 154.99Z" fill="#DD86CA"/>
<path d="M115 93.0898H196C197.547 93.0746 199.08 93.3804 200.502 93.9879C201.924 94.5954 203.205 95.4914 204.263 96.6192C205.321 97.7471 206.134 99.0822 206.65 100.54C207.166 101.998 207.374 103.547 207.26 105.09L205 141.75C204.752 144.977 203.308 147.996 200.952 150.215C198.596 152.434 195.496 153.695 192.26 153.75H182.88L186.71 166.34L168.39 153.75H111.29C109.744 153.765 108.211 153.459 106.788 152.852C105.366 152.244 104.085 151.348 103.027 150.22C101.969 149.093 101.156 147.757 100.64 146.299C100.124 144.841 99.9166 143.292 100.03 141.75L102.27 105.09C102.518 101.864 103.961 98.8472 106.315 96.6282C108.669 94.4091 111.766 93.1475 115 93.0898Z" fill="#009DDC"/>
<path d="M188.58 112.29H120.08C119.789 112.288 119.502 112.226 119.237 112.108C118.971 111.989 118.733 111.817 118.537 111.602C118.342 111.387 118.193 111.133 118.101 110.857C118.008 110.581 117.974 110.29 118 110C118.045 109.393 118.315 108.825 118.757 108.407C119.199 107.988 119.782 107.751 120.39 107.74H188.9C189.19 107.741 189.476 107.801 189.741 107.917C190.006 108.032 190.244 108.202 190.441 108.414C190.638 108.626 190.79 108.876 190.886 109.149C190.982 109.422 191.021 109.711 191 110C190.965 110.618 190.694 111.199 190.245 111.625C189.795 112.05 189.2 112.288 188.58 112.29Z" fill="white"/>
<path d="M148 125.68H119.26C118.969 125.682 118.681 125.624 118.413 125.509C118.146 125.394 117.905 125.226 117.706 125.013C117.507 124.801 117.354 124.55 117.256 124.276C117.159 124.002 117.119 123.71 117.14 123.42C117.185 122.811 117.456 122.242 117.901 121.823C118.345 121.405 118.93 121.168 119.54 121.16H148.31C148.602 121.156 148.891 121.213 149.16 121.327C149.429 121.442 149.671 121.61 149.871 121.822C150.071 122.035 150.225 122.287 150.323 122.561C150.421 122.836 150.461 123.129 150.44 123.42C150.392 124.034 150.115 124.608 149.662 125.027C149.21 125.446 148.617 125.679 148 125.68Z" fill="white"/>
<path d="M172.63 139.07H118.44C118.149 139.072 117.861 139.014 117.593 138.899C117.326 138.785 117.085 138.616 116.886 138.404C116.687 138.191 116.534 137.94 116.437 137.666C116.339 137.392 116.3 137.1 116.32 136.81C116.363 136.201 116.634 135.63 117.078 135.211C117.523 134.792 118.109 134.556 118.72 134.55H172.91C173.202 134.546 173.491 134.603 173.759 134.718C174.027 134.832 174.269 135 174.468 135.213C174.667 135.426 174.82 135.677 174.917 135.952C175.014 136.227 175.053 136.519 175.03 136.81C174.985 137.419 174.714 137.988 174.27 138.407C173.825 138.825 173.24 139.062 172.63 139.07Z" fill="white"/>
<path d="M169.11 125.68H157.78C157.489 125.682 157.201 125.624 156.933 125.509C156.666 125.394 156.425 125.226 156.226 125.013C156.027 124.801 155.874 124.55 155.776 124.276C155.679 124.002 155.639 123.71 155.66 123.42C155.707 122.812 155.979 122.244 156.423 121.826C156.867 121.408 157.451 121.17 158.06 121.16H169.38C169.672 121.156 169.961 121.213 170.229 121.327C170.497 121.442 170.738 121.61 170.938 121.823C171.137 122.036 171.29 122.287 171.387 122.562C171.484 122.837 171.522 123.129 171.5 123.42C171.455 124.027 171.185 124.595 170.743 125.013C170.301 125.431 169.719 125.669 169.11 125.68Z" fill="white"/>
<path d="M227.79 27.1898H183.63C181.112 27.2276 178.699 28.2058 176.865 29.9322C175.031 31.6587 173.91 34.0084 173.72 36.5198L172 65.0598C171.914 66.2598 172.078 67.4645 172.481 68.598C172.884 69.7315 173.518 70.7692 174.342 71.6457C175.166 72.5223 176.162 73.2186 177.269 73.6909C178.375 74.1632 179.567 74.4012 180.77 74.3898H188L183.82 84.1898L199.28 74.3898H224.9C227.418 74.352 229.831 73.3738 231.665 71.6474C233.499 69.921 234.621 67.5712 234.81 65.0598L236.56 36.5198C236.646 35.3199 236.482 34.1152 236.079 32.9817C235.676 31.8482 235.043 30.8105 234.219 29.934C233.395 29.0574 232.398 28.361 231.292 27.8888C230.185 27.4165 228.993 27.1785 227.79 27.1898Z" fill="#009DDC"/>
<g opacity="0.5">
<path opacity="0.5" d="M227.79 27.1898H183.63C181.112 27.2276 178.699 28.2058 176.865 29.9322C175.031 31.6587 173.91 34.0084 173.72 36.5198L172 65.0598C171.914 66.2598 172.078 67.4645 172.481 68.598C172.884 69.7315 173.518 70.7692 174.342 71.6457C175.166 72.5223 176.162 73.2186 177.269 73.6909C178.375 74.1632 179.567 74.4012 180.77 74.3898H188L183.82 84.1898L199.28 74.3898H224.9C227.418 74.352 229.831 73.3738 231.665 71.6474C233.499 69.921 234.621 67.5712 234.81 65.0598L236.56 36.5198C236.646 35.3199 236.482 34.1152 236.079 32.9817C235.676 31.8482 235.043 30.8105 234.219 29.934C233.395 29.0574 232.398 28.361 231.292 27.8888C230.185 27.4165 228.993 27.1785 227.79 27.1898Z" fill="#FAFAFA"/>
</g>
<path d="M206.5 55.46C206.348 56.0885 205.99 56.6478 205.482 57.0485C204.974 57.4492 204.347 57.668 203.7 57.67H201.09C201.09 56.93 201.15 56.48 201.16 56.32C201.198 54.8786 201.568 53.4653 202.24 52.19C203.185 50.7683 204.385 49.5341 205.78 48.55C206.893 47.7439 207.942 46.8547 208.92 45.89C209.439 45.276 209.747 44.512 209.8 43.71C209.84 43.1786 209.756 42.6453 209.557 42.1511C209.358 41.657 209.047 41.2153 208.65 40.86C207.68 40.0289 206.426 39.606 205.15 39.68C203.809 39.6434 202.498 40.0826 201.45 40.92C200.827 41.4339 200.317 42.0704 199.95 42.79C199.68 43.3156 199.261 43.7498 198.745 44.038C198.229 44.3262 197.639 44.4556 197.05 44.41C196.626 44.3575 196.222 44.1989 195.876 43.949C195.53 43.699 195.252 43.3657 195.068 42.9799C194.885 42.594 194.802 42.1682 194.827 41.7417C194.851 41.3152 194.983 40.9019 195.21 40.54C195.814 39.5273 196.589 38.6272 197.5 37.88C199.667 36.1379 202.392 35.2392 205.17 35.35C208.44 35.35 210.98 36.2 212.81 37.91C213.667 38.6465 214.341 39.5717 214.78 40.6127C215.219 41.6537 215.411 42.7824 215.34 43.91C215.248 45.1916 214.806 46.4233 214.06 47.47C212.656 49.1996 211.032 50.7391 209.23 52.05C208.297 52.7017 207.49 53.5184 206.85 54.46C206.688 54.7754 206.57 55.112 206.5 55.46ZM200.79 62.64V62.32C200.843 61.5973 201.165 60.9208 201.693 60.4244C202.221 59.9281 202.916 59.6481 203.64 59.64H204C204.347 59.6349 204.691 59.702 205.01 59.8368C205.329 59.9717 205.617 60.1715 205.855 60.4235C206.093 60.6756 206.275 60.9743 206.392 61.3008C206.508 61.6272 206.555 61.9743 206.53 62.32V62.64C206.478 63.3636 206.156 64.0412 205.628 64.5392C205.101 65.0372 204.406 65.3194 203.68 65.33H203.36C203.009 65.3408 202.66 65.2777 202.336 65.1447C202.011 65.0118 201.718 64.8119 201.475 64.5582C201.233 64.3044 201.047 64.0025 200.929 63.672C200.811 63.3415 200.763 62.9899 200.79 62.64Z" fill="white"/>
</svg>
