<svg width="550" height="405" viewBox="0 0 550 405" fill="none" xmlns="http://www.w3.org/2000/svg">
<g clip-path="url(#clip0_2601_8452)">
<path d="M493.812 378.131H457.38V378.406H493.812V378.131Z" fill="#EBEBEB"/>
<path d="M363.264 381.112H353.705V381.387H363.264V381.112Z" fill="#EBEBEB"/>
<path d="M456.28 367.912H435.171V368.187H456.28V367.912Z" fill="#EBEBEB"/>
<path d="M104.137 369.76H56.6279V370.035H104.137V369.76Z" fill="#EBEBEB"/>
<path d="M120.901 369.76H113.938V370.035H120.901V369.76Z" fill="#EBEBEB"/>
<path d="M246.587 374.402H143.539V374.677H246.587V374.402Z" fill="#EBEBEB"/>
<path d="M259.6 311.361H47.2336C45.5678 311.361 43.9702 310.699 42.7923 309.521C41.6144 308.344 40.9526 306.746 40.9526 305.08V6.50706C40.9556 4.84314 41.6186 3.24837 42.7962 2.07283C43.9738 0.897295 45.5697 0.237058 47.2336 0.237061H259.6C261.264 0.237058 262.859 0.897295 264.037 2.07283C265.215 3.24837 265.878 4.84314 265.881 6.50706V305.08C265.881 306.746 265.219 308.344 264.041 309.521C262.863 310.699 261.265 311.361 259.6 311.361ZM47.2336 0.512061C45.6426 0.512058 44.1167 1.14332 42.9906 2.26729C41.8646 3.39125 41.2306 4.91608 41.2276 6.50706V305.08C41.2305 306.672 41.8643 308.198 42.99 309.324C44.1157 310.449 45.6416 311.083 47.2336 311.086H259.6C261.192 311.083 262.718 310.449 263.843 309.324C264.969 308.198 265.603 306.672 265.606 305.08V6.50706C265.603 4.91608 264.969 3.39125 263.843 2.26729C262.717 1.14332 261.191 0.512058 259.6 0.512061H47.2336Z" fill="#EBEBEB"/>
<path d="M497.563 311.361H285.153C283.489 311.358 281.894 310.695 280.719 309.518C279.543 308.34 278.883 306.744 278.883 305.08V6.50706C278.886 4.84505 279.547 3.25194 280.722 2.07671C281.898 0.901491 283.491 0.239969 285.153 0.237061H497.563C499.227 0.237058 500.823 0.897295 502 2.07283C503.178 3.24837 503.841 4.84314 503.844 6.50706V305.08C503.844 306.746 503.182 308.344 502.004 309.521C500.826 310.699 499.229 311.361 497.563 311.361ZM285.153 0.512061C283.563 0.512061 282.038 1.14368 280.914 2.26796C279.789 3.39224 279.158 4.91709 279.158 6.50706V305.08C279.158 306.671 279.789 308.197 280.913 309.323C282.037 310.449 283.562 311.083 285.153 311.086H497.563C499.155 311.083 500.681 310.449 501.806 309.324C502.932 308.198 503.566 306.672 503.569 305.08V6.50706C503.566 4.91608 502.932 3.39125 501.806 2.26729C500.68 1.14332 499.154 0.512058 497.563 0.512061H285.153Z" fill="#EBEBEB"/>
<path d="M548.922 360.421H-1.07812V360.696H548.922V360.421Z" fill="#EBEBEB"/>
<path d="M79.728 353.909H173.041L173.041 229.741H79.728L79.728 353.909Z" fill="#F0F0F0"/>
<path d="M61.93 353.909H79.728L79.728 229.741H61.93L61.93 353.909Z" fill="#E6E6E6"/>
<path d="M85.7778 269.121H166.507V238.97H85.7778V269.121Z" fill="#FAFAFA"/>
<path d="M136.675 238.959L136.323 242.985C136.263 243.624 135.967 244.218 135.494 244.651C135.02 245.084 134.402 245.325 133.76 245.328H118.536C117.894 245.325 117.276 245.084 116.803 244.651C116.329 244.218 116.033 243.624 115.973 242.985L115.621 238.959H136.675Z" fill="#EBEBEB"/>
<path d="M85.7778 302.561H166.507V272.41H85.7778V302.561Z" fill="#FAFAFA"/>
<path d="M136.675 272.41L136.323 276.425C136.265 277.065 135.97 277.66 135.496 278.094C135.022 278.528 134.403 278.768 133.76 278.768H118.536C117.894 278.768 117.274 278.528 116.8 278.094C116.326 277.66 116.031 277.065 115.973 276.425L115.621 272.41H136.675Z" fill="#EBEBEB"/>
<path d="M85.7778 336.012H166.507V305.861H85.7778V336.012Z" fill="#FAFAFA"/>
<path d="M136.675 305.861L136.323 309.876C136.265 310.516 135.97 311.111 135.496 311.545C135.022 311.978 134.403 312.219 133.76 312.219H118.536C117.894 312.219 117.274 311.978 116.8 311.545C116.326 311.111 116.031 310.516 115.973 309.876L115.621 305.861H136.675Z" fill="#EBEBEB"/>
<path d="M85.7891 360.113H165.528L166.507 353.909H85.7891V360.113Z" fill="#E6E6E6"/>
<path d="M69.1128 360.113H85.7888V353.909H68.1338L69.1128 360.113Z" fill="#E0E0E0"/>
<path d="M123.266 229.884H155.133L151.602 189.47H119.735L123.266 229.884Z" fill="#FAFAFA"/>
<path d="M123.266 229.884H121.748L118.217 189.47H119.735L123.266 229.884Z" fill="#EBEBEB"/>
<path d="M126.159 225.759H151.525L148.709 193.595H123.343L126.159 225.759Z" fill="#F0F0F0"/>
<path d="M128.018 223.108H149.204L146.85 196.235H125.664L128.018 223.108Z" fill="#E6E6E6"/>
<path d="M114.312 229.884L116.501 204.87H84.7876L82.5986 229.884H114.312Z" fill="#F0F0F0"/>
<path d="M114.312 229.884L116.501 204.87H118.217L116.028 229.884H114.312Z" fill="#E0E0E0"/>
<path d="M111.309 227.332L113.047 207.422H87.7907L86.0527 227.332H111.309Z" fill="#EBEBEB"/>
<path d="M109.373 225.693L110.825 209.061H89.7269L88.2749 225.693H109.373Z" fill="#F5F5F5"/>
<path d="M254.177 249.981H261.679V358.98C261.679 359.327 261.541 359.66 261.296 359.906C261.05 360.151 260.717 360.289 260.37 360.289H255.475C255.128 360.289 254.795 360.151 254.549 359.906C254.304 359.66 254.166 359.327 254.166 358.98V249.981H254.177Z" fill="#F0F0F0"/>
<path d="M472.263 240.169H455.026V238.64C455.025 237.93 455.169 237.227 455.448 236.573C455.728 235.92 456.137 235.331 456.652 234.841C457.166 234.351 457.775 233.971 458.441 233.724C459.107 233.477 459.816 233.368 460.526 233.404L467.28 233.767C468.619 233.84 469.88 234.424 470.803 235.397C471.725 236.371 472.24 237.662 472.241 239.003L472.263 240.169Z" fill="#F0F0F0"/>
<path d="M425.7 204.529C425.666 203.875 425.382 203.26 424.908 202.809C424.433 202.359 423.803 202.108 423.148 202.109H405.746C405.093 202.111 404.466 202.363 403.994 202.813C403.521 203.263 403.239 203.877 403.205 204.529L407.341 240.829H433.4L425.7 204.529Z" fill="#E0E0E0"/>
<path d="M473 148.704H466.51L459.25 217.3H465.74C466.282 217.304 466.807 217.107 467.213 216.748C467.619 216.388 467.878 215.892 467.94 215.353L474.826 150.673C474.865 150.418 474.846 150.157 474.77 149.911C474.694 149.664 474.563 149.438 474.388 149.248C474.212 149.059 473.996 148.912 473.756 148.818C473.516 148.723 473.257 148.685 473 148.704Z" fill="#E0E0E0"/>
<path d="M463.001 217.3H365.695C365.447 217.306 365.201 217.257 364.973 217.158C364.746 217.059 364.542 216.912 364.377 216.727C364.212 216.542 364.089 216.323 364.016 216.086C363.944 215.849 363.924 215.599 363.957 215.353L370.832 150.673C370.894 150.134 371.153 149.638 371.559 149.279C371.965 148.919 372.49 148.722 373.032 148.726H470.338C470.586 148.721 470.832 148.769 471.06 148.868C471.287 148.967 471.491 149.114 471.656 149.299C471.821 149.484 471.944 149.703 472.017 149.94C472.089 150.177 472.11 150.427 472.076 150.673L465.201 215.353C465.139 215.892 464.88 216.388 464.474 216.748C464.068 217.107 463.543 217.304 463.001 217.3Z" fill="#EBEBEB"/>
<path d="M461.186 210.953H369.424C369.207 210.957 368.992 210.913 368.794 210.826C368.595 210.739 368.418 210.61 368.274 210.448C368.13 210.287 368.022 210.096 367.959 209.888C367.895 209.681 367.877 209.463 367.906 209.248L373.912 152.818C373.965 152.354 374.185 151.925 374.531 151.612C374.877 151.298 375.326 151.121 375.793 151.113H467.5C467.717 151.108 467.933 151.15 468.132 151.236C468.331 151.323 468.509 151.452 468.654 151.614C468.798 151.776 468.906 151.968 468.968 152.176C469.031 152.384 469.048 152.603 469.018 152.818L463.1 209.248C463.043 209.717 462.818 210.149 462.465 210.463C462.113 210.777 461.658 210.951 461.186 210.953Z" fill="#E0E0E0"/>
<path d="M434.676 238.024H401.984C401.401 238.024 400.928 238.497 400.928 239.08V239.784C400.928 240.367 401.401 240.84 401.984 240.84H434.676C435.259 240.84 435.732 240.367 435.732 239.784V239.08C435.732 238.497 435.259 238.024 434.676 238.024Z" fill="#E0E0E0"/>
<path d="M369.083 210.953L396.352 187.248C398.948 185.048 402.259 185.048 403.755 187.248L419.562 210.953H369.083Z" fill="#EBEBEB"/>
<path d="M396.352 187.248L369.083 210.953H395.23C392.623 209.633 386.485 208.929 387.211 205.904C388.168 201.977 400.323 203.352 401.225 199.623C402.127 195.894 393.459 197.071 394.548 192.55C395.12 190.185 397.364 187.611 399.377 185.686C398.254 185.946 397.214 186.483 396.352 187.248Z" fill="#F5F5F5"/>
<path d="M409.2 210.953L421.3 198.996C422.4 197.896 423.907 197.896 424.6 198.996L431.596 210.953H409.2Z" fill="#EBEBEB"/>
<path d="M421.3 198.996L409.2 210.953H420.783C419.628 210.282 416.911 209.93 417.23 208.401C417.648 206.421 423.038 207.114 423.445 205.233C423.852 203.352 420.002 203.946 420.486 201.669C420.903 200.357 421.636 199.167 422.62 198.204C422.116 198.343 421.66 198.617 421.3 198.996Z" fill="#FAFAFA"/>
<path d="M429.891 210.953L446.82 198.996C448.437 197.896 450.494 197.896 451.418 198.996L461.23 210.953H429.891Z" fill="#EBEBEB"/>
<path d="M446.82 198.996L429.891 210.953H446.127C444.51 210.282 440.693 209.93 441.144 208.401C441.738 206.421 449.284 207.114 449.845 205.233C450.406 203.352 445.027 203.946 445.698 201.669C446.371 200.266 447.408 199.07 448.701 198.204C448.023 198.326 447.381 198.596 446.82 198.996Z" fill="#FAFAFA"/>
<path d="M446.769 182.397C451.747 177.92 452.847 171.028 449.228 167.004C445.608 162.979 438.638 163.346 433.661 167.823C428.683 172.3 427.582 179.192 431.202 183.217C434.822 187.241 441.792 186.874 446.769 182.397Z" fill="#F0F0F0"/>
<path opacity="0.8" d="M446.769 182.397C451.747 177.92 452.847 171.028 449.228 167.004C445.608 162.979 438.638 163.346 433.661 167.823C428.683 172.3 427.582 179.192 431.202 183.217C434.822 187.241 441.792 186.874 446.769 182.397Z" fill="white"/>
<path d="M486.354 240.169H421.344V249.981H486.354V240.169Z" fill="#E6E6E6"/>
<path d="M300.652 249.981H308.154V358.98C308.154 359.327 308.016 359.66 307.77 359.906C307.525 360.151 307.192 360.289 306.845 360.289H301.95C301.602 360.289 301.27 360.151 301.024 359.906C300.779 359.66 300.641 359.327 300.641 358.98V249.981H300.652Z" fill="#E6E6E6"/>
<path d="M474.518 249.981H482.02V358.98C482.021 359.154 481.988 359.326 481.922 359.487C481.856 359.648 481.759 359.794 481.636 359.917C481.513 360.04 481.367 360.137 481.207 360.203C481.046 360.268 480.873 360.301 480.7 360.3H475.805C475.457 360.3 475.125 360.162 474.879 359.917C474.634 359.671 474.496 359.338 474.496 358.991V249.981H474.518Z" fill="#E6E6E6"/>
<path d="M439.879 240.169H249.843V249.981H439.879V240.169Z" fill="#F5F5F5"/>
<path d="M428.054 249.981H435.6V358.98C435.6 359.327 435.462 359.66 435.216 359.906C434.971 360.151 434.638 360.289 434.291 360.289H429.396C429.049 360.289 428.716 360.151 428.47 359.906C428.225 359.66 428.087 359.327 428.087 358.98V249.981H428.054Z" fill="#F0F0F0"/>
<path d="M375.276 237.881H372.9C372.777 237.881 372.66 237.832 372.573 237.746C372.487 237.659 372.438 237.542 372.438 237.419V234.9C372.438 234.778 372.487 234.66 372.573 234.573C372.66 234.487 372.777 234.438 372.9 234.438H374.638C374.74 234.439 374.839 234.472 374.92 234.534C375.001 234.595 375.061 234.681 375.089 234.779L375.771 237.353C375.781 237.422 375.776 237.492 375.755 237.559C375.734 237.625 375.699 237.686 375.651 237.737C375.603 237.787 375.545 237.827 375.48 237.852C375.415 237.877 375.345 237.887 375.276 237.881Z" fill="#F5F5F5"/>
<path d="M378.631 237.881H376.2C376.139 237.881 376.079 237.869 376.023 237.846C375.967 237.823 375.916 237.789 375.873 237.746C375.83 237.703 375.796 237.652 375.773 237.596C375.75 237.54 375.738 237.48 375.738 237.419V234.9C375.738 234.839 375.75 234.779 375.773 234.723C375.796 234.667 375.83 234.616 375.873 234.573C375.916 234.53 375.967 234.496 376.023 234.473C376.079 234.45 376.139 234.438 376.2 234.438H377.938C378.04 234.439 378.139 234.472 378.22 234.534C378.301 234.595 378.36 234.681 378.389 234.779L379.071 237.353C379.08 237.417 379.076 237.483 379.058 237.545C379.041 237.607 379.01 237.665 378.969 237.715C378.927 237.765 378.876 237.805 378.817 237.834C378.759 237.863 378.696 237.879 378.631 237.881Z" fill="#F5F5F5"/>
<path d="M381.986 237.881H379.555C379.432 237.881 379.315 237.832 379.228 237.746C379.141 237.659 379.093 237.542 379.093 237.419V234.9C379.093 234.778 379.141 234.66 379.228 234.573C379.315 234.487 379.432 234.438 379.555 234.438H381.304C381.406 234.439 381.505 234.472 381.586 234.534C381.667 234.595 381.726 234.681 381.755 234.779L382.437 237.353C382.446 237.418 382.442 237.484 382.423 237.548C382.405 237.611 382.373 237.669 382.331 237.719C382.288 237.769 382.235 237.809 382.176 237.837C382.116 237.865 382.052 237.88 381.986 237.881Z" fill="#F5F5F5"/>
<path d="M385.341 237.881H382.91C382.787 237.881 382.67 237.832 382.583 237.746C382.496 237.659 382.448 237.542 382.448 237.419V234.9C382.448 234.778 382.496 234.66 382.583 234.573C382.67 234.487 382.787 234.438 382.91 234.438H384.659C384.76 234.437 384.858 234.471 384.938 234.533C385.017 234.594 385.074 234.681 385.099 234.779L385.792 237.353C385.801 237.418 385.797 237.484 385.778 237.548C385.76 237.611 385.729 237.669 385.686 237.719C385.643 237.769 385.59 237.809 385.531 237.837C385.471 237.865 385.407 237.88 385.341 237.881Z" fill="#F5F5F5"/>
<path d="M388.696 237.881H386.265C386.142 237.881 386.025 237.832 385.938 237.746C385.851 237.659 385.803 237.542 385.803 237.419V234.9C385.803 234.778 385.851 234.66 385.938 234.573C386.025 234.487 386.142 234.438 386.265 234.438H388.014C388.114 234.439 388.211 234.473 388.291 234.535C388.37 234.596 388.427 234.682 388.454 234.779L389.136 237.353C389.145 237.417 389.141 237.483 389.123 237.545C389.106 237.607 389.075 237.665 389.033 237.715C388.992 237.765 388.94 237.805 388.882 237.834C388.824 237.863 388.761 237.879 388.696 237.881Z" fill="#F5F5F5"/>
<path d="M392.051 237.881H389.62C389.497 237.881 389.38 237.832 389.293 237.746C389.206 237.659 389.158 237.542 389.158 237.419V234.9C389.158 234.778 389.206 234.66 389.293 234.573C389.38 234.487 389.497 234.438 389.62 234.438H391.358C391.46 234.437 391.56 234.47 391.641 234.532C391.723 234.593 391.782 234.68 391.809 234.779L392.491 237.353C392.5 237.417 392.496 237.483 392.478 237.545C392.46 237.607 392.43 237.665 392.388 237.715C392.347 237.765 392.295 237.805 392.237 237.834C392.179 237.863 392.116 237.879 392.051 237.881Z" fill="#F5F5F5"/>
<path d="M395.406 237.881H392.975C392.852 237.881 392.735 237.832 392.648 237.746C392.561 237.659 392.513 237.542 392.513 237.419V234.9C392.513 234.778 392.561 234.66 392.648 234.573C392.735 234.487 392.852 234.438 392.975 234.438H394.713C394.815 234.439 394.914 234.472 394.995 234.534C395.076 234.595 395.135 234.681 395.164 234.779L395.846 237.353C395.855 237.417 395.851 237.483 395.833 237.545C395.815 237.607 395.785 237.665 395.743 237.715C395.702 237.765 395.65 237.805 395.592 237.834C395.534 237.863 395.47 237.879 395.406 237.881Z" fill="#F5F5F5"/>
<path d="M398.75 237.881H396.33C396.207 237.881 396.09 237.832 396.003 237.746C395.916 237.659 395.868 237.542 395.868 237.419V234.9C395.868 234.778 395.916 234.66 396.003 234.573C396.09 234.487 396.207 234.438 396.33 234.438H398.068C398.17 234.439 398.268 234.472 398.35 234.534C398.431 234.595 398.49 234.681 398.519 234.779L399.201 237.353C399.21 237.418 399.205 237.484 399.187 237.548C399.169 237.611 399.137 237.669 399.095 237.719C399.052 237.769 398.999 237.809 398.94 237.837C398.88 237.865 398.815 237.88 398.75 237.881Z" fill="#F5F5F5"/>
<path d="M402.105 237.881H399.685C399.562 237.881 399.445 237.832 399.358 237.746C399.271 237.659 399.223 237.542 399.223 237.419V234.9C399.223 234.778 399.271 234.66 399.358 234.573C399.445 234.487 399.562 234.438 399.685 234.438H401.423C401.525 234.439 401.623 234.472 401.705 234.534C401.786 234.595 401.845 234.681 401.874 234.779L402.556 237.353C402.565 237.418 402.56 237.484 402.542 237.548C402.524 237.611 402.492 237.669 402.45 237.719C402.407 237.769 402.354 237.809 402.295 237.837C402.235 237.865 402.17 237.88 402.105 237.881Z" fill="#F5F5F5"/>
<path d="M405.46 237.881H403.029C402.968 237.881 402.908 237.869 402.852 237.846C402.796 237.823 402.745 237.789 402.702 237.746C402.659 237.703 402.625 237.652 402.602 237.596C402.579 237.54 402.567 237.48 402.567 237.419V234.9C402.567 234.839 402.579 234.779 402.602 234.723C402.625 234.667 402.659 234.616 402.702 234.573C402.745 234.53 402.796 234.496 402.852 234.473C402.908 234.45 402.968 234.438 403.029 234.438H404.8C404.902 234.439 405.001 234.472 405.082 234.534C405.163 234.595 405.222 234.681 405.251 234.779L405.933 237.353C405.943 237.42 405.937 237.488 405.918 237.553C405.898 237.618 405.865 237.677 405.82 237.728C405.775 237.778 405.719 237.818 405.657 237.844C405.595 237.871 405.527 237.883 405.46 237.881Z" fill="#F5F5F5"/>
<path d="M408.815 237.881H406.384C406.261 237.881 406.144 237.832 406.057 237.746C405.971 237.659 405.922 237.542 405.922 237.419V234.9C405.922 234.778 405.971 234.66 406.057 234.573C406.144 234.487 406.261 234.438 406.384 234.438H408.1C408.201 234.437 408.299 234.471 408.379 234.533C408.459 234.594 408.515 234.681 408.54 234.779L409.233 237.353C409.242 237.415 409.238 237.479 409.222 237.54C409.206 237.601 409.177 237.658 409.138 237.707C409.099 237.757 409.05 237.798 408.994 237.828C408.939 237.858 408.878 237.876 408.815 237.881Z" fill="#F5F5F5"/>
<path d="M412.17 237.881H409.739C409.616 237.881 409.499 237.832 409.412 237.746C409.326 237.659 409.277 237.542 409.277 237.419V234.9C409.277 234.778 409.326 234.66 409.412 234.573C409.499 234.487 409.616 234.438 409.739 234.438H411.488C411.588 234.439 411.686 234.473 411.765 234.535C411.844 234.596 411.902 234.682 411.928 234.779L412.61 237.353C412.619 237.417 412.615 237.483 412.597 237.545C412.58 237.607 412.549 237.665 412.508 237.715C412.466 237.765 412.415 237.805 412.356 237.834C412.298 237.863 412.235 237.879 412.17 237.881Z" fill="#F5F5F5"/>
<path d="M415.525 237.881H413.094C413.033 237.881 412.973 237.869 412.917 237.846C412.861 237.823 412.81 237.789 412.767 237.746C412.724 237.703 412.69 237.652 412.667 237.596C412.644 237.54 412.632 237.48 412.632 237.419V234.9C412.632 234.839 412.644 234.779 412.667 234.723C412.69 234.667 412.724 234.616 412.767 234.573C412.81 234.53 412.861 234.496 412.917 234.473C412.973 234.45 413.033 234.438 413.094 234.438H414.832C414.934 234.437 415.034 234.47 415.116 234.532C415.197 234.593 415.256 234.68 415.283 234.779L415.965 237.353C415.974 237.417 415.97 237.483 415.952 237.545C415.935 237.607 415.904 237.665 415.863 237.715C415.821 237.765 415.77 237.805 415.711 237.834C415.653 237.863 415.59 237.879 415.525 237.881Z" fill="#F5F5F5"/>
<path d="M418.869 237.881H416.449C416.326 237.881 416.209 237.832 416.122 237.746C416.035 237.659 415.987 237.542 415.987 237.419V234.9C415.987 234.778 416.035 234.66 416.122 234.573C416.209 234.487 416.326 234.438 416.449 234.438H418.187C418.289 234.439 418.388 234.472 418.469 234.534C418.55 234.595 418.609 234.681 418.638 234.779L419.32 237.353C419.329 237.418 419.325 237.484 419.306 237.548C419.288 237.611 419.257 237.669 419.214 237.719C419.171 237.769 419.118 237.809 419.059 237.837C418.999 237.865 418.935 237.88 418.869 237.881Z" fill="#F5F5F5"/>
<path d="M422.224 237.881H419.804C419.681 237.881 419.564 237.832 419.477 237.746C419.39 237.659 419.342 237.542 419.342 237.419V234.9C419.342 234.778 419.39 234.66 419.477 234.573C419.564 234.487 419.681 234.438 419.804 234.438H421.542C421.644 234.439 421.743 234.472 421.824 234.534C421.905 234.595 421.964 234.681 421.993 234.779L422.675 237.353C422.684 237.418 422.68 237.484 422.661 237.548C422.643 237.611 422.612 237.669 422.569 237.719C422.526 237.769 422.473 237.809 422.414 237.837C422.354 237.865 422.29 237.88 422.224 237.881Z" fill="#F5F5F5"/>
<path d="M424.666 236.132H370.414V240.169H424.666V236.132Z" fill="#EBEBEB"/>
<path d="M269.698 405.081C387.489 405.081 482.977 399.506 482.977 392.629C482.977 385.752 387.489 380.177 269.698 380.177C151.907 380.177 56.4189 385.752 56.4189 392.629C56.4189 399.506 151.907 405.081 269.698 405.081Z" fill="#F5F5F5"/>
<path d="M80.0912 253.622H386.529L370.524 24.7891H64.0972L80.0912 253.622Z" fill="#009DDC"/>
<g opacity="0.6">
<path opacity="0.6" d="M80.0912 253.622H386.529L370.524 24.7891H64.0972L80.0912 253.622Z" fill="white"/>
</g>
<path d="M320.254 53.4001C320.405 53.3977 320.553 53.356 320.683 53.2791L325.589 50.1661C325.703 50.0951 325.798 49.9963 325.863 49.8789C325.928 49.7616 325.963 49.6295 325.963 49.4951C325.963 49.3619 325.93 49.2308 325.866 49.1137C325.803 48.9966 325.712 48.897 325.6 48.8241L320.441 45.4471C320.265 45.3318 320.05 45.2914 319.843 45.3347C319.637 45.3781 319.456 45.5016 319.341 45.6781C319.226 45.8546 319.186 46.0696 319.229 46.2759C319.272 46.4822 319.396 46.6628 319.572 46.7781L323.697 49.4841L319.825 51.9261C319.682 52.0204 319.572 52.1583 319.513 52.3195C319.453 52.4806 319.447 52.6566 319.495 52.8216C319.543 52.9865 319.643 53.1317 319.779 53.2358C319.916 53.3399 320.082 53.3975 320.254 53.4001Z" fill="#263238"/>
<path d="M317.581 50.2981H325.171C325.381 50.2981 325.583 50.2146 325.731 50.0661C325.88 49.9176 325.963 49.7161 325.963 49.5061C325.963 49.295 325.88 49.0924 325.732 48.9421C325.584 48.7918 325.382 48.706 325.171 48.7031H317.581C317.37 48.706 317.169 48.7918 317.02 48.9421C316.872 49.0924 316.789 49.295 316.789 49.5061C316.789 49.7161 316.873 49.9176 317.021 50.0661C317.17 50.2146 317.371 50.2981 317.581 50.2981Z" fill="#263238"/>
<path d="M305.58 53.4001C305.713 53.4 305.844 53.3667 305.962 53.3034C306.079 53.24 306.178 53.1485 306.251 53.0371C306.364 52.86 306.403 52.6456 306.36 52.4399C306.317 52.2343 306.195 52.0537 306.02 51.9371L301.895 49.2421L305.8 46.8001C305.977 46.6851 306.101 46.5054 306.146 46.2996C306.192 46.0938 306.154 45.8785 306.042 45.7001C305.986 45.6115 305.913 45.5349 305.828 45.4747C305.742 45.4145 305.645 45.372 305.543 45.3495C305.44 45.327 305.335 45.325 305.232 45.3436C305.128 45.3623 305.03 45.4012 304.942 45.4581L300.025 48.5711C299.915 48.643 299.825 48.7408 299.761 48.8559C299.698 48.9709 299.664 49.0998 299.662 49.2311C299.66 49.3646 299.693 49.4964 299.756 49.6139C299.82 49.7314 299.912 49.8306 300.025 49.9021L305.184 53.2791C305.303 53.3543 305.44 53.3961 305.58 53.4001Z" fill="#263238"/>
<path d="M300.421 50.034H308C308.211 50.034 308.414 49.9509 308.564 49.8027C308.714 49.6545 308.8 49.453 308.803 49.242C308.803 49.1365 308.782 49.0321 308.742 48.9347C308.701 48.8373 308.642 48.7487 308.568 48.6742C308.493 48.5996 308.405 48.5404 308.307 48.5001C308.21 48.4597 308.105 48.439 308 48.439H300.421C300.21 48.4419 300.008 48.5277 299.86 48.678C299.712 48.8283 299.629 49.0309 299.629 49.242C299.629 49.452 299.712 49.6535 299.861 49.802C300.009 49.9505 300.211 50.034 300.421 50.034Z" fill="#263238"/>
<path d="M286.682 55.0391C287.334 55.0471 287.981 54.9181 288.579 54.6604C289.178 54.4027 289.716 54.022 290.158 53.5431C290.604 53.0649 290.946 52.4991 291.162 51.8818C291.378 51.2645 291.463 50.6091 291.412 49.9571C291.298 48.6162 290.69 47.3654 289.707 46.4468C288.723 45.5283 287.434 45.0074 286.088 44.9851C285.436 44.9798 284.79 45.1105 284.19 45.3689C283.591 45.6273 283.053 46.0077 282.609 46.4858C282.165 46.964 281.825 47.5293 281.612 48.1459C281.398 48.7625 281.316 49.4168 281.369 50.0671C281.384 50.2771 281.481 50.4728 281.64 50.611C281.799 50.7492 282.006 50.8187 282.216 50.8041C282.426 50.7895 282.622 50.692 282.76 50.5332C282.898 50.3744 282.968 50.1671 282.953 49.9571C282.915 49.5244 282.968 49.0885 283.108 48.6775C283.249 48.2665 283.474 47.8896 283.77 47.5713C284.065 47.2529 284.424 47.0002 284.824 46.8294C285.223 46.6587 285.654 46.5737 286.088 46.5801C287.032 46.5934 287.937 46.958 288.627 47.6028C289.316 48.2476 289.741 49.1262 289.817 50.0671C289.859 50.5005 289.809 50.9378 289.67 51.3504C289.531 51.7629 289.305 52.1412 289.009 52.4604C288.713 52.7795 288.352 53.0321 287.951 53.2017C287.55 53.3713 287.118 53.4539 286.682 53.4441C286.472 53.4441 286.271 53.5275 286.122 53.676C285.974 53.8246 285.89 54.026 285.89 54.2361C285.89 54.4471 285.973 54.6497 286.122 54.8C286.27 54.9503 286.471 55.0362 286.682 55.0391Z" fill="#263238"/>
<path d="M282.172 50.8921H282.392L284.955 50.1441C285.056 50.1145 285.149 50.0654 285.231 49.9996C285.312 49.9338 285.38 49.8526 285.43 49.7607C285.48 49.6688 285.511 49.5679 285.522 49.4638C285.533 49.3597 285.524 49.2545 285.494 49.1541C285.465 49.0537 285.415 48.9601 285.35 48.8787C285.284 48.7973 285.203 48.7296 285.111 48.6795C285.019 48.6295 284.918 48.598 284.814 48.587C284.71 48.5759 284.605 48.5855 284.504 48.6151L282.524 49.1981L281.6 47.6581C281.491 47.4772 281.314 47.3472 281.109 47.2966C280.903 47.2461 280.687 47.2792 280.506 47.3886C280.325 47.498 280.195 47.6747 280.144 47.88C280.094 48.0853 280.127 48.3022 280.236 48.4831L281.49 50.5181C281.561 50.6346 281.662 50.7304 281.781 50.796C281.901 50.8616 282.036 50.8948 282.172 50.8921Z" fill="#263238"/>
<path d="M151.525 51.8491C151.123 51.4763 150.799 51.0279 150.571 50.5296C150.342 50.0313 150.214 49.4928 150.194 48.9451C150.169 48.4549 150.243 47.9648 150.411 47.5037C150.579 47.0426 150.839 46.62 151.173 46.2611C151.509 45.9007 151.914 45.611 152.364 45.4089C152.813 45.2068 153.298 45.0964 153.791 45.0841C154.336 45.0618 154.88 45.1476 155.392 45.3364C155.903 45.5252 156.372 45.8132 156.772 46.1841C157.587 46.9358 158.07 47.9804 158.114 49.0881C158.135 49.5787 158.058 50.0684 157.888 50.5291C157.718 50.9898 157.458 51.4122 157.124 51.7721C156.79 52.1326 156.388 52.4225 155.94 52.6247C155.492 52.8269 155.008 52.9372 154.517 52.9491H154.374C153.321 52.9495 152.305 52.5573 151.525 51.8491ZM153.846 46.6681C153.565 46.6722 153.287 46.7329 153.029 46.8466C152.771 46.9603 152.539 47.1246 152.346 47.3298C152.153 47.5351 152.003 47.777 151.906 48.0413C151.808 48.3055 151.765 48.5867 151.778 48.8681C151.809 49.5526 152.11 50.1972 152.614 50.6611C153.109 51.1317 153.769 51.3885 154.451 51.3761C154.733 51.372 155.011 51.3112 155.269 51.1976C155.526 51.0839 155.758 50.9195 155.951 50.7143C156.144 50.509 156.294 50.2671 156.392 50.0029C156.489 49.7386 156.532 49.4574 156.519 49.1761C156.488 48.4915 156.188 47.847 155.683 47.3831C155.213 46.9307 154.587 46.675 153.934 46.6681H153.846Z" fill="#263238"/>
<path d="M149.314 55.0391C149.425 55.038 149.533 55.014 149.634 54.9686C149.734 54.9231 149.824 54.8572 149.897 54.7751L152.658 51.8051C152.804 51.6504 152.883 51.4442 152.877 51.2317C152.87 51.0192 152.78 50.8179 152.625 50.6721C152.471 50.5262 152.265 50.4477 152.052 50.4539C151.84 50.4601 151.638 50.5504 151.492 50.7051L148.731 53.6751C148.589 53.8227 148.509 54.0199 148.509 54.2251C148.509 54.4303 148.589 54.6274 148.731 54.7751C148.806 54.8562 148.896 54.9214 148.996 54.9668C149.096 55.0121 149.204 55.0367 149.314 55.0391Z" fill="#263238"/>
<path d="M64.9882 37.6591H371.426L370.524 24.7891H64.0972L64.9882 37.6591Z" fill="#009DDC"/>
<path opacity="0.4" d="M64.9882 37.6591H371.426L370.524 24.7891H64.0972L64.9882 37.6591Z" fill="black"/>
<path d="M94.6663 31.2241C94.7559 32.2623 95.2272 33.2306 95.9891 33.9416C96.7509 34.6527 97.7493 35.0562 98.7913 35.0741C99.2863 35.0806 99.7771 34.9832 100.232 34.7883C100.687 34.5934 101.096 34.3053 101.433 33.9425C101.77 33.5798 102.027 33.1504 102.188 32.6822C102.349 32.2139 102.409 31.7172 102.366 31.2241C102.282 30.1858 101.813 29.2163 101.053 28.5045C100.292 27.7928 99.2938 27.3897 98.2523 27.3741C97.7568 27.3677 97.2656 27.4651 96.81 27.6599C96.3544 27.8547 95.9446 28.1426 95.6069 28.5051C95.2692 28.8677 95.0111 29.2969 94.8491 29.7651C94.6871 30.2334 94.6248 30.7303 94.6663 31.2241Z" fill="white"/>
<path d="M82.863 31.2241C82.9527 32.2623 83.424 33.2306 84.1858 33.9416C84.9477 34.6527 85.9461 35.0562 86.988 35.0741C87.483 35.0806 87.9739 34.9832 88.429 34.7883C88.884 34.5934 89.2932 34.3053 89.63 33.9425C89.9669 33.5798 90.224 33.1504 90.3847 32.6822C90.5454 32.2139 90.6061 31.7172 90.563 31.2241C90.4784 30.1858 90.0102 29.2163 89.2496 28.5045C88.489 27.7928 87.4906 27.3897 86.449 27.3741C85.9536 27.3677 85.4623 27.4651 85.0068 27.6599C84.5512 27.8547 84.1414 28.1426 83.8037 28.5051C83.466 28.8677 83.2078 29.2969 83.0458 29.7651C82.8839 30.2334 82.8216 30.7303 82.863 31.2241Z" fill="white"/>
<path d="M71.0603 31.2241C71.1476 32.2632 71.6181 33.2329 72.3805 33.9444C73.1429 34.656 74.1426 35.0586 75.1853 35.0741C75.6803 35.0806 76.1712 34.9832 76.6262 34.7883C77.0813 34.5934 77.4905 34.3053 77.8273 33.9425C78.1642 33.5798 78.4212 33.1504 78.5819 32.6822C78.7426 32.2139 78.8034 31.7172 78.7603 31.2241C78.6757 30.1858 78.2074 29.2163 77.4469 28.5045C76.6863 27.7928 75.6879 27.3897 74.6463 27.3741C74.1509 27.3677 73.6596 27.4651 73.204 27.6599C72.7484 27.8547 72.3387 28.1426 72.001 28.5051C71.6632 28.8677 71.4051 29.2969 71.2431 29.7651C71.0811 30.2334 71.0189 30.7303 71.0603 31.2241Z" fill="white"/>
<path d="M357.676 45.9532L347.93 45.7992C347.822 45.7977 347.715 45.775 347.615 45.7322C347.516 45.6894 347.426 45.6274 347.35 45.5498C347.275 45.4722 347.215 45.3804 347.175 45.2797C347.135 45.1791 347.115 45.0715 347.116 44.9632C347.127 44.7471 347.22 44.5431 347.375 44.3922C347.53 44.2412 347.736 44.1544 347.952 44.1492L357.698 44.3032C357.917 44.3032 358.127 44.3901 358.282 44.5448C358.436 44.6995 358.523 44.9094 358.523 45.1282C358.523 45.347 358.436 45.5568 358.282 45.7115C358.127 45.8663 357.917 45.9532 357.698 45.9532H357.676Z" fill="#263238"/>
<path d="M358.061 50.3311L348.326 50.1771C348.218 50.1756 348.111 50.1529 348.011 50.1101C347.912 50.0673 347.822 50.0053 347.746 49.9277C347.671 49.85 347.611 49.7583 347.571 49.6576C347.531 49.557 347.511 49.4494 347.512 49.3411C347.523 49.125 347.616 48.921 347.771 48.7701C347.926 48.6191 348.132 48.5323 348.348 48.5271L358.094 48.6811C358.203 48.6825 358.31 48.7053 358.409 48.7481C358.509 48.7908 358.599 48.8528 358.674 48.9305C358.75 49.0081 358.81 49.0999 358.85 49.2005C358.89 49.3012 358.91 49.4087 358.908 49.5171C358.902 49.7369 358.81 49.9456 358.652 50.0979C358.493 50.2503 358.281 50.334 358.061 50.3311Z" fill="#263238"/>
<path d="M358.435 54.7091L348.7 54.5551C348.592 54.5536 348.485 54.5309 348.385 54.4881C348.286 54.4453 348.196 54.3833 348.12 54.3057C348.045 54.228 347.985 54.1363 347.945 54.0356C347.905 53.935 347.885 53.8274 347.886 53.7191C347.897 53.503 347.99 53.299 348.145 53.1481C348.3 52.9971 348.506 52.9103 348.722 52.9051L358.468 53.0591C358.687 53.0591 358.897 53.146 359.052 53.3007C359.206 53.4554 359.293 53.6653 359.293 53.8841C359.293 54.1029 359.206 54.3127 359.052 54.4674C358.897 54.6222 358.687 54.7091 358.468 54.7091H358.435Z" fill="#263238"/>
<path d="M171.864 54.2361H265.254C265.878 54.2463 266.498 54.125 267.073 53.8802C267.647 53.6354 268.164 53.2725 268.589 52.8151C269.015 52.3576 269.339 51.8159 269.541 51.225C269.744 50.634 269.82 50.0072 269.764 49.3851C269.655 48.0763 269.063 46.8549 268.103 45.9583C267.144 45.0618 265.885 44.5541 264.572 44.5341H171.182C170.558 44.5256 169.939 44.648 169.365 44.8934C168.791 45.1388 168.275 45.5017 167.85 45.9588C167.426 46.4158 167.101 46.9569 166.898 47.547C166.695 48.1372 166.618 48.7633 166.672 49.3851C166.781 50.6938 167.373 51.9152 168.332 52.8118C169.292 53.7084 170.551 54.216 171.864 54.2361Z" fill="white"/>
<g opacity="0.5">
<path opacity="0.5" d="M222.805 68.5471H227.293L226.864 62.2881H222.365L222.805 68.5471Z" fill="black"/>
<path opacity="0.5" d="M220.616 68.5031L225.357 72.9361L229.482 68.5031H220.616Z" fill="black"/>
<path opacity="0.5" d="M216.073 76.06H235.07L234.542 68.503H232.155L232.518 73.673H218.295L217.932 68.459H215.545L216.073 76.06Z" fill="black"/>
<g opacity="0.5">
<path opacity="0.5" d="M222.805 68.5471H227.293L226.864 62.2881H222.365L222.805 68.5471Z" fill="black"/>
<path opacity="0.5" d="M220.616 68.5031L225.357 72.9361L229.482 68.5031H220.616Z" fill="black"/>
<path opacity="0.5" d="M216.073 76.06H235.07L234.542 68.503H232.155L232.518 73.673H218.295L217.932 68.459H215.545L216.073 76.06Z" fill="black"/>
</g>
</g>
<path opacity="0.1" d="M323.147 24.7891L385.748 253.963H371.008L308.902 24.7891H323.147Z" fill="white"/>
<path opacity="0.1" d="M117.744 24.7891L180.334 253.963H165.605L103.499 24.7891H117.744Z" fill="white"/>
<path opacity="0.1" d="M300.41 24.7891L363.011 253.963H328.471L266.354 24.7891H300.41Z" fill="white"/>
<path d="M182.358 116.463H274.23C275.544 116.482 276.847 116.225 278.055 115.709C279.263 115.193 280.349 114.429 281.244 113.467C282.138 112.505 282.821 111.366 283.248 110.124C283.675 108.882 283.837 107.564 283.723 106.255L283.041 96.5091C282.815 93.7545 281.57 91.1829 279.551 89.2958C277.532 87.4086 274.882 86.341 272.118 86.3011H180.246C178.933 86.2823 177.63 86.5392 176.422 87.0552C175.214 87.5712 174.127 88.3349 173.233 89.2968C172.338 90.2588 171.655 91.3977 171.228 92.64C170.801 93.8823 170.639 95.2004 170.753 96.5091L171.435 106.255C171.664 109.009 172.909 111.579 174.928 113.466C176.947 115.352 179.595 116.421 182.358 116.463Z" fill="#009DDC"/>
<path d="M202.103 101.228C202.038 100.772 202.077 100.307 202.217 99.8687C202.357 99.43 202.595 99.0289 202.913 98.6954C203.23 98.3619 203.62 98.1047 204.051 97.9432C204.482 97.7817 204.944 97.7201 205.403 97.763C205.917 97.7488 206.429 97.8389 206.907 98.028C207.385 98.217 207.82 98.5011 208.186 98.863L207.46 99.633C207.216 99.3807 206.924 99.1805 206.601 99.0444C206.277 98.9083 205.93 98.8391 205.579 98.841C205.268 98.8113 204.955 98.8535 204.663 98.9645C204.371 99.0754 204.108 99.2521 203.895 99.4807C203.683 99.7094 203.526 99.9839 203.436 100.283C203.346 100.582 203.327 100.898 203.379 101.206C203.437 101.864 203.744 102.476 204.236 102.917C204.728 103.358 205.369 103.596 206.03 103.582C206.359 103.593 206.686 103.526 206.984 103.386C207.282 103.247 207.543 103.039 207.746 102.779L208.637 103.549C208.329 103.922 207.937 104.216 207.494 104.407C207.05 104.598 206.567 104.681 206.085 104.649C205.115 104.676 204.169 104.34 203.433 103.707C202.697 103.075 202.223 102.191 202.103 101.228Z" fill="white"/>
<path d="M209.077 97.4551H210.276L211.024 104.605H209.825L209.077 97.4551Z" fill="white"/>
<path d="M211.739 97.8841C211.729 97.7896 211.74 97.6942 211.771 97.6044C211.802 97.5147 211.853 97.4328 211.919 97.3646C211.985 97.2964 212.065 97.2436 212.154 97.2098C212.243 97.176 212.338 97.1621 212.432 97.1691C212.633 97.1614 212.829 97.2279 212.983 97.3558C213.137 97.4836 213.239 97.6639 213.268 97.8621C213.284 97.959 213.277 98.0582 213.248 98.1521C213.22 98.246 213.17 98.3322 213.103 98.4042C213.037 98.4762 212.955 98.5322 212.863 98.5678C212.772 98.6035 212.673 98.6179 212.575 98.6101C212.371 98.6143 212.172 98.5423 212.017 98.4081C211.863 98.274 211.764 98.0872 211.739 97.8841ZM212.058 99.4571H213.268L213.807 104.605H212.608L212.058 99.4571Z" fill="white"/>
<path d="M214.687 102.031C214.637 101.685 214.667 101.332 214.773 100.998C214.88 100.665 215.061 100.36 215.302 100.107C215.544 99.8537 215.84 99.6587 216.168 99.5366C216.495 99.4145 216.847 99.3685 217.195 99.4021C217.652 99.3789 218.107 99.4765 218.515 99.6851C218.922 99.8936 219.268 100.206 219.516 100.59L218.647 101.129C218.495 100.912 218.292 100.734 218.057 100.611C217.821 100.489 217.56 100.425 217.294 100.425C217.089 100.412 216.884 100.447 216.694 100.526C216.505 100.606 216.337 100.728 216.202 100.884C216.068 101.039 215.972 101.224 215.921 101.423C215.87 101.622 215.865 101.83 215.908 102.031C215.931 102.471 216.124 102.884 216.446 103.184C216.769 103.484 217.195 103.646 217.635 103.637C217.883 103.647 218.128 103.585 218.341 103.458C218.554 103.331 218.725 103.145 218.834 102.922L219.813 103.461C219.637 103.852 219.343 104.179 218.972 104.396C218.602 104.613 218.173 104.709 217.745 104.671C216.996 104.698 216.265 104.441 215.698 103.951C215.131 103.462 214.77 102.776 214.687 102.031Z" fill="white"/>
<path d="M222.794 102.394L221.991 103.241L222.134 104.605H220.924L220.176 97.4551H221.375L221.837 101.767L224.037 99.4571H225.5L223.586 101.657L226.248 104.649H224.785L222.794 102.394Z" fill="white"/>
<path d="M235.092 97.8621L235.807 104.605H234.553L234.245 101.712H230.769L231.066 104.605H229.823L229.108 97.8621H230.362L230.659 100.645H234.135L233.838 97.8621H235.092Z" fill="white"/>
<path d="M242.077 102.416H238.051C238.171 102.792 238.412 103.117 238.736 103.34C239.061 103.563 239.451 103.671 239.844 103.648C240.094 103.662 240.344 103.618 240.574 103.521C240.805 103.424 241.011 103.275 241.175 103.087L241.901 103.835C241.662 104.122 241.357 104.348 241.013 104.493C240.668 104.639 240.294 104.7 239.921 104.671C239.162 104.718 238.414 104.469 237.834 103.977C237.254 103.485 236.886 102.788 236.808 102.031C236.753 101.695 236.774 101.351 236.87 101.024C236.966 100.698 237.135 100.397 237.363 100.144C237.591 99.8918 237.874 99.6939 238.189 99.5653C238.504 99.4368 238.844 99.381 239.184 99.4021C239.913 99.3922 240.618 99.6631 241.152 100.159C241.687 100.654 242.01 101.337 242.055 102.064C242.069 102.181 242.077 102.298 242.077 102.416ZM237.952 101.613H240.9C240.822 101.253 240.621 100.932 240.332 100.703C240.043 100.475 239.684 100.353 239.316 100.359C239.143 100.344 238.968 100.365 238.803 100.421C238.637 100.477 238.486 100.567 238.358 100.685C238.229 100.803 238.127 100.947 238.057 101.106C237.987 101.266 237.952 101.439 237.952 101.613Z" fill="white"/>
<path d="M245.905 99.4021L246.026 100.502H245.751C244.838 100.502 244.31 101.041 244.42 102.097L244.684 104.594H243.485L242.946 99.4461H244.046L244.123 100.194C244.313 99.9052 244.582 99.6769 244.898 99.5365C245.214 99.3961 245.564 99.3495 245.905 99.4021Z" fill="white"/>
<path d="M252.01 102.416H247.984C248.102 102.793 248.343 103.119 248.668 103.342C248.993 103.566 249.384 103.673 249.777 103.648C250.027 103.662 250.277 103.618 250.508 103.521C250.738 103.424 250.944 103.275 251.108 103.087L251.834 103.835C251.595 104.122 251.29 104.348 250.946 104.493C250.601 104.639 250.227 104.7 249.854 104.671C249.095 104.718 248.347 104.469 247.767 103.977C247.187 103.485 246.819 102.788 246.741 102.031C246.686 101.695 246.707 101.351 246.803 101.024C246.9 100.698 247.068 100.397 247.296 100.144C247.525 99.8918 247.807 99.6939 248.122 99.5653C248.437 99.4368 248.778 99.381 249.117 99.4021C249.846 99.3922 250.551 99.6631 251.085 100.159C251.62 100.654 251.943 101.337 251.988 102.064C252.002 102.181 252.01 102.298 252.01 102.416ZM247.885 101.613H250.8C250.722 101.253 250.521 100.932 250.232 100.703C249.944 100.475 249.585 100.353 249.216 100.359C249.045 100.349 248.874 100.373 248.713 100.431C248.552 100.49 248.404 100.58 248.279 100.698C248.155 100.815 248.055 100.957 247.988 101.115C247.92 101.272 247.885 101.442 247.885 101.613Z" fill="white"/>
<path d="M287.001 127.529L277.2 122.7C277.2 122.7 274.615 119.719 277.332 118.443C277.86 118.221 278.432 118.122 279.004 118.155C279.576 118.187 280.133 118.35 280.632 118.63L284.273 120.599L268.026 104.352C267.599 103.909 267.36 103.318 267.36 102.702C267.36 102.087 267.599 101.495 268.026 101.052C268.472 100.608 269.075 100.359 269.704 100.359C270.333 100.359 270.936 100.608 271.381 101.052L282.7 112.327L277.53 107.157L279.246 105.452C279.443 105.254 279.676 105.096 279.934 104.988C280.192 104.881 280.468 104.825 280.748 104.825C281.027 104.825 281.304 104.881 281.561 104.988C281.819 105.096 282.053 105.254 282.249 105.452L286.649 109.852L282.04 105.243L284.031 103.252C284.431 102.856 284.97 102.634 285.533 102.634C286.095 102.634 286.635 102.856 287.034 103.252L290.84 107.058L287.21 103.428L288.365 102.273C288.765 101.877 289.304 101.655 289.867 101.655C290.429 101.655 290.969 101.877 291.368 102.273L300.531 111.447C300.952 111.88 301.321 112.36 301.631 112.877L303.16 115.429C303.769 116.447 304.092 117.609 304.095 118.795L294.8 128.046L290.675 128.277C289.407 128.346 288.142 128.088 287.001 127.529Z" fill="white"/>
<path d="M264.528 98.5552C264.383 98.5546 264.239 98.5251 264.105 98.4685C263.971 98.4118 263.849 98.3291 263.747 98.2252L260.392 94.8702C260.212 94.6598 260.118 94.3891 260.129 94.1122C260.139 93.8354 260.254 93.5728 260.45 93.3769C260.646 93.181 260.909 93.0662 261.185 93.0555C261.462 93.0448 261.733 93.139 261.943 93.3192L265.309 96.6742C265.514 96.8803 265.629 97.1591 265.629 97.4497C265.629 97.7403 265.514 98.0191 265.309 98.2252C265.208 98.3291 265.086 98.4118 264.952 98.4685C264.818 98.5251 264.674 98.5546 264.528 98.5552Z" fill="white"/>
<path d="M262.262 104H257.521C257.23 104 256.95 103.884 256.744 103.678C256.537 103.472 256.421 103.192 256.421 102.9C256.421 102.608 256.537 102.329 256.744 102.122C256.95 101.916 257.23 101.8 257.521 101.8H262.262C262.554 101.8 262.834 101.916 263.04 102.122C263.247 102.329 263.362 102.608 263.362 102.9C263.362 103.192 263.247 103.472 263.04 103.678C262.834 103.884 262.554 104 262.262 104Z" fill="white"/>
<path d="M275.407 98.5551C275.191 98.5542 274.98 98.4896 274.8 98.3693C274.62 98.2491 274.48 98.0785 274.397 97.879C274.313 97.6795 274.29 97.4598 274.331 97.2474C274.372 97.0351 274.475 96.8395 274.626 96.6851L277.992 93.3191C278.094 93.216 278.216 93.1341 278.35 93.0783C278.484 93.0224 278.628 92.9937 278.773 92.9937C278.918 92.9937 279.062 93.0224 279.196 93.0783C279.33 93.1341 279.452 93.216 279.554 93.3191C279.759 93.5252 279.874 93.804 279.874 94.0946C279.874 94.3852 279.759 94.664 279.554 94.8701L276.188 98.2361C276.085 98.338 275.963 98.4187 275.829 98.4734C275.695 98.5281 275.552 98.5559 275.407 98.5551Z" fill="white"/>
<path d="M261.173 112.8C260.955 112.801 260.741 112.738 260.559 112.617C260.377 112.496 260.235 112.324 260.151 112.122C260.067 111.92 260.045 111.698 260.088 111.484C260.131 111.27 260.237 111.073 260.392 110.919L263.692 107.619C263.898 107.414 264.177 107.299 264.468 107.299C264.758 107.299 265.037 107.414 265.243 107.619C265.448 107.825 265.563 108.104 265.563 108.395C265.563 108.685 265.448 108.964 265.243 109.17L261.943 112.525C261.731 112.712 261.456 112.811 261.173 112.8Z" fill="white"/>
<path d="M269.962 96.3001C269.671 96.3001 269.391 96.1842 269.184 95.9779C268.978 95.7716 268.862 95.4918 268.862 95.2001V90.4481C268.862 90.1563 268.978 89.8766 269.184 89.6703C269.391 89.464 269.671 89.3481 269.962 89.3481C270.254 89.3481 270.534 89.464 270.74 89.6703C270.946 89.8766 271.062 90.1563 271.062 90.4481V95.2001C271.062 95.4918 270.946 95.7716 270.74 95.9779C270.534 96.1842 270.254 96.3001 269.962 96.3001Z" fill="white"/>
<path d="M190.476 216.277H286.715L279.235 130.851H182.996L190.476 216.277Z" fill="#009DDC"/>
<path opacity="0.9" d="M190.476 216.277H286.715L279.235 130.851H182.996L190.476 216.277Z" fill="white"/>
<path d="M191.488 185.972H280.28L275.814 134.932H187.022L191.488 185.972Z" fill="#009DDC"/>
<path d="M252.439 195.08H275.627L275.143 189.536H251.944L252.439 195.08Z" fill="#009DDC"/>
<path d="M225.148 195.08H248.336L247.852 189.536H224.653L225.148 195.08Z" fill="#009DDC"/>
<path d="M197.846 195.08H221.045L220.561 189.536H197.362L197.846 195.08Z" fill="#009DDC"/>
<path opacity="0.5" d="M252.439 195.08H275.627L275.143 189.536H251.944L252.439 195.08Z" fill="white"/>
<path opacity="0.5" d="M225.148 195.08H248.336L247.852 189.536H224.653L225.148 195.08Z" fill="white"/>
<path opacity="0.5" d="M197.362 189.536L197.846 195.08H221.045L220.561 189.536" fill="white"/>
<path d="M265.694 203.044H269.269L268.994 199.865H265.419L265.694 203.044Z" fill="#009DDC"/>
<path d="M250.349 203.044H263.615L263.34 199.865H250.074L250.349 203.044Z" fill="#009DDC"/>
<path d="M234.729 203.044H247.995L247.72 199.865H234.454L234.729 203.044Z" fill="#009DDC"/>
<path d="M205.623 203.044H212.256L211.981 199.865H205.337L205.623 203.044Z" fill="#009DDC"/>
<path d="M214.192 203.044H232.298L232.023 199.865H213.917L214.192 203.044Z" fill="#009DDC"/>
<path d="M222.519 208.445H209.242L208.967 205.277H222.244L222.519 208.445Z" fill="#009DDC"/>
<path d="M238.139 208.445H224.862L224.587 205.277H237.864L238.139 208.445Z" fill="#009DDC"/>
<path d="M267.245 208.445H260.612L260.337 205.277H266.97L267.245 208.445Z" fill="#009DDC"/>
<path d="M258.665 208.445H240.559L240.284 205.277H258.39L258.665 208.445Z" fill="#009DDC"/>
<g opacity="0.6">
<path opacity="0.6" d="M265.694 203.044H269.269L268.994 199.865H265.419L265.694 203.044Z" fill="white"/>
<path opacity="0.6" d="M250.349 203.044H263.615L263.34 199.865H250.074L250.349 203.044Z" fill="white"/>
<path opacity="0.6" d="M234.729 203.044H247.995L247.72 199.865H234.454L234.729 203.044Z" fill="white"/>
<path opacity="0.6" d="M205.623 203.044H212.256L211.981 199.865H205.337L205.623 203.044Z" fill="white"/>
<path opacity="0.6" d="M214.192 203.044H232.298L232.023 199.865H213.917L214.192 203.044Z" fill="white"/>
</g>
<g opacity="0.6">
<path opacity="0.6" d="M222.519 208.445H209.242L208.967 205.277H222.244L222.519 208.445Z" fill="white"/>
<path opacity="0.6" d="M238.139 208.445H224.862L224.587 205.277H237.864L238.139 208.445Z" fill="white"/>
<path opacity="0.6" d="M267.245 208.445H260.612L260.337 205.277H266.97L267.245 208.445Z" fill="white"/>
<path opacity="0.6" d="M258.665 208.445H240.559L240.284 205.277H258.39L258.665 208.445Z" fill="white"/>
</g>
<path d="M280.291 186.082L248.699 158.054L235.95 186.082H280.291Z" fill="white"/>
<path d="M249.128 186.082L208.065 149.65L191.499 186.082H249.128Z" fill="white"/>
<path d="M225.896 150.024C226.071 151.852 226.912 153.553 228.258 154.802C229.605 156.051 231.364 156.762 233.2 156.8C234.06 156.814 234.914 156.646 235.704 156.305C236.493 155.964 237.202 155.459 237.781 154.823C238.361 154.187 238.798 153.435 239.065 152.617C239.332 151.799 239.421 150.934 239.327 150.079C239.144 148.259 238.299 146.569 236.953 145.33C235.607 144.091 233.852 143.389 232.023 143.358C231.168 143.344 230.32 143.512 229.534 143.849C228.748 144.187 228.043 144.687 227.464 145.317C226.886 145.946 226.447 146.691 226.176 147.502C225.906 148.314 225.811 149.173 225.896 150.024Z" fill="white"/>
<path d="M460.559 360.498L459.635 360.608C459.58 360.146 454.003 313.495 465.509 275.38C476.938 237.496 469.062 213.362 468.985 213.12L469.865 212.823C469.942 213.065 477.906 237.485 466.389 275.655C454.949 313.572 460.504 360.036 460.559 360.498Z" fill="#009DDC"/>
<path d="M470.624 218.312C468.633 215.94 465.934 214.267 462.924 213.538L463.133 212.636C466.352 213.406 469.24 215.187 471.372 217.718L470.624 218.312Z" fill="#009DDC"/>
<path d="M474.564 222.176L471.911 223.675L472.366 224.479L475.018 222.98L474.564 222.176Z" fill="#009DDC"/>
<path d="M469.623 243.7C467.315 238.445 463.043 234.3 457.721 232.15L458.073 231.292C463.617 233.537 468.068 237.853 470.481 243.326L469.623 243.7Z" fill="#009DDC"/>
<path d="M467.148 272.817H466.224C466.191 270.941 465.744 269.096 464.915 267.413C464.086 265.73 462.895 264.251 461.428 263.082L462 262.4C463.571 263.651 464.847 265.233 465.737 267.034C466.627 268.835 467.109 270.809 467.148 272.817Z" fill="#009DDC"/>
<path d="M465.08 280.275L464.222 279.934C464.696 278.753 465.407 277.682 466.311 276.787C467.216 275.892 468.294 275.192 469.48 274.731L469.81 275.6C468.743 276.013 467.773 276.641 466.959 277.446C466.145 278.25 465.506 279.213 465.08 280.275Z" fill="#009DDC"/>
<path d="M459.085 327.542L458.37 326.959C459.47 325.595 460.35 320.425 460.801 317.653C460.911 316.982 461.01 316.421 461.087 316.014L462 316.179C461.923 316.586 461.824 317.147 461.714 317.796C461.032 321.943 460.273 326.112 459.085 327.542Z" fill="#009DDC"/>
<path d="M458.546 342.392C457.908 340.578 456.714 339.012 455.134 337.916C453.554 336.82 451.669 336.25 449.746 336.287V335.363C451.877 335.311 453.969 335.935 455.722 337.147C457.475 338.359 458.799 340.095 459.503 342.106L458.546 342.392Z" fill="#009DDC"/>
<path d="M465.621 352.093L459.097 359.393L459.786 360.009L466.31 352.709L465.621 352.093Z" fill="#009DDC"/>
<path d="M470.228 304.475C471.713 309.26 461.428 318.368 461.428 318.368C461.428 318.368 447.7 316.652 446.27 311.9C444.84 307.148 448.25 299.283 454.872 297.237C461.494 295.191 468.754 299.69 470.228 304.475Z" fill="#009DDC"/>
<path d="M481.668 246.406C480.37 251.488 470.602 255.096 470.602 255.096C470.602 255.096 463.793 247.22 465.102 242.138C466.411 237.056 471.812 231.457 476.388 232.645C480.964 233.833 482.977 241.324 481.668 246.406Z" fill="#009DDC"/>
<path d="M442.497 322.339C448.624 324.726 452.397 335.539 452.397 335.539C452.397 335.539 442.288 341.039 436.161 338.597C430.034 336.155 423.5 329.5 425.282 325.023C427.064 320.546 436.359 319.952 442.497 322.339Z" fill="#009DDC"/>
<path d="M455.939 262.686C457.178 263.727 458.599 264.529 460.13 265.051C460.903 265.298 461.73 265.325 462.518 265.131C463.306 264.937 464.025 264.529 464.596 263.951C465.905 262.444 465.553 260.101 464.728 258.275C463.089 254.667 457.028 248.54 452.408 250.3C445.709 252.885 452.947 260.464 455.939 262.686Z" fill="#009DDC"/>
<path d="M469.7 271.882C468.82 272.982 467.885 274.346 468.369 275.655C468.644 276.214 469.096 276.667 469.656 276.942C470.215 277.216 470.85 277.298 471.46 277.173C472.667 276.887 473.795 276.335 474.76 275.556C477.125 273.906 481.976 270.463 478.874 267.24C475.772 264.017 471.493 269.583 469.7 271.882Z" fill="#009DDC"/>
<path d="M449.9 226.023C449.391 226.051 448.903 226.239 448.508 226.561C448.112 226.883 447.83 227.323 447.7 227.816C447.491 228.982 448.47 230.016 449.405 230.742C451.759 232.546 458.821 237.43 460.405 232.722C461.835 228.3 452.98 225.671 449.9 226.023Z" fill="#009DDC"/>
<path d="M462.869 210.524C461.417 210.656 459.965 210.128 458.469 210.227C456.973 210.326 455.389 211.492 455.719 212.922C456.049 214.352 457.655 214.671 459.019 214.759C461.325 214.905 463.64 214.746 465.905 214.286C466.443 214.238 466.943 213.986 467.302 213.582C467.896 212.713 466.95 211.547 465.949 211.239C464.91 211.107 463.889 210.863 462.902 210.513L462.869 210.524Z" fill="#009DDC"/>
<path d="M477.103 220.6C478.566 220.6 479.974 220.017 481.437 220.006C482.9 219.995 484.594 221.106 484.363 222.514C484.132 223.922 482.548 224.406 481.206 224.571C478.917 224.879 476.598 224.879 474.309 224.571C473.769 224.562 473.253 224.346 472.868 223.966C472.219 223.141 473.088 221.909 474.067 221.535C475.095 221.339 476.099 221.029 477.059 220.611L477.103 220.6Z" fill="#009DDC"/>
<path d="M475.662 328.279C475.989 327.931 476.43 327.712 476.905 327.663C477.218 327.697 477.51 327.835 477.735 328.054C477.96 328.273 478.106 328.562 478.148 328.873C478.215 329.5 478.132 330.133 477.906 330.721C476.916 334.021 465.806 358.045 463.232 353.733C461.714 351.192 465.432 342.733 466.532 340.357C468.652 335.71 471.769 331.586 475.662 328.279Z" fill="#009DDC"/>
<path d="M469.007 211.437C469.887 209.457 470.844 207.378 472.604 206.102C474.364 204.826 477.169 204.727 478.445 206.487C479.875 208.445 478.445 211.426 476.245 212.471C474.045 213.516 471.493 213.197 469.084 212.867C469.084 212.504 469.084 212.152 469.029 211.767L469.007 211.437Z" fill="#009DDC"/>
<g opacity="0.6">
<path opacity="0.6" d="M460.559 360.498L459.635 360.608C459.58 360.146 454.003 313.495 465.509 275.38C476.938 237.496 469.062 213.362 468.985 213.12L469.865 212.823C469.942 213.065 477.906 237.485 466.389 275.655C454.949 313.572 460.504 360.036 460.559 360.498Z" fill="white"/>
<path opacity="0.6" d="M470.624 218.312C468.633 215.94 465.934 214.267 462.924 213.538L463.133 212.636C466.352 213.406 469.24 215.187 471.372 217.718L470.624 218.312Z" fill="white"/>
<path opacity="0.6" d="M474.564 222.176L471.911 223.675L472.366 224.479L475.018 222.98L474.564 222.176Z" fill="white"/>
<path opacity="0.6" d="M469.623 243.7C467.315 238.445 463.043 234.3 457.721 232.15L458.073 231.292C463.617 233.537 468.068 237.853 470.481 243.326L469.623 243.7Z" fill="white"/>
<path opacity="0.6" d="M467.148 272.817H466.224C466.191 270.941 465.744 269.096 464.915 267.413C464.086 265.73 462.895 264.251 461.428 263.082L462 262.4C463.571 263.651 464.847 265.233 465.737 267.034C466.627 268.835 467.109 270.809 467.148 272.817Z" fill="white"/>
<path opacity="0.6" d="M465.08 280.275L464.222 279.934C464.696 278.753 465.407 277.682 466.311 276.787C467.216 275.892 468.294 275.192 469.48 274.731L469.81 275.6C468.743 276.013 467.773 276.641 466.959 277.446C466.145 278.25 465.506 279.213 465.08 280.275Z" fill="white"/>
<path opacity="0.6" d="M459.085 327.542L458.37 326.959C459.47 325.595 460.35 320.425 460.801 317.653C460.911 316.982 461.01 316.421 461.087 316.014L462 316.179C461.923 316.586 461.824 317.147 461.714 317.796C461.032 321.943 460.273 326.112 459.085 327.542Z" fill="white"/>
<path opacity="0.6" d="M458.546 342.392C457.908 340.578 456.714 339.012 455.134 337.916C453.554 336.82 451.669 336.25 449.746 336.287V335.363C451.877 335.311 453.969 335.935 455.722 337.147C457.475 338.359 458.799 340.095 459.503 342.106L458.546 342.392Z" fill="white"/>
<path opacity="0.6" d="M465.621 352.093L459.097 359.393L459.786 360.009L466.31 352.709L465.621 352.093Z" fill="white"/>
<path opacity="0.6" d="M470.228 304.475C471.713 309.26 461.428 318.368 461.428 318.368C461.428 318.368 447.7 316.652 446.27 311.9C444.84 307.148 448.25 299.283 454.872 297.237C461.494 295.191 468.754 299.69 470.228 304.475Z" fill="white"/>
<path opacity="0.6" d="M481.668 246.406C480.37 251.488 470.602 255.096 470.602 255.096C470.602 255.096 463.793 247.22 465.102 242.138C466.411 237.056 471.812 231.457 476.388 232.645C480.964 233.833 482.977 241.324 481.668 246.406Z" fill="white"/>
<path opacity="0.6" d="M442.497 322.339C448.624 324.726 452.397 335.539 452.397 335.539C452.397 335.539 442.288 341.039 436.161 338.597C430.034 336.155 423.5 329.5 425.282 325.023C427.064 320.546 436.359 319.952 442.497 322.339Z" fill="white"/>
<path opacity="0.6" d="M455.939 262.686C457.178 263.727 458.599 264.529 460.13 265.051C460.903 265.298 461.73 265.325 462.518 265.131C463.306 264.937 464.025 264.529 464.596 263.951C465.905 262.444 465.553 260.101 464.728 258.275C463.089 254.667 457.028 248.54 452.408 250.3C445.709 252.885 452.947 260.464 455.939 262.686Z" fill="white"/>
<path opacity="0.6" d="M469.7 271.882C468.82 272.982 467.885 274.346 468.369 275.655C468.644 276.214 469.096 276.667 469.656 276.942C470.215 277.216 470.85 277.298 471.46 277.173C472.667 276.887 473.795 276.335 474.76 275.556C477.125 273.906 481.976 270.463 478.874 267.24C475.772 264.017 471.493 269.583 469.7 271.882Z" fill="white"/>
<path opacity="0.6" d="M449.9 226.023C449.391 226.051 448.903 226.239 448.508 226.561C448.112 226.883 447.83 227.323 447.7 227.816C447.491 228.982 448.47 230.016 449.405 230.742C451.759 232.546 458.821 237.43 460.405 232.722C461.835 228.3 452.98 225.671 449.9 226.023Z" fill="white"/>
<path opacity="0.6" d="M462.869 210.524C461.417 210.656 459.965 210.128 458.469 210.227C456.973 210.326 455.389 211.492 455.719 212.922C456.049 214.352 457.655 214.671 459.019 214.759C461.325 214.905 463.64 214.746 465.905 214.286C466.443 214.238 466.943 213.986 467.302 213.582C467.896 212.713 466.95 211.547 465.949 211.239C464.91 211.107 463.889 210.863 462.902 210.513L462.869 210.524Z" fill="white"/>
<path opacity="0.6" d="M477.103 220.6C478.566 220.6 479.974 220.017 481.437 220.006C482.9 219.995 484.594 221.106 484.363 222.514C484.132 223.922 482.548 224.406 481.206 224.571C478.917 224.879 476.598 224.879 474.309 224.571C473.769 224.562 473.253 224.346 472.868 223.966C472.219 223.141 473.088 221.909 474.067 221.535C475.095 221.339 476.099 221.029 477.059 220.611L477.103 220.6Z" fill="white"/>
<path opacity="0.6" d="M475.662 328.279C475.989 327.931 476.43 327.712 476.905 327.663C477.218 327.697 477.51 327.835 477.735 328.054C477.96 328.273 478.106 328.562 478.148 328.873C478.215 329.5 478.132 330.133 477.906 330.721C476.916 334.021 465.806 358.045 463.232 353.733C461.714 351.192 465.432 342.733 466.532 340.357C468.652 335.71 471.769 331.586 475.662 328.279Z" fill="white"/>
<path opacity="0.6" d="M469.007 211.437C469.887 209.457 470.844 207.378 472.604 206.102C474.364 204.826 477.169 204.727 478.445 206.487C479.875 208.445 478.445 211.426 476.245 212.471C474.045 213.516 471.493 213.197 469.084 212.867C469.084 212.504 469.084 212.152 469.029 211.767L469.007 211.437Z" fill="white"/>
</g>
<path d="M476.542 391.991C464.859 394.741 452.696 394.741 441.012 391.991L435.512 351.214H482.086L476.542 391.991Z" fill="#263238"/>
<g opacity="0.8">
<path opacity="0.8" d="M476.542 391.991C464.859 394.741 452.696 394.741 441.012 391.991L435.512 351.214H482.086L476.542 391.991Z" fill="white"/>
</g>
<path d="M348.568 158.923C346.159 166.524 348.799 185.114 341.231 189.943C338.01 191.922 335.383 194.733 333.627 198.081C331.871 201.428 331.051 205.188 331.254 208.962C336.182 202.153 344.377 198.27 352.671 196.862C360.965 195.454 369.457 196.29 377.806 197.269C381.744 197.731 400.136 203.572 399.135 207.411C405.053 198.611 398.31 159.011 395.637 148.693C394.834 145.602 396.396 141.246 393.349 140.311C386.298 138.111 371.03 133.832 355.586 143.765C349.382 147.769 350.119 154.061 348.568 158.923Z" fill="#009DDC"/>
<g opacity="0.5">
<path opacity="0.5" d="M348.568 158.923C346.159 166.524 348.799 185.114 341.231 189.943C338.01 191.922 335.383 194.733 333.627 198.081C331.871 201.428 331.051 205.188 331.254 208.962C336.182 202.153 344.377 198.27 352.671 196.862C360.965 195.454 369.457 196.29 377.806 197.269C381.744 197.731 400.136 203.572 399.135 207.411C405.053 198.611 398.31 159.011 395.637 148.693C394.834 145.602 396.396 141.246 393.349 140.311C386.298 138.111 371.03 133.832 355.586 143.765C349.382 147.769 350.119 154.061 348.568 158.923Z" fill="black"/>
</g>
<path d="M311.377 146.559L307.307 136.219L302.313 143.974C302.313 143.974 304.942 149.232 308.143 149.474L311.377 146.559Z" fill="#DD8C6A"/>
<path d="M300.3 133.92L298.738 135.669C298.283 136.186 298.025 136.846 298.009 137.534C297.993 138.222 298.22 138.894 298.65 139.431L302.28 143.963L307.274 136.263L304.458 133.7C304.174 133.435 303.839 133.23 303.474 133.097C303.109 132.964 302.72 132.907 302.332 132.927C301.944 132.948 301.564 133.046 301.215 133.217C300.866 133.387 300.555 133.627 300.3 133.92Z" fill="#DD8C6A"/>
<path d="M303.6 142.764L302.313 141.994C301.663 141.61 301.071 141.136 300.553 140.586L300.355 139.684C300.513 139.459 300.74 139.29 301.001 139.203C301.263 139.116 301.545 139.115 301.807 139.2L302.907 139.574L308.407 140.333V142.643L306.658 145.03H306.097C305.472 145.035 304.868 144.805 304.406 144.385C303.943 143.965 303.655 143.386 303.6 142.764Z" fill="#DD8C6A"/>
<path d="M346.368 149.628C346.368 149.628 335.984 157.482 328.042 164.764C328.042 164.764 313.258 149.463 311.135 145.635L306.988 149.243C308.612 154.695 310.791 159.966 313.489 164.973C314.807 167.214 316.42 169.267 318.285 171.078C319.411 172.155 320.704 173.043 322.113 173.707C323.897 174.553 325.898 174.83 327.844 174.499C328.345 174.411 328.838 174.282 329.318 174.114L330.253 173.773L331.947 173.124C333.047 172.706 334.147 172.189 335.247 171.716C337.466 170.703 339.629 169.572 341.726 168.328C343.838 167.062 345.876 165.677 347.831 164.181C348.843 163.4 349.756 162.597 350.702 161.728C351.164 161.31 351.637 160.848 352.088 160.386L352.77 159.66C353.023 159.385 353.199 159.176 353.551 158.769L346.368 149.628Z" fill="#009DDC"/>
<path d="M356.521 143.677C352.77 142.753 326.249 166.348 326.249 166.348L330.253 173.773C330.253 173.773 354.332 163.73 361.724 152.873C361.108 147.714 361.999 145.041 356.521 143.677Z" fill="#009DDC"/>
<path opacity="0.2" d="M355.927 151.839L352.759 161.409C339.702 170.462 335.291 171.716 335.291 171.716L355.927 151.839Z" fill="black"/>
<path d="M359.271 386.249L350.229 386.579L348.689 365.558L357.731 365.239L359.271 386.249Z" fill="#DD8C6A"/>
<path d="M346.555 387.734C346.598 387.728 346.638 387.709 346.669 387.68C346.701 387.65 346.722 387.612 346.731 387.569C346.735 387.524 346.727 387.479 346.707 387.439C346.688 387.398 346.658 387.363 346.621 387.338C346.225 387.118 342.661 385.138 341.528 385.732C341.424 385.787 341.335 385.867 341.269 385.965C341.204 386.063 341.164 386.176 341.154 386.293C341.115 386.491 341.126 386.694 341.185 386.886C341.245 387.078 341.351 387.253 341.495 387.393C342.136 387.846 342.912 388.067 343.695 388.02C344.655 388.013 345.612 387.917 346.555 387.734ZM342.155 386.051C343.471 386.291 344.737 386.756 345.895 387.426C343.871 387.69 342.386 387.558 341.847 387.052C341.759 386.96 341.693 386.848 341.655 386.726C341.617 386.604 341.607 386.475 341.627 386.348C341.631 386.3 341.647 386.253 341.674 386.213C341.701 386.172 341.738 386.14 341.781 386.117C341.909 386.061 342.05 386.042 342.188 386.062L342.155 386.051Z" fill="#009DDC"/>
<path d="M346.687 387.69C346.712 387.664 346.729 387.632 346.739 387.598C346.749 387.563 346.75 387.527 346.742 387.492C346.742 387.393 346.61 384.929 345.499 383.95C345.337 383.809 345.149 383.703 344.944 383.639C344.74 383.574 344.524 383.553 344.311 383.576C344.127 383.564 343.945 383.616 343.795 383.722C343.645 383.828 343.536 383.982 343.486 384.159C343.288 385.182 345.356 387.206 346.423 387.723H346.5C346.564 387.733 346.63 387.721 346.687 387.69ZM344.487 384.005C344.765 383.985 345.04 384.072 345.257 384.247C345.915 385.053 346.3 386.047 346.357 387.085C345.257 386.403 343.871 384.819 344.003 384.203C344.003 384.203 344.003 384.005 344.421 383.972H344.553L344.487 384.005Z" fill="#009DDC"/>
<path d="M350.9 382.982L359.018 383.829C359.194 383.84 359.358 383.916 359.48 384.042C359.603 384.168 359.673 384.336 359.678 384.511L360.91 395.94C360.91 396.133 360.872 396.324 360.798 396.503C360.724 396.681 360.615 396.843 360.478 396.979C360.341 397.115 360.178 397.222 360 397.295C359.821 397.368 359.629 397.405 359.436 397.403H359.26C355.74 396.996 354.057 396.633 349.591 396.204C346.852 395.94 338.349 396.402 334.697 395.313C331.045 394.224 331.925 390.561 333.597 390.682C338.8 391.111 345.026 388.097 348.282 384.313C348.7 383.994 350.339 382.905 350.9 382.982Z" fill="#263238"/>
<path opacity="0.2" d="M348.689 365.558L349.481 376.393L358.523 376.074L357.742 365.25L348.689 365.558Z" fill="black"/>
<path d="M350.119 154.061C344.432 162.465 350.251 170.231 353.859 196.653L387.717 198.853C388.047 184.751 388.817 173.388 396.517 146.053C396.857 144.861 396.711 143.583 396.111 142.499C395.511 141.415 394.506 140.612 393.316 140.267C392.992 140.177 392.661 140.118 392.326 140.091C389.521 139.926 386.001 139.805 382.426 139.937C376.759 140.047 371.107 140.543 365.508 141.422C362.465 141.966 359.46 142.701 356.51 143.622C354.75 144.172 352.352 148.77 350.119 154.061Z" fill="white"/>
<path d="M352.495 198.336C352.495 198.336 328.977 243.513 333.146 307.115C332.453 322.284 348.117 369.892 348.117 369.892H360.349C360.349 369.892 361.064 300.823 363 282.893C366.146 253.534 378.268 199.436 378.268 199.436L352.495 198.336Z" fill="#009DDC"/>
<path d="M362.571 373.258L345.334 373.203L344.091 367.945L363.396 367.373L362.571 373.258Z" fill="#009DDC"/>
<path opacity="0.4" d="M362.571 373.258L345.334 373.203L344.091 367.945L363.396 367.373L362.571 373.258Z" fill="white"/>
<path opacity="0.2" d="M361.724 305.157C357.742 303.441 346.874 294.817 349.998 273.664L362.098 222.679L361.724 305.157Z" fill="black"/>
<path d="M386.76 291.792C376.596 261.289 400.895 221.623 388.113 200.052L366.982 199.7C366.982 199.7 339.889 294.135 370.634 306.983L386.76 291.792Z" fill="#009DDC"/>
<path d="M434.797 182.694C436.106 184.894 443.487 183.937 443.487 183.937L445.61 174.994L436.425 178.019L434.797 182.694Z" fill="#DD8C6A"/>
<path d="M445.599 174.917L443.487 183.937L448.987 185.367C449.274 185.41 449.567 185.346 449.81 185.188C450.053 185.03 450.23 184.788 450.307 184.509L452.793 177.909C452.835 177.754 452.816 177.59 452.741 177.449C452.665 177.307 452.538 177.201 452.386 177.15L445.599 174.917Z" fill="#DD8C6A"/>
<path d="M436.425 178.008L434.808 182.694C434.808 182.694 422.961 183.574 413.908 182.331H413.831C410.652 182.012 402.6 180.56 399.19 174.433C394.339 165.71 388.531 154.633 388.432 151.047C388.245 143.347 391.611 138.452 395.032 140.817C401.94 145.657 407.869 162.982 411.235 170.011L419.287 172.563L436.425 178.008Z" fill="#009DDC"/>
<path d="M434.841 352.611L427.922 358.474L411.95 344.526L418.231 337.046L434.841 352.611Z" fill="#DD8C6A"/>
<path d="M425.095 355.24L429.66 348.464C429.756 348.315 429.903 348.207 430.074 348.16C430.244 348.113 430.426 348.131 430.584 348.211L441.254 352.49C441.425 352.581 441.575 352.705 441.697 352.855C441.819 353.004 441.911 353.177 441.966 353.362C442.021 353.547 442.039 353.741 442.019 353.933C441.999 354.125 441.941 354.312 441.848 354.481L441.76 354.624C439.747 357.55 438.625 358.859 436.15 362.599C434.632 364.898 431.046 372.62 428.373 375.337C425.7 378.054 422.873 375.535 423.742 374.171C426.558 369.771 426.822 362.874 425.018 358.221C424.855 357.231 424.882 356.22 425.095 355.24Z" fill="#263238"/>
<path opacity="0.2" d="M413.699 332.58L407.022 340.379L417.428 349.3L424.116 342.557L413.699 332.58Z" fill="black"/>
<path d="M360.855 296.819C362.34 314.518 411.719 348.607 411.719 348.607L421.025 339.07C421.025 339.07 386.133 298.447 386.76 291.77L360.855 296.819Z" fill="#009DDC"/>
<path d="M422.785 337.233L410.795 349.773L405.713 347.177L419.991 332.272L422.785 337.233Z" fill="#009DDC"/>
<path opacity="0.4" d="M422.785 337.233L410.795 349.773L405.713 347.177L419.991 332.272L422.785 337.233Z" fill="white"/>
<path d="M425.392 357.891C425.411 357.856 425.421 357.816 425.421 357.776C425.421 357.735 425.411 357.696 425.392 357.66C425.367 357.625 425.33 357.598 425.289 357.585C425.248 357.571 425.203 357.57 425.161 357.583C424.842 357.682 421.652 358.595 421.333 359.706C421.291 359.831 421.285 359.964 421.314 360.092C421.343 360.22 421.407 360.338 421.498 360.432C421.626 360.598 421.794 360.73 421.986 360.814C422.179 360.899 422.389 360.934 422.598 360.916L422.697 360.861C423.709 360.663 424.798 358.925 425.392 357.891ZM424.721 358.144C423.929 359.563 423.093 360.344 422.521 360.465C422.384 360.474 422.247 360.449 422.122 360.391C421.997 360.333 421.888 360.245 421.806 360.135C421.764 360.094 421.734 360.044 421.716 359.988C421.699 359.932 421.696 359.873 421.707 359.816C421.883 359.211 423.5 358.518 424.754 358.133L424.721 358.144Z" fill="#009DDC"/>
<path d="M425.26 358.012C425.296 358 425.329 357.98 425.355 357.953C425.382 357.927 425.402 357.894 425.414 357.858C425.415 357.82 425.405 357.782 425.385 357.749C425.366 357.716 425.338 357.689 425.304 357.671C425.216 357.605 423.247 355.878 421.938 356.054C421.773 356.063 421.612 356.11 421.467 356.19C421.322 356.27 421.198 356.381 421.102 356.516C420.998 356.65 420.941 356.814 420.941 356.984C420.941 357.153 420.998 357.318 421.102 357.451C421.696 358.188 423.819 358.309 424.93 358.078C425.042 358.066 425.152 358.044 425.26 358.012ZM421.96 356.439H422.026C423.039 356.556 423.988 356.996 424.732 357.693C423.632 357.88 421.85 357.693 421.432 357.176C421.377 357.088 421.322 356.967 421.432 356.747C421.481 356.667 421.546 356.597 421.624 356.544C421.702 356.491 421.79 356.455 421.883 356.439H421.96Z" fill="#009DDC"/>
<path d="M387.948 197.148L388.674 200.448C388.784 200.712 388.476 200.954 388.047 200.921L353.1 198.721C352.77 198.721 352.506 198.512 352.495 198.314L352.374 195.014C352.374 194.794 352.671 194.607 353.034 194.64L387.365 196.84C387.48 196.838 387.594 196.865 387.696 196.919C387.798 196.973 387.885 197.052 387.948 197.148Z" fill="#263238"/>
<path d="M381.018 200.8L382.03 200.866C382.228 200.866 382.393 200.789 382.382 200.657L382.195 196.345C382.195 196.224 382.019 196.114 381.81 196.103L380.798 196.026C380.611 196.026 380.446 196.114 380.457 196.246L380.644 200.547C380.655 200.712 380.82 200.8 381.018 200.8Z" fill="#009DDC"/>
<path d="M355.784 199.26L356.807 199.326C356.994 199.326 357.159 199.249 357.148 199.117L356.961 194.816C356.961 194.684 356.785 194.574 356.598 194.563L355.586 194.497C355.388 194.497 355.223 194.574 355.234 194.695L355.421 199.007C355.421 199.139 355.586 199.249 355.784 199.26Z" fill="#009DDC"/>
<path d="M367.4 199.964L368.412 200.03C368.61 200.03 368.775 199.942 368.764 199.821L368.5 195.52C368.5 195.388 368.335 195.278 368.137 195.267L367.125 195.201C366.938 195.201 366.773 195.278 366.784 195.399L366.971 199.7C366.982 199.832 367.136 199.953 367.4 199.964Z" fill="#009DDC"/>
<path d="M382.019 121.457C380.6 126.902 378.917 136.802 382.47 140.047C382.47 140.047 380.622 145.613 370.513 146.493C359.348 147.472 365.552 141.532 365.552 141.532C371.712 139.519 371.844 135.163 371.052 131.082L382.019 121.457Z" fill="#DD8C6A"/>
<path d="M382.437 139.992C377.079 140.002 371.729 140.41 366.432 141.213L360.69 142.5C359.172 145.129 359.04 151.3 365.321 152.763C365.321 152.763 378.18 155.37 384.934 144.062C385.175 143.636 385.298 143.153 385.291 142.664C385.283 142.174 385.145 141.696 384.89 141.277C384.636 140.859 384.274 140.516 383.843 140.285C383.411 140.053 382.926 139.94 382.437 139.959V139.992Z" fill="#DD8C6A"/>
<path opacity="0.2" d="M377.553 125.395L371.063 131.082C371.26 132.038 371.371 133.01 371.393 133.986C373.736 133.458 377.597 131.148 377.993 128.739C378.074 127.606 377.924 126.469 377.553 125.395Z" fill="black"/>
<path d="M375.837 97.4001C375.045 99.2839 373.6 100.819 371.767 101.723C370.667 102.218 367.367 103.659 366.355 104.792C364.617 106.684 363.583 98.3791 368.038 96.1791C372.493 93.9791 378.059 92.6041 375.837 97.4001Z" fill="#263238"/>
<path d="M371.448 131.731C370.894 132.124 370.256 132.383 369.585 132.488C368.914 132.593 368.227 132.541 367.579 132.337C366.932 132.132 366.34 131.78 365.851 131.309C365.362 130.837 364.988 130.259 364.76 129.619C363.931 129.759 363.079 129.682 362.289 129.395C361.498 129.107 360.796 128.62 360.25 127.98C359.67 127.282 359.267 126.455 359.076 125.568C358.884 124.682 358.91 123.762 359.15 122.887C359.909 120.964 361.223 119.31 362.923 118.135C364.453 123.077 367.243 127.535 371.019 131.071L371.448 131.731Z" fill="#263238"/>
<path d="M389.213 114.912C385.968 123.305 384.813 126.935 379.016 129.96C370.403 134.514 360.745 128.695 361.416 119.499C362.01 111.227 367.213 98.8741 376.717 98.1151C378.806 97.9346 380.906 98.292 382.817 99.1532C384.728 100.014 386.387 101.351 387.636 103.035C388.884 104.719 389.68 106.695 389.949 108.774C390.217 110.853 389.949 112.966 389.169 114.912H389.213Z" fill="#DD8C6A"/>
<path d="M368.852 112.294C367.798 113.744 366.547 115.04 365.134 116.144C365.431 116.489 365.8 116.766 366.213 116.956C366.627 117.145 367.077 117.244 367.532 117.244L368.852 112.294Z" fill="#DE5753"/>
<path d="M389.719 122.172C388.637 123.543 387.054 124.43 385.319 124.636C383.02 124.9 382.272 122.766 383.185 120.786C384.032 119.015 386.243 116.738 388.399 117.398C388.769 117.517 389.111 117.707 389.407 117.958C389.703 118.209 389.946 118.517 390.123 118.862C390.3 119.207 390.407 119.584 390.437 119.971C390.468 120.358 390.422 120.747 390.302 121.116C390.18 121.503 389.982 121.862 389.719 122.172Z" fill="#DD8C6A"/>
<path d="M378.73 110.765C378.64 110.77 378.551 110.747 378.475 110.697C378.4 110.648 378.343 110.575 378.312 110.49C377.597 108.587 375.133 107.971 375.111 107.96C375.051 107.953 374.992 107.933 374.94 107.901C374.888 107.869 374.844 107.827 374.809 107.777C374.775 107.727 374.751 107.67 374.741 107.61C374.73 107.55 374.732 107.488 374.747 107.429C374.762 107.37 374.789 107.315 374.827 107.267C374.865 107.219 374.913 107.18 374.967 107.152C375.021 107.125 375.081 107.109 375.142 107.106C375.203 107.103 375.263 107.113 375.32 107.135C375.452 107.135 378.257 107.916 379.126 110.204C379.148 110.257 379.158 110.313 379.158 110.37C379.157 110.427 379.145 110.483 379.123 110.535C379.1 110.587 379.067 110.635 379.026 110.674C378.985 110.714 378.937 110.744 378.884 110.765H378.73Z" fill="#263238"/>
<path d="M365.794 106.2C365.721 106.199 365.649 106.18 365.585 106.143C365.522 106.106 365.469 106.054 365.431 105.991C365.402 105.943 365.383 105.889 365.374 105.834C365.366 105.778 365.37 105.721 365.384 105.667C365.398 105.612 365.424 105.561 365.458 105.517C365.493 105.472 365.536 105.435 365.585 105.408C366.174 105.059 366.837 104.855 367.519 104.813C368.202 104.771 368.885 104.892 369.512 105.166C369.563 105.191 369.608 105.225 369.645 105.267C369.682 105.31 369.71 105.359 369.727 105.412C369.745 105.466 369.751 105.522 369.746 105.578C369.742 105.634 369.726 105.688 369.699 105.738C369.647 105.841 369.557 105.919 369.448 105.956C369.339 105.993 369.22 105.986 369.116 105.936C368.621 105.719 368.081 105.626 367.542 105.666C367.003 105.706 366.482 105.878 366.025 106.167C365.951 106.194 365.873 106.205 365.794 106.2Z" fill="#263238"/>
<path d="M365.992 109.676C365.508 109.555 364.969 110.072 364.793 110.776C364.617 111.48 364.87 112.228 365.343 112.338C365.816 112.448 366.366 111.942 366.542 111.238C366.718 110.534 366.476 109.797 365.992 109.676Z" fill="#263238"/>
<path d="M364.54 108.84L366.201 109.786C365.123 110.457 364.54 108.84 364.54 108.84Z" fill="#263238"/>
<path d="M374.363 111.942C373.879 111.821 373.34 112.338 373.164 113.042C372.988 113.746 373.241 114.494 373.714 114.604C374.187 114.714 374.737 114.208 374.913 113.504C375.089 112.8 374.847 112.063 374.363 111.942Z" fill="#263238"/>
<path d="M372.9 111.106L374.561 112.052C373.494 112.723 372.9 111.106 372.9 111.106Z" fill="#263238"/>
<path d="M366.41 120.5C366.544 121.804 366.581 123.117 366.52 124.427L367.202 124.57C370.282 125.175 371.91 124.438 372.779 123.47C373.191 122.972 373.481 122.384 373.626 121.754C373.719 121.395 373.76 121.025 373.747 120.654C371.921 121.303 369.006 120.962 367.466 120.654C366.817 120.632 366.41 120.5 366.41 120.5Z" fill="#263238"/>
<path d="M367.466 120.72L367.521 121.886C370.425 122.447 372.548 122.458 373.626 121.754C373.719 121.395 373.76 121.025 373.747 120.654C371.921 121.314 369.006 120.973 367.466 120.72Z" fill="white"/>
<path d="M367.202 124.603C370.282 125.208 371.91 124.471 372.779 123.503C371.604 123.294 370.401 123.294 369.226 123.503C368.452 123.647 367.744 124.032 367.202 124.603Z" fill="#DE5753"/>
<path d="M376.618 94.5841C378.576 92.7801 381.711 92.8461 384.098 94.0231C386.407 95.3613 388.42 97.1537 390.016 99.2921C393.008 102.79 396.044 106.431 397.474 110.809C398.904 115.187 398.365 120.522 394.966 123.624C393.965 124.537 392.766 125.219 391.809 126.176C391.298 126.618 390.905 127.18 390.667 127.812C390.429 128.444 390.352 129.126 390.445 129.795C390.753 131.115 392.48 131.995 393.547 131.203C392.769 132.085 391.7 132.657 390.535 132.817C389.37 132.976 388.187 132.712 387.2 132.072C386.476 132.774 385.564 133.252 384.574 133.447C383.585 133.642 382.56 133.547 381.623 133.172C379.775 132.402 375.672 129.773 376.541 125.802C378.741 125.439 384.725 120.533 385.121 117.64C385.517 114.747 385.044 108.95 383.79 106.31C383.46 107.41 382.019 107.245 381.051 106.695C380.149 106.033 379.458 105.123 379.06 104.077C378.555 103.095 377.868 102.218 377.036 101.492C374.308 99.0171 372.559 101.987 371.767 101.701C372.372 98.8851 374.506 96.5311 376.618 94.5841Z" fill="#263238"/>
<path opacity="0.2" d="M378.059 203.308C378.805 206.609 379.251 209.97 379.39 213.351C379.561 216.35 379.454 219.359 379.071 222.338C381.103 216.088 380.742 209.307 378.059 203.308Z" fill="black"/>
<path opacity="0.2" d="M358.534 202.131C356.136 208.284 353.734 214.425 351.329 220.556C352.069 213.888 354.554 207.532 358.534 202.131Z" fill="black"/>
<path d="M387.64 151.465C387.64 151.465 396.22 168.856 398.2 187.875C399.993 205.211 399.135 207.422 399.135 207.422C399.135 207.422 402.611 204.122 401.797 186.071C401.157 173.412 399.09 160.866 395.637 148.671C392.92 149.448 390.25 150.381 387.64 151.465Z" fill="#009DDC"/>
<path d="M387.816 152.026L382.437 139.992L381.018 137.682C385.187 138.261 389.308 139.143 393.349 140.322C392.02 142.773 390.944 145.353 390.137 148.022C389.708 149.265 389.268 152.114 387.816 152.026Z" fill="#009DDC"/>
<path d="M350.966 152.114C350.966 152.114 360.866 141.4 370.634 138.001C370.634 138.001 364.034 138.485 355.586 143.776C355.586 143.776 351.593 148.088 350.966 152.114Z" fill="#009DDC"/>
</g>
<defs>
<clipPath id="clip0_2601_8452">
<rect width="550" height="405" fill="white"/>
</clipPath>
</defs>
</svg>
