<svg width="550" height="410" viewBox="0 0 550 410" fill="none" xmlns="http://www.w3.org/2000/svg">
<g clip-path="url(#clip0_2601_8710)">
<path d="M550 360.64H0V360.915H550V360.64Z" fill="#EBEBEB"/>
<path d="M464.816 368.131H436.249V368.406H464.816V368.131Z" fill="#EBEBEB"/>
<path d="M347.226 370.111H337.667V370.386H347.226V370.111Z" fill="#EBEBEB"/>
<path d="M494.89 378.339H473.781V378.614H494.89V378.339Z" fill="#EBEBEB"/>
<path d="M75.5811 369.979H57.7061V370.254H75.5811V369.979Z" fill="#EBEBEB"/>
<path d="M121.979 369.979H81.4658V370.254H121.979V369.979Z" fill="#EBEBEB"/>
<path d="M324.874 374.621H221.826V374.896H324.874V374.621Z" fill="#EBEBEB"/>
<path d="M260.7 311.58H48.3008C46.6368 311.577 45.0421 310.914 43.8665 309.736C42.691 308.559 42.0308 306.963 42.0308 305.299V6.726C42.0452 5.07163 42.7119 3.48978 43.8858 2.32404C45.0598 1.1583 46.6463 0.502834 48.3008 0.5H260.7C262.366 0.5 263.963 1.16175 265.141 2.33966C266.319 3.51758 266.981 5.11517 266.981 6.781V305.299C266.981 306.965 266.319 308.562 265.141 309.74C263.963 310.918 262.366 311.58 260.7 311.58ZM48.3008 0.720001C46.7098 0.722915 45.185 1.35697 44.061 2.483C42.937 3.60903 42.3058 5.13501 42.3058 6.726V305.299C42.3058 306.89 42.937 308.416 44.061 309.542C45.185 310.668 46.7098 311.302 48.3008 311.305H260.7C262.292 311.302 263.818 310.668 264.943 309.543C266.069 308.417 266.703 306.891 266.706 305.299V6.726C266.703 5.134 266.069 3.60804 264.943 2.48233C263.818 1.35661 262.292 0.722909 260.7 0.720001H48.3008Z" fill="#EBEBEB"/>
<path d="M498.641 311.58H286.231C284.566 311.577 282.97 310.914 281.793 309.737C280.616 308.56 279.953 306.964 279.95 305.299V6.726C279.968 5.07062 280.637 3.48878 281.812 2.32335C282.988 1.15792 284.576 0.502803 286.231 0.5H498.641C500.294 0.505725 501.877 1.16247 503.049 2.3279C504.221 3.49333 504.886 5.07353 504.9 6.726V305.299C504.9 306.961 504.241 308.555 503.068 309.733C501.895 310.91 500.303 311.574 498.641 311.58ZM286.231 0.720001C284.639 0.722909 283.113 1.35661 281.988 2.48233C280.862 3.60804 280.228 5.134 280.225 6.726V305.299C280.228 306.891 280.862 308.417 281.988 309.543C283.113 310.668 284.639 311.302 286.231 311.305H498.641C500.233 311.302 501.759 310.668 502.885 309.543C504.011 308.417 504.644 306.891 504.647 305.299V6.726C504.644 5.134 504.011 3.60804 502.885 2.48233C501.759 1.35661 500.233 0.722909 498.641 0.720001H286.231Z" fill="#EBEBEB"/>
<path d="M296.626 360.64H324.137V185.3H296.626V360.64Z" fill="#EBEBEB"/>
<path d="M301.862 360.64H296.637V337.023H307.34L301.862 360.64Z" fill="#F5F5F5"/>
<path d="M453.607 360.64H481.118V185.3H453.607V360.64Z" fill="#EBEBEB"/>
<path d="M296.626 346.153H458.172V185.3L296.626 185.3V346.153Z" fill="#F5F5F5"/>
<path d="M452.804 317.3H404.921C404.754 317.3 404.593 317.234 404.474 317.117C404.355 317 404.286 316.84 404.283 316.673V193C404.283 192.831 404.35 192.668 404.47 192.549C404.59 192.429 404.752 192.362 404.921 192.362H413.721C413.824 192.362 413.926 192.389 414.016 192.439C414.107 192.489 414.183 192.561 414.238 192.648C415.358 194.412 416.811 195.94 418.517 197.147C420.138 198.318 422.083 198.956 424.083 198.973H433.554C437.217 198.973 440.704 196.773 443.388 192.648C443.447 192.561 443.525 192.49 443.617 192.44C443.709 192.39 443.812 192.363 443.916 192.362H452.716C452.799 192.362 452.882 192.378 452.959 192.411C453.036 192.443 453.105 192.49 453.163 192.549C453.222 192.609 453.268 192.679 453.299 192.756C453.33 192.834 453.345 192.917 453.343 193V316.629C453.356 316.788 453.307 316.947 453.207 317.071C453.107 317.196 452.963 317.278 452.804 317.3ZM405.504 316.035H452.133V193.66H444.257C441.353 197.928 437.558 200.26 433.554 200.26H424.083C421.829 200.237 419.637 199.523 417.802 198.214C416.065 196.978 414.573 195.43 413.402 193.649H405.526L405.504 316.035Z" fill="#E6E6E6"/>
<path d="M401.346 317.3H353.463C353.296 317.3 353.135 317.234 353.016 317.117C352.897 317 352.828 316.84 352.825 316.673V193C352.825 192.831 352.892 192.668 353.012 192.549C353.132 192.429 353.294 192.362 353.463 192.362H361.823C361.928 192.363 362.03 192.39 362.122 192.44C362.214 192.49 362.293 192.561 362.351 192.648C363.464 194.414 364.915 195.942 366.619 197.147C368.242 198.315 370.186 198.953 372.185 198.973H381.7C385.352 198.973 388.85 196.773 391.534 192.648C391.59 192.561 391.666 192.489 391.756 192.439C391.846 192.389 391.948 192.362 392.051 192.362H401.39C401.473 192.362 401.556 192.378 401.633 192.411C401.709 192.443 401.779 192.49 401.837 192.549C401.896 192.609 401.942 192.679 401.973 192.756C402.004 192.834 402.019 192.917 402.017 193V316.629C402.024 316.719 402.011 316.809 401.979 316.893C401.948 316.978 401.899 317.054 401.835 317.118C401.772 317.181 401.695 317.231 401.611 317.262C401.526 317.294 401.436 317.306 401.346 317.3ZM354.046 316.035H400.675V193.66H392.304C389.4 197.928 385.616 200.26 381.612 200.26H372.141C369.887 200.237 367.695 199.523 365.86 198.214C364.124 196.978 362.632 195.43 361.46 193.649H354.09L354.046 316.035Z" fill="#E6E6E6"/>
<path d="M349.888 317.3H301.994C301.829 317.297 301.671 317.23 301.554 317.113C301.437 316.996 301.37 316.838 301.367 316.673V193C301.367 192.832 301.433 192.672 301.55 192.553C301.667 192.433 301.827 192.365 301.994 192.362H310.365C310.47 192.363 310.572 192.39 310.664 192.44C310.756 192.49 310.835 192.561 310.893 192.648C312.006 194.414 313.456 195.943 315.161 197.147C316.784 198.315 318.728 198.953 320.727 198.973H330.198C333.861 198.973 337.348 196.773 340.043 192.648C340.098 192.561 340.175 192.489 340.265 192.439C340.355 192.389 340.457 192.362 340.56 192.362H349.888C349.971 192.362 350.054 192.378 350.131 192.411C350.208 192.443 350.277 192.49 350.335 192.549C350.394 192.609 350.44 192.679 350.471 192.756C350.502 192.834 350.517 192.917 350.515 193V316.629C350.521 316.715 350.509 316.801 350.481 316.882C350.452 316.964 350.407 317.038 350.348 317.101C350.289 317.164 350.218 317.214 350.139 317.248C350.06 317.282 349.974 317.3 349.888 317.3ZM302.588 316.035H349.217V193.66H340.857C337.953 197.928 334.169 200.26 330.154 200.26H320.683C318.429 200.237 316.237 199.523 314.402 198.214C312.665 196.978 311.173 195.43 310.002 193.649H302.61L302.588 316.035Z" fill="#E6E6E6"/>
<path d="M452.947 360.64H458.172V337.023H447.469L452.947 360.64Z" fill="#F5F5F5"/>
<path d="M431.541 146.547H407.825C404.872 146.547 402.479 148.941 402.479 151.893V179.954C402.479 182.907 404.872 185.3 407.825 185.3H431.541C434.493 185.3 436.887 182.907 436.887 179.954V151.893C436.887 148.941 434.493 146.547 431.541 146.547Z" fill="#EBEBEB"/>
<path d="M447.678 155.49H429.44C427.168 155.49 425.326 157.332 425.326 159.604V181.186C425.326 183.458 427.168 185.3 429.44 185.3H447.678C449.95 185.3 451.792 183.458 451.792 181.186V159.604C451.792 157.332 449.95 155.49 447.678 155.49Z" fill="#F5F5F5"/>
<path d="M310.387 175.587C310.387 175.587 311.234 185.3 343.761 185.3C376.288 185.3 377.124 175.587 377.124 175.587H310.387Z" fill="#F0F0F0"/>
<path d="M185.24 124.041L444.213 124.041V20.707L185.24 20.707V124.041Z" fill="#F0F0F0"/>
<path d="M167.079 124.041L441.056 124.041V20.707L167.079 20.707V124.041Z" fill="#F5F5F5"/>
<path d="M175.23 28.847V115.89L432.916 115.89V28.847L175.23 28.847Z" fill="white"/>
<path d="M164.12 317.641H153.824C153.901 308.753 153.824 263.356 153.109 211.7C152.471 163.817 151.327 144.6 150.359 137.307L158.631 151.2C161.502 162.079 166.331 180.713 166.694 192.153C167.992 228.2 162.943 279.834 164.12 317.641Z" fill="#E6E6E6"/>
<path d="M171.93 144.6C185.647 118.706 213.037 105.187 241.032 92.46C252.032 87.466 221.177 149.44 198.748 177.534C181.324 199.347 164.483 198.863 159.423 220.434C158.455 195.431 160.105 166.952 171.93 144.6Z" fill="#E6E6E6"/>
<path d="M145.893 188.446C133.793 173.134 113.729 169.207 93.3902 165.962C85.4152 164.675 113.19 201.712 131.439 216.793C145.651 228.519 156.97 224.801 162.789 238.793C160.655 221.171 156.365 201.635 145.893 188.446Z" fill="#E6E6E6"/>
<path d="M170.368 217.717C179.817 205.826 195.36 202.779 211.156 200.249C217.36 199.248 195.756 228.024 181.599 239.75C170.599 248.858 161.799 245.965 157.234 256.866C158.895 243.149 162.228 227.969 170.368 217.717Z" fill="#E6E6E6"/>
<path d="M150.931 264.357C144.419 256.316 133.815 254.336 123.035 252.719C118.811 252.081 133.672 271.529 143.429 279.427C150.997 285.554 156.97 283.53 160.116 290.922C158.906 281.594 156.53 271.276 150.931 264.357Z" fill="#E6E6E6"/>
<path d="M157.069 145.601C149.479 120.213 119.526 80.624 88.715 72.484C76.615 69.283 120.098 133.545 134.992 165.522C146.586 190.415 157.487 205.529 159.038 223.371C166.727 200.942 164.648 171 157.069 145.601Z" fill="#E6E6E6"/>
<path d="M156.277 360.64C174.02 360.64 188.694 358.011 189.706 340.29L192.665 310.007H119.9L122.859 340.29C123.86 358 138.523 360.64 156.277 360.64Z" fill="#F0F0F0"/>
<path d="M115.159 316.189H197.384L199.738 299.425H112.816L115.159 316.189Z" fill="#F0F0F0"/>
<path d="M275 410.316C392.791 410.316 488.279 404.741 488.279 397.864C488.279 390.987 392.791 385.412 275 385.412C157.209 385.412 61.7212 390.987 61.7212 397.864C61.7212 404.741 157.209 410.316 275 410.316Z" fill="#F5F5F5"/>
<path d="M334.4 229.443H482.9C491.108 229.374 498.978 226.166 504.896 220.477C510.814 214.789 514.33 207.051 514.723 198.852L517.935 118.992C518.004 117.71 517.81 116.427 517.364 115.223C516.918 114.019 516.23 112.919 515.343 111.992C514.455 111.064 513.387 110.328 512.204 109.829C511.02 109.331 509.748 109.08 508.464 109.092H349.074C346.42 109.112 343.876 110.15 341.966 111.993C340.056 113.835 338.926 116.341 338.811 118.992L335.588 198.852C335.197 207.05 331.684 214.788 325.768 220.476C319.852 226.165 311.983 229.374 303.776 229.443H334.4Z" fill="#009DDC"/>
<path opacity="0.7" d="M334.4 229.443H482.9C491.108 229.374 498.978 226.166 504.896 220.477C510.814 214.789 514.33 207.051 514.723 198.852L517.935 118.992C518.004 117.71 517.81 116.427 517.364 115.223C516.918 114.019 516.23 112.919 515.343 111.992C514.455 111.064 513.387 110.328 512.204 109.829C511.02 109.331 509.748 109.08 508.464 109.092H349.074C346.42 109.112 343.876 110.15 341.966 111.993C340.056 113.835 338.926 116.341 338.811 118.992L335.588 198.852C335.197 207.05 331.684 214.788 325.768 220.476C319.852 226.165 311.983 229.374 303.776 229.443H334.4Z" fill="white"/>
<path opacity="0.6" d="M492.91 144.347H361.559C361.133 144.351 360.711 144.267 360.319 144.1C359.927 143.933 359.574 143.687 359.282 143.377C358.989 143.067 358.764 142.7 358.62 142.299C358.477 141.898 358.417 141.472 358.446 141.047L358.798 132.5C358.838 131.632 359.209 130.813 359.835 130.211C360.462 129.609 361.295 129.271 362.164 129.266H493.515C493.935 129.262 494.351 129.345 494.737 129.508C495.124 129.671 495.473 129.911 495.764 130.214C496.054 130.517 496.28 130.876 496.426 131.269C496.573 131.662 496.638 132.081 496.617 132.5L496.276 141.047C496.248 141.925 495.882 142.757 495.255 143.372C494.628 143.987 493.788 144.336 492.91 144.347Z" fill="white"/>
<path opacity="0.6" d="M493.141 160.484H360.041C359.733 160.494 359.427 160.439 359.141 160.323C358.856 160.207 358.598 160.033 358.385 159.811C358.171 159.589 358.006 159.325 357.901 159.035C357.796 158.746 357.753 158.437 357.775 158.13L357.907 154.896C357.938 154.264 358.209 153.669 358.665 153.231C359.122 152.793 359.728 152.547 360.36 152.542H493.46C493.762 152.541 494.062 152.603 494.339 152.723C494.617 152.843 494.866 153.019 495.073 153.24C495.279 153.461 495.438 153.722 495.539 154.007C495.64 154.292 495.681 154.594 495.66 154.896L495.539 158.13C495.506 158.751 495.242 159.338 494.798 159.773C494.354 160.209 493.763 160.463 493.141 160.484Z" fill="white"/>
<path opacity="0.6" d="M492.657 172.562H359.557C359.249 172.57 358.943 172.514 358.658 172.397C358.373 172.28 358.116 172.104 357.904 171.881C357.691 171.658 357.528 171.393 357.424 171.103C357.32 170.813 357.279 170.504 357.302 170.197L357.434 166.963C357.462 166.332 357.731 165.737 358.186 165.299C358.64 164.861 359.245 164.614 359.876 164.609H492.976C493.278 164.608 493.578 164.67 493.855 164.79C494.133 164.91 494.382 165.086 494.589 165.307C494.795 165.528 494.954 165.789 495.055 166.074C495.156 166.359 495.197 166.661 495.176 166.963L495.044 170.197C495.019 170.82 494.759 171.411 494.316 171.849C493.873 172.288 493.28 172.543 492.657 172.562Z" fill="white"/>
<path d="M457.765 80.3599C456.891 78.3721 455.819 76.4778 454.564 74.7059L455.466 74.0679C456.764 75.8998 457.87 77.8608 458.766 79.9199L457.765 80.3599Z" fill="#009DDC"/>
<path d="M460.42 94.6319L459.626 113.987L460.725 114.032L461.519 94.677L460.42 94.6319Z" fill="#009DDC"/>
<path d="M453.453 198.852L457.655 94.6599C457.85 90.6951 457.233 86.7323 455.843 83.0142C454.452 79.2961 452.317 75.901 449.568 73.037C446.82 70.173 443.515 67.9004 439.857 66.3583C436.2 64.8162 432.265 64.0372 428.296 64.0689H249.249C253.219 64.0356 257.154 64.8135 260.812 66.3551C264.471 67.8966 267.776 70.1692 270.525 73.0336C273.274 75.8979 275.409 79.2936 276.799 83.0124C278.189 86.7312 278.804 90.6947 278.608 94.6599L274.417 198.852C273.735 215.748 294.943 229.443 311.817 229.443H482.812C478.842 229.476 474.907 228.698 471.249 227.157C467.59 225.615 464.285 223.343 461.536 220.478C458.787 217.614 456.652 214.218 455.262 210.499C453.872 206.781 453.257 202.817 453.453 198.852Z" fill="#009DDC"/>
<path d="M420.948 298.49H190.927C189.64 298.5 188.365 298.248 187.179 297.75C185.992 297.251 184.92 296.517 184.027 295.591C183.133 294.664 182.438 293.566 181.983 292.363C181.528 291.159 181.322 289.875 181.379 288.59L187.869 127.561C188.006 124.904 189.153 122.399 191.075 120.559C192.996 118.719 195.548 117.683 198.209 117.661H428.23C429.517 117.651 430.792 117.902 431.978 118.401C433.164 118.899 434.237 119.634 435.13 120.56C436.023 121.486 436.719 122.585 437.174 123.788C437.629 124.992 437.835 126.275 437.778 127.561L431.299 288.59C431.156 291.247 430.006 293.75 428.083 295.589C426.16 297.428 423.609 298.466 420.948 298.49Z" fill="white"/>
<path d="M420.948 299.04H190.927C189.563 299.049 188.211 298.78 186.954 298.249C185.697 297.718 184.562 296.937 183.617 295.953C182.672 294.969 181.937 293.803 181.458 292.526C180.979 291.248 180.765 289.887 180.829 288.524L187.319 127.495C187.454 124.689 188.657 122.041 190.682 120.094C192.707 118.146 195.4 117.048 198.209 117.023H428.23C429.595 117.011 430.948 117.278 432.207 117.807C433.465 118.337 434.602 119.118 435.547 120.103C436.493 121.087 437.227 122.255 437.706 123.534C438.184 124.812 438.396 126.175 438.328 127.539L431.849 288.568C431.714 291.376 430.509 294.025 428.482 295.973C426.455 297.92 423.759 299.018 420.948 299.04ZM198.209 118.123C195.684 118.148 193.264 119.137 191.444 120.887C189.625 122.637 188.542 125.017 188.419 127.539L181.929 288.568C181.869 289.783 182.058 290.997 182.484 292.137C182.91 293.276 183.565 294.317 184.407 295.194C185.25 296.072 186.262 296.768 187.384 297.24C188.505 297.712 189.711 297.95 190.927 297.94H420.948C423.475 297.918 425.897 296.93 427.72 295.179C429.542 293.429 430.626 291.048 430.749 288.524L437.228 127.495C437.288 126.28 437.099 125.065 436.673 123.926C436.247 122.786 435.593 121.746 434.75 120.869C433.908 119.991 432.895 119.295 431.773 118.823C430.652 118.351 429.447 118.112 428.23 118.123H198.209Z" fill="#009DDC"/>
<path d="M421.751 126.406H203.951C202.07 126.421 200.266 127.155 198.91 128.458C197.554 129.761 196.748 131.534 196.658 133.413L191.4 264.225H423.214L428.483 133.413C428.528 132.504 428.387 131.596 428.068 130.743C427.749 129.891 427.259 129.113 426.629 128.457C425.999 127.8 425.241 127.28 424.402 126.927C423.563 126.575 422.661 126.397 421.751 126.406Z" fill="#009DDC"/>
<path opacity="0.3" d="M224.323 117.023L219.12 246.427C219.079 247.284 219.214 248.14 219.516 248.943C219.818 249.746 220.281 250.479 220.876 251.097C221.472 251.715 222.187 252.205 222.978 252.537C223.769 252.869 224.62 253.035 225.478 253.027H391.27C393.044 253.015 394.746 252.324 396.026 251.097C397.307 249.87 398.069 248.199 398.156 246.427L403.37 117.023H224.323Z" fill="black"/>
<path d="M397.705 64.0689H249.205C240.997 64.1357 233.127 67.3432 227.21 73.0325C221.294 78.7219 217.781 86.461 217.393 94.6599L211.189 248.66C211.15 249.517 211.286 250.372 211.589 251.174C211.892 251.977 212.354 252.709 212.949 253.327C213.544 253.944 214.259 254.434 215.049 254.767C215.84 255.099 216.69 255.267 217.547 255.26H383.383C385.156 255.245 386.856 254.554 388.136 253.327C389.417 252.1 390.179 250.431 390.269 248.66L396.473 94.6599C396.866 86.4609 400.382 78.7233 406.3 73.0347C412.218 67.3462 420.088 64.1382 428.296 64.0689H397.705Z" fill="#009DDC"/>
<path opacity="0.7" d="M397.705 64.0689H249.205C240.997 64.1357 233.127 67.3432 227.21 73.0325C221.294 78.7219 217.781 86.461 217.393 94.6599L211.189 248.66C211.15 249.517 211.286 250.372 211.589 251.174C211.892 251.977 212.354 252.709 212.949 253.327C213.544 253.944 214.259 254.434 215.049 254.767C215.84 255.099 216.69 255.267 217.547 255.26H383.383C385.156 255.245 386.856 254.554 388.136 253.327C389.417 252.1 390.179 250.431 390.269 248.66L396.473 94.6599C396.866 86.4609 400.382 78.7233 406.3 73.0347C412.218 67.3462 420.088 64.1382 428.296 64.0689H397.705Z" fill="white"/>
<path d="M432.3 264.775H182.358C182.212 264.775 182.072 264.717 181.969 264.614C181.866 264.511 181.808 264.371 181.808 264.225C181.808 264.079 181.866 263.939 181.969 263.836C182.072 263.733 182.212 263.675 182.358 263.675H432.3C432.446 263.675 432.586 263.733 432.689 263.836C432.792 263.939 432.85 264.079 432.85 264.225C432.85 264.371 432.792 264.511 432.689 264.614C432.586 264.717 432.446 264.775 432.3 264.775Z" fill="#009DDC"/>
<path opacity="0.1" d="M380.369 170.362H227.469C226.985 170.366 226.505 170.27 226.059 170.082C225.613 169.894 225.21 169.617 224.874 169.268C224.539 168.92 224.278 168.506 224.108 168.053C223.937 167.6 223.861 167.117 223.883 166.633L226.248 108.08C226.296 107.083 226.724 106.142 227.444 105.45C228.164 104.759 229.122 104.369 230.12 104.362H383.02C383.504 104.357 383.983 104.451 384.429 104.638C384.875 104.824 385.279 105.1 385.614 105.448C385.95 105.796 386.211 106.209 386.382 106.662C386.552 107.114 386.629 107.597 386.606 108.08L384.241 166.6C384.204 167.605 383.781 168.557 383.06 169.258C382.339 169.959 381.375 170.354 380.369 170.362Z" fill="#009DDC"/>
<path opacity="0.6" d="M311.3 236.362H224.785C224.299 236.366 223.817 236.269 223.369 236.079C222.921 235.889 222.517 235.609 222.182 235.256C221.846 234.904 221.587 234.486 221.42 234.029C221.253 233.572 221.182 233.085 221.21 232.6L223.3 181.296C223.353 180.306 223.78 179.374 224.495 178.687C225.21 178.001 226.159 177.612 227.15 177.6H313.709C314.193 177.596 314.672 177.691 315.118 177.879C315.563 178.068 315.966 178.345 316.3 178.694C316.635 179.043 316.895 179.457 317.064 179.91C317.233 180.363 317.308 180.846 317.284 181.329L315.227 232.6C315.185 233.612 314.752 234.569 314.02 235.27C313.288 235.972 312.314 236.363 311.3 236.362Z" fill="#009DDC"/>
<path d="M278.3 206.959L262.064 197.367L261.294 216.562L278.3 206.959Z" fill="white"/>
<path d="M377.707 236.362H326.381C325.897 236.366 325.417 236.27 324.971 236.082C324.525 235.894 324.122 235.617 323.786 235.268C323.451 234.92 323.19 234.506 323.019 234.053C322.849 233.6 322.772 233.117 322.795 232.633L324.863 181.296C324.913 180.297 325.343 179.354 326.065 178.661C326.786 177.968 327.745 177.577 328.746 177.567H380.072C380.556 177.563 381.036 177.659 381.482 177.847C381.928 178.035 382.331 178.312 382.667 178.661C383.002 179.009 383.263 179.423 383.433 179.876C383.604 180.329 383.68 180.812 383.658 181.296L381.59 232.6C381.55 233.606 381.125 234.558 380.402 235.259C379.679 235.959 378.714 236.354 377.707 236.362Z" fill="white"/>
<path opacity="0.3" d="M329.582 228.09L331.287 185.839C331.307 185.392 331.497 184.97 331.818 184.659C332.139 184.348 332.567 184.172 333.014 184.167H375.276C375.492 184.167 375.706 184.21 375.905 184.295C376.103 184.38 376.283 184.505 376.432 184.661C376.581 184.817 376.697 185.002 376.772 185.205C376.848 185.407 376.881 185.623 376.871 185.839L375.166 228.09C375.149 228.537 374.96 228.961 374.638 229.273C374.316 229.584 373.887 229.759 373.439 229.762H331.177C330.961 229.762 330.747 229.718 330.548 229.634C330.35 229.549 330.17 229.424 330.021 229.268C329.872 229.111 329.756 228.926 329.681 228.724C329.605 228.521 329.572 228.306 329.582 228.09Z" fill="#009DDC"/>
<path d="M361.229 209.467L358.919 213.163L351.373 199.325L332.332 229.762H372.295L361.229 209.467Z" fill="#009DDC"/>
<path d="M371.998 193.99C371.941 195.41 371.337 196.753 370.311 197.738C369.286 198.722 367.919 199.271 366.498 199.27C365.813 199.275 365.135 199.141 364.504 198.874C363.873 198.608 363.303 198.216 362.829 197.721C362.355 197.227 361.988 196.641 361.748 195.999C361.509 195.358 361.404 194.674 361.438 193.99C361.498 192.572 362.103 191.231 363.128 190.249C364.153 189.267 365.518 188.72 366.938 188.721C367.622 188.716 368.3 188.85 368.93 189.116C369.56 189.381 370.129 189.773 370.603 190.266C371.076 190.759 371.444 191.344 371.684 191.984C371.924 192.624 372.031 193.307 371.998 193.99Z" fill="white"/>
<path d="M115.841 91.4261C117.227 97.8391 118.712 109.609 114.257 114.053C117.843 117.419 122.507 121.291 130.196 121.313C137.885 121.335 136.444 116.121 134.365 113.404C127.127 111.919 127.215 106.584 128.381 101.535L115.841 91.4261Z" fill="#FF8B7B"/>
<path d="M113.091 126.153C110.352 131.653 107.591 137.307 104.896 142.895C102.201 148.483 99.6158 154.115 97.3388 159.725C97.0418 160.418 96.7778 161.122 96.5138 161.815L95.8648 163.542C95.5986 164.38 95.4941 165.261 95.5568 166.138C95.7827 168.741 96.3714 171.299 97.3058 173.739C99.4535 179.335 102.062 184.744 105.105 189.909L99.9238 194.1C95.1488 189.348 91.0746 183.94 87.8238 178.04C86.0169 174.769 84.7468 171.23 84.0618 167.557C83.6622 165.298 83.6958 162.983 84.1608 160.737L84.3808 159.802C84.4688 159.483 84.5128 159.362 84.5788 159.142L84.9418 157.943C85.1838 157.14 85.4148 156.337 85.6788 155.556C87.7468 149.275 90.1778 143.291 92.7628 137.384C95.3478 131.477 98.1638 125.702 101.2 119.96L113.091 126.153Z" fill="#FF8B7B"/>
<path d="M103.521 114.636C95.436 117.166 90.519 134.436 90.519 134.436L107.162 148.406C110.357 142.155 113.142 135.703 115.5 129.09C119.416 117.826 113.3 111.6 103.521 114.636Z" fill="#009DDC"/>
<g opacity="0.2">
<path opacity="0.2" d="M103.521 114.636C95.436 117.166 90.519 134.436 90.519 134.436L107.162 148.406C110.357 142.155 113.142 135.703 115.5 129.09C119.416 117.826 113.3 111.6 103.521 114.636Z" fill="black"/>
</g>
<path d="M103.279 187.918L109.879 194.001L100.925 199.6C100.925 199.6 95.5569 193.363 98.3069 189.986L103.279 187.918Z" fill="#FF8B7B"/>
<path d="M110.561 203.34L107.074 204.759C106.391 205.03 105.635 205.05 104.939 204.814C104.244 204.578 103.655 204.103 103.279 203.472L100.925 199.6L109.923 193.99L112.123 199.215C112.295 199.588 112.391 199.991 112.405 200.402C112.42 200.812 112.353 201.221 112.207 201.605C112.062 201.989 111.841 202.341 111.559 202.639C111.276 202.936 110.937 203.175 110.561 203.34Z" fill="#FF8B7B"/>
<path d="M144.936 113.877C131.846 111.677 115.885 110.973 103.686 114.449C102.08 114.919 100.718 115.992 99.8854 117.444C99.0529 118.896 98.8144 120.613 99.2199 122.237C106.568 154.027 104.445 186.136 105.16 192.934L152.372 192.175C154.704 153.301 152.042 129.178 150.568 119.575C150.344 118.155 149.68 116.841 148.67 115.819C147.659 114.797 146.353 114.117 144.936 113.877Z" fill="#009DDC"/>
<path d="M148.423 118.376C152.559 122.325 156.816 126.351 161.051 130.234C163.178 132.192 165.312 134.095 167.453 135.943C169.576 137.791 171.754 139.584 173.855 141.102C174.756 141.777 175.7 142.39 176.682 142.939L176.946 143.082H177.078H177.144H176.957H176.66C176.341 143.082 176.451 143.181 176.66 143.137C177.586 142.912 178.47 142.541 179.278 142.037C180.419 141.447 181.528 140.797 182.6 140.09C187.133 136.726 191.488 133.128 195.646 129.31L200.816 133.457C199.243 136.104 197.505 138.65 195.613 141.08C193.714 143.587 191.633 145.951 189.387 148.153C188.192 149.339 186.916 150.442 185.57 151.453C183.973 152.679 182.21 153.672 180.334 154.401C178.958 154.908 177.499 155.147 176.033 155.105C175.565 155.087 175.098 155.039 174.636 154.962L173.921 154.797L173.459 154.665L172.546 154.368L171.787 154.06C170.116 153.334 168.505 152.477 166.969 151.497C161.776 148.087 156.832 144.312 152.174 140.2C147.609 136.229 143.264 132.192 138.974 127.869L148.423 118.376Z" fill="#FF8B7B"/>
<path d="M133.672 121.94C132.495 130.333 152.372 146.338 152.372 146.338L163.075 129.926C163.075 129.926 160.875 125.735 152.944 118.299C144.804 110.665 134.97 112.7 133.672 121.94Z" fill="#009DDC"/>
<path opacity="0.6" d="M359.843 156.414L207.251 166.413C206.769 166.448 206.284 166.383 205.827 166.225C205.37 166.066 204.951 165.816 204.594 165.489C204.236 165.163 203.949 164.768 203.75 164.327C203.551 163.886 203.443 163.41 203.434 162.926L201.96 104.351C201.943 103.353 202.308 102.385 202.981 101.647C203.654 100.909 204.583 100.456 205.579 100.38L358.182 90.3811C358.664 90.3466 359.148 90.4108 359.604 90.5697C360.06 90.7286 360.479 90.9789 360.836 91.3053C361.192 91.6317 361.478 92.0273 361.676 92.4679C361.874 92.9086 361.98 93.385 361.988 93.8681L363.473 152.443C363.49 153.443 363.123 154.412 362.448 155.151C361.773 155.889 360.841 156.341 359.843 156.414Z" fill="white"/>
<path d="M282.843 121.819L284.911 125.669C284.934 125.717 284.969 125.759 285.014 125.788C285.059 125.817 285.111 125.833 285.164 125.834L289.564 126.186C289.627 126.191 289.687 126.214 289.737 126.252C289.787 126.289 289.826 126.341 289.848 126.4C289.87 126.459 289.874 126.523 289.861 126.584C289.848 126.646 289.817 126.702 289.773 126.747L286.671 130.047C286.633 130.088 286.605 130.137 286.59 130.19C286.575 130.244 286.572 130.3 286.583 130.355L287.441 134.678C287.453 134.74 287.448 134.804 287.427 134.863C287.406 134.923 287.37 134.975 287.322 135.016C287.273 135.056 287.215 135.083 287.153 135.093C287.091 135.104 287.027 135.097 286.968 135.074L282.986 133.259C282.938 133.235 282.885 133.222 282.832 133.222C282.778 133.222 282.726 133.235 282.678 133.259L278.806 135.58C278.753 135.611 278.693 135.627 278.632 135.625C278.571 135.624 278.512 135.606 278.46 135.573C278.409 135.54 278.368 135.493 278.342 135.438C278.315 135.383 278.305 135.322 278.311 135.261L278.949 130.861C278.958 130.809 278.954 130.755 278.937 130.705C278.92 130.655 278.89 130.61 278.85 130.575L275.55 127.682C275.505 127.637 275.473 127.581 275.457 127.52C275.442 127.458 275.443 127.393 275.461 127.333C275.479 127.272 275.513 127.217 275.56 127.174C275.606 127.131 275.664 127.101 275.726 127.088L280.126 126.164C280.18 126.151 280.23 126.127 280.274 126.093C280.318 126.059 280.354 126.015 280.379 125.966L282.238 121.852C282.26 121.792 282.3 121.739 282.352 121.701C282.403 121.662 282.465 121.64 282.53 121.637C282.594 121.633 282.658 121.649 282.714 121.681C282.769 121.713 282.814 121.761 282.843 121.819Z" fill="#009DDC"/>
<path d="M309.474 120.07L311.531 123.931C311.56 123.976 311.599 124.015 311.644 124.043C311.69 124.072 311.742 124.09 311.795 124.096L316.195 124.448C316.257 124.455 316.316 124.479 316.364 124.517C316.413 124.556 316.45 124.608 316.471 124.666C316.491 124.725 316.495 124.788 316.481 124.849C316.467 124.909 316.437 124.965 316.393 125.009L313.302 128.309C313.264 128.348 313.236 128.395 313.221 128.447C313.206 128.498 313.203 128.553 313.214 128.606L314.072 132.94C314.083 133.002 314.077 133.067 314.055 133.126C314.032 133.185 313.994 133.237 313.944 133.276C313.895 133.316 313.836 133.341 313.773 133.35C313.71 133.358 313.646 133.35 313.588 133.325L309.617 131.51C309.569 131.486 309.517 131.473 309.463 131.473C309.41 131.473 309.357 131.486 309.309 131.51L305.437 133.842C305.384 133.874 305.322 133.89 305.26 133.888C305.198 133.886 305.138 133.867 305.086 133.833C305.034 133.798 304.993 133.75 304.968 133.693C304.942 133.636 304.933 133.574 304.942 133.512L305.58 129.112C305.587 129.057 305.581 129.002 305.562 128.95C305.542 128.898 305.511 128.852 305.47 128.815L302.225 125.9C302.179 125.857 302.146 125.803 302.13 125.743C302.113 125.682 302.113 125.619 302.13 125.558C302.147 125.498 302.18 125.444 302.226 125.401C302.272 125.359 302.329 125.33 302.39 125.317L306.79 124.393C306.845 124.382 306.896 124.356 306.938 124.32C306.98 124.283 307.013 124.237 307.032 124.184L308.891 120.081C308.921 120.03 308.963 119.988 309.013 119.958C309.064 119.929 309.121 119.913 309.179 119.911C309.238 119.91 309.296 119.924 309.348 119.952C309.399 119.98 309.443 120.021 309.474 120.07Z" fill="#009DDC"/>
<path d="M336.105 118.321L338.162 122.182C338.186 122.229 338.223 122.269 338.267 122.298C338.311 122.327 338.362 122.344 338.415 122.347L342.815 122.699C342.878 122.704 342.938 122.727 342.988 122.765C343.038 122.803 343.077 122.854 343.099 122.913C343.12 122.972 343.125 123.036 343.112 123.097C343.099 123.159 343.068 123.215 343.024 123.26L339.922 126.56C339.884 126.601 339.856 126.65 339.841 126.704C339.826 126.757 339.823 126.814 339.834 126.868L340.692 131.191C340.706 131.253 340.702 131.317 340.681 131.377C340.66 131.437 340.623 131.49 340.574 131.53C340.525 131.57 340.466 131.595 340.403 131.603C340.34 131.612 340.277 131.602 340.219 131.576L336.248 129.772C336.199 129.745 336.144 129.731 336.088 129.731C336.033 129.731 335.978 129.745 335.929 129.772L332.057 132.093C332.004 132.124 331.944 132.14 331.883 132.138C331.822 132.137 331.763 132.119 331.711 132.086C331.66 132.053 331.619 132.006 331.593 131.951C331.566 131.896 331.556 131.835 331.562 131.774L332.2 127.374C332.209 127.322 332.205 127.268 332.188 127.218C332.171 127.168 332.141 127.123 332.101 127.088L328.801 124.195C328.756 124.15 328.724 124.094 328.708 124.033C328.692 123.971 328.694 123.907 328.712 123.846C328.73 123.785 328.764 123.73 328.811 123.687C328.857 123.644 328.915 123.614 328.977 123.601L333.377 122.677C333.432 122.666 333.483 122.642 333.527 122.608C333.57 122.573 333.606 122.529 333.63 122.479L335.489 118.365C335.512 118.305 335.552 118.252 335.604 118.213C335.656 118.175 335.718 118.152 335.783 118.147C335.848 118.143 335.912 118.157 335.969 118.187C336.026 118.218 336.073 118.265 336.105 118.321Z" fill="#009DDC"/>
<path d="M256.223 123.557L258.28 127.418C258.309 127.463 258.348 127.502 258.394 127.53C258.439 127.559 258.491 127.577 258.544 127.583L262.944 127.935C263.006 127.942 263.065 127.966 263.113 128.004C263.162 128.043 263.199 128.095 263.22 128.153C263.24 128.212 263.244 128.275 263.23 128.336C263.217 128.396 263.186 128.452 263.142 128.496L260.051 131.796C260.013 131.835 259.985 131.882 259.97 131.934C259.955 131.985 259.952 132.04 259.963 132.093L260.821 136.427C260.832 136.489 260.826 136.554 260.804 136.613C260.781 136.672 260.743 136.724 260.694 136.763C260.644 136.803 260.585 136.828 260.522 136.837C260.459 136.845 260.395 136.837 260.337 136.812L256.366 134.997C256.318 134.973 256.266 134.96 256.212 134.96C256.159 134.96 256.106 134.973 256.058 134.997L252.186 137.329C252.133 137.361 252.071 137.377 252.009 137.375C251.947 137.373 251.887 137.354 251.835 137.32C251.783 137.285 251.742 137.237 251.717 137.18C251.691 137.123 251.682 137.061 251.691 136.999L252.329 132.599C252.336 132.544 252.33 132.489 252.311 132.437C252.292 132.385 252.26 132.339 252.219 132.302L248.974 129.409C248.928 129.366 248.895 129.312 248.879 129.252C248.862 129.191 248.862 129.128 248.879 129.067C248.896 129.007 248.929 128.953 248.975 128.91C249.021 128.868 249.078 128.839 249.139 128.826L253.539 127.902C253.592 127.889 253.641 127.865 253.683 127.83C253.724 127.796 253.758 127.753 253.781 127.704L255.64 123.59C255.668 123.538 255.708 123.494 255.757 123.462C255.807 123.431 255.864 123.412 255.922 123.409C255.981 123.406 256.039 123.418 256.092 123.444C256.145 123.469 256.19 123.509 256.223 123.557Z" fill="#009DDC"/>
<path d="M229.592 125.306L231.66 129.156C231.681 129.205 231.717 129.247 231.762 129.276C231.807 129.306 231.859 129.321 231.913 129.321L236.313 129.673C236.375 129.68 236.433 129.704 236.482 129.742C236.531 129.781 236.568 129.833 236.588 129.891C236.609 129.95 236.613 130.013 236.599 130.074C236.585 130.134 236.555 130.19 236.511 130.234L233.42 133.534C233.382 133.575 233.354 133.624 233.339 133.677C233.324 133.731 233.321 133.787 233.332 133.842L234.19 138.176C234.2 138.237 234.193 138.3 234.171 138.357C234.149 138.415 234.113 138.466 234.065 138.505C234.017 138.544 233.959 138.57 233.898 138.58C233.837 138.59 233.775 138.583 233.717 138.561L229.735 136.746C229.687 136.722 229.634 136.709 229.581 136.709C229.527 136.709 229.475 136.722 229.427 136.746L225.555 139.1C225.503 139.136 225.442 139.155 225.379 139.156C225.316 139.157 225.254 139.14 225.201 139.106C225.148 139.071 225.107 139.022 225.081 138.965C225.056 138.907 225.049 138.843 225.06 138.781L225.698 134.381C225.707 134.329 225.703 134.275 225.686 134.225C225.669 134.175 225.639 134.13 225.599 134.095L222.299 131.202C222.253 131.159 222.22 131.103 222.204 131.042C222.188 130.981 222.189 130.917 222.207 130.856C222.226 130.796 222.26 130.742 222.308 130.7C222.355 130.658 222.413 130.63 222.475 130.619L226.875 129.684C226.929 129.675 226.979 129.651 227.022 129.617C227.064 129.582 227.097 129.537 227.117 129.486L228.987 125.372C229.005 125.31 229.042 125.254 229.092 125.213C229.142 125.171 229.203 125.145 229.267 125.138C229.332 125.131 229.397 125.143 229.455 125.173C229.513 125.203 229.56 125.249 229.592 125.306Z" fill="#009DDC"/>
<path d="M194.524 130.52L200.618 122.49L207.372 130.025C207.372 130.025 203.5 136.856 197.263 135.019L194.524 130.52Z" fill="#FF8B7B"/>
<path d="M209.374 119.674L211.145 124.074C211.298 124.438 211.345 124.839 211.278 125.229C211.212 125.618 211.036 125.981 210.771 126.274L207.372 130.047L200.618 122.512L206.404 118.717C206.655 118.555 206.939 118.45 207.235 118.411C207.531 118.371 207.832 118.399 208.116 118.49C208.401 118.582 208.661 118.736 208.879 118.94C209.096 119.145 209.265 119.396 209.374 119.674Z" fill="#FF8B7B"/>
<path d="M137.863 83.5721C137.863 84.2871 138.303 84.8481 138.765 84.8371C139.227 84.8261 139.579 84.2321 139.546 83.5171C139.513 82.8021 139.106 82.2411 138.644 82.2521C138.182 82.2631 137.83 82.8571 137.863 83.5721Z" fill="#263238"/>
<path d="M138.325 84.1001C139.28 86.2474 140.519 88.2565 142.01 90.0731C141.539 90.4379 140.993 90.6941 140.411 90.8234C139.829 90.9527 139.226 90.9519 138.644 90.8211L138.325 84.1001Z" fill="#FF5652"/>
<path d="M136.4 79.9092C136.467 79.9166 136.535 79.9062 136.597 79.8792C136.658 79.8522 136.712 79.8094 136.752 79.7552C137.06 79.3366 137.465 78.9995 137.933 78.7733C138.401 78.5471 138.917 78.4386 139.436 78.4572C139.491 78.4617 139.546 78.4553 139.599 78.4383C139.651 78.4214 139.7 78.3943 139.742 78.3585C139.784 78.3227 139.818 78.279 139.843 78.2298C139.868 78.1807 139.883 78.1271 139.887 78.0722C139.89 77.9608 139.851 77.8524 139.778 77.7687C139.704 77.685 139.602 77.6323 139.491 77.6212C138.836 77.5902 138.184 77.7204 137.591 78.0005C136.999 78.2805 136.484 78.7017 136.092 79.2272C136.047 79.2885 136.019 79.3608 136.011 79.4366C136.003 79.5124 136.015 79.5889 136.046 79.6584C136.078 79.7278 136.127 79.7877 136.189 79.8317C136.251 79.8758 136.324 79.9026 136.4 79.9092Z" fill="#263238"/>
<path d="M113.883 81.7131C114.829 90.4361 114.983 95.5841 119.559 99.9181C126.522 106.452 137.159 102.118 138.798 93.3181C140.305 85.4091 138.501 72.4181 129.789 69.2721C127.891 68.5451 125.837 68.3217 123.827 68.6235C121.817 68.9253 119.919 69.742 118.318 70.9943C116.717 72.2466 115.467 73.8918 114.69 75.7701C113.913 77.6483 113.635 79.6957 113.883 81.7131Z" fill="#FF8B7B"/>
<path d="M131.384 86.6631C132.484 90.0291 130.163 97.2341 129.437 99.4341C128.711 101.634 125.642 103.57 120.263 103.064C119.327 103.001 118.412 102.75 117.575 102.325C116.738 101.9 115.996 101.31 115.393 100.591C114.79 99.8715 114.338 99.0377 114.066 98.1395C113.793 97.2413 113.705 96.2973 113.806 95.3641C111.408 95.0011 108.834 90.6121 108.966 87.5651C109.098 84.5181 104.566 81.3501 104.016 78.3801C103.466 75.4101 105.963 71.2851 109.263 73.3641C107.129 71.1641 106.942 65.6641 113.487 64.5641C118.712 63.7391 124.113 66.5221 128.15 64.9381C132.187 63.3541 137.533 62.3091 138.71 65.5431C140.91 64.2561 144.21 66.8301 143.11 70.8011C142.01 74.7721 133.947 77.0931 133.947 77.0931C133.947 77.0931 136.95 84.8921 131.384 86.6631Z" fill="#263238"/>
<path d="M109.758 75.1131C109.596 75.1133 109.437 75.078 109.29 75.0095C109.144 74.9411 109.014 74.8412 108.911 74.7171C106.909 72.2971 104.247 66.5991 108.427 62.3641C108.633 62.1592 108.912 62.0442 109.203 62.0442C109.493 62.0442 109.772 62.1592 109.978 62.3641C110.081 62.4663 110.163 62.588 110.219 62.722C110.275 62.8561 110.303 62.9998 110.303 63.1451C110.303 63.2903 110.275 63.4341 110.219 63.5681C110.163 63.7021 110.081 63.8238 109.978 63.9261C106.15 67.7981 110.407 73.1111 110.594 73.3311C110.725 73.492 110.807 73.6865 110.832 73.8923C110.857 74.098 110.823 74.3066 110.734 74.4939C110.646 74.6813 110.506 74.8399 110.332 74.9513C110.157 75.0628 109.954 75.1227 109.747 75.1241L109.758 75.1131Z" fill="#263238"/>
<path d="M110.737 76.2789C110.572 76.2782 110.409 76.2402 110.26 76.1678C110.112 76.0955 109.981 75.9906 109.879 75.8609C109.692 75.6409 105.38 70.3609 100.793 73.3309C100.546 73.4885 100.247 73.5416 99.9616 73.4787C99.6759 73.4158 99.4268 73.2419 99.2693 72.9954C99.1118 72.7489 99.0586 72.4499 99.1215 72.1642C99.1844 71.8785 99.3583 71.6295 99.6048 71.4719C104.61 68.2599 109.637 72.0439 111.595 74.4859C111.686 74.5991 111.753 74.7292 111.793 74.8685C111.834 75.0079 111.846 75.1539 111.83 75.2981C111.813 75.4422 111.769 75.5817 111.698 75.7085C111.628 75.8353 111.533 75.9469 111.419 76.0369C111.225 76.1922 110.985 76.2775 110.737 76.2789Z" fill="#263238"/>
<path d="M126.731 87.576C127.402 89.4199 128.768 90.9281 130.537 91.778C132.891 92.878 134.475 90.92 134.156 88.478C133.881 86.278 132.308 83.0879 129.756 82.9779C127.204 82.8679 125.939 85.31 126.731 87.576Z" fill="#FF8B7B"/>
<path d="M75.361 375.49C75.3417 375.457 75.3315 375.419 75.3315 375.38C75.3315 375.342 75.3417 375.304 75.361 375.27C75.379 375.231 75.4088 375.198 75.4463 375.177C75.4837 375.155 75.5269 375.145 75.57 375.149C76.021 375.149 79.97 375.479 80.619 376.546C80.678 376.646 80.7092 376.76 80.7092 376.876C80.7092 376.992 80.678 377.106 80.619 377.206C80.5485 377.38 80.4346 377.533 80.2883 377.651C80.1419 377.768 79.968 377.846 79.783 377.877C78.507 378.097 76.483 376.491 75.383 375.512L75.361 375.49ZM80.168 376.7C79.706 376.161 77.671 375.787 76.131 375.6C77.66 376.887 78.958 377.569 79.673 377.437C79.7949 377.418 79.9096 377.367 80.0059 377.29C80.1023 377.213 80.1771 377.112 80.223 376.997C80.2452 376.957 80.2568 376.911 80.2568 376.865C80.2568 376.819 80.2452 376.774 80.223 376.733L80.168 376.7Z" fill="#009DDC"/>
<path d="M66.022 374.786L74.624 376.821L82.907 357.802L74.305 355.767L66.022 374.786Z" fill="#FF8B7B"/>
<path d="M75.636 375.336L66.902 371.079C66.7518 371.001 66.5777 370.983 66.4145 371.027C66.2513 371.072 66.1111 371.177 66.022 371.321L61.842 377.921C61.7418 378.095 61.6784 378.288 61.6558 378.487C61.6332 378.687 61.6519 378.888 61.7107 379.08C61.7695 379.272 61.8672 379.45 61.9976 379.603C62.1281 379.755 62.2885 379.879 62.469 379.967C65.637 381.441 66.748 381.683 70.708 383.619C75.339 385.874 75.108 387.172 80.531 389.823C83.831 391.418 85.921 388.415 84.667 387.425C81.3491 384.612 78.8206 380.984 77.33 376.898C76.9832 376.182 76.3779 375.624 75.636 375.336Z" fill="#263238"/>
<path opacity="0.2" d="M82.9069 357.802L78.3969 368.164L70.0259 365.579L74.2939 355.767L82.9069 357.802Z" fill="black"/>
<path d="M93.6758 277.326C100.474 238.012 99.4178 201.8 105.16 192.934L136.356 192.428C136.356 192.428 120.813 255.612 113.531 281.616C105.974 308.643 83.1598 364.237 83.1598 364.237L69.4868 360.013C69.4868 360.013 82.9618 307.4 93.6758 277.326Z" fill="#263238"/>
<path opacity="0.2" d="M123.75 218.113C117.051 226.913 117.502 251.553 118.25 264.159C120.89 254.105 123.827 242.621 126.544 231.83L123.75 218.113Z" fill="black"/>
<path d="M131.615 387.843C131.577 387.827 131.545 387.8 131.522 387.766C131.499 387.732 131.487 387.692 131.487 387.651C131.487 387.609 131.499 387.569 131.522 387.535C131.545 387.501 131.577 387.474 131.615 387.458C132.011 387.249 135.487 385.39 136.576 385.973C136.68 386.025 136.769 386.103 136.834 386.199C136.9 386.296 136.94 386.407 136.95 386.523C136.984 386.709 136.97 386.902 136.908 387.081C136.847 387.26 136.74 387.42 136.598 387.546C135.663 388.426 133.122 388.118 131.692 387.854L131.615 387.843ZM136.268 386.314C135.597 386.094 133.705 386.853 132.33 387.546C134.288 387.843 135.74 387.733 136.268 387.238C136.356 387.152 136.422 387.047 136.461 386.93C136.499 386.813 136.508 386.688 136.488 386.567C136.488 386.521 136.474 386.475 136.449 386.436C136.423 386.397 136.387 386.366 136.345 386.347L136.268 386.314Z" fill="#009DDC"/>
<path d="M131.615 387.843H131.56C131.529 387.823 131.505 387.795 131.49 387.762C131.474 387.729 131.468 387.692 131.472 387.656C131.472 387.546 131.615 385.17 132.704 384.235C132.851 384.1 133.025 383.996 133.214 383.929C133.403 383.863 133.604 383.836 133.804 383.85C134.376 383.85 134.552 384.191 134.607 384.422C134.805 385.423 132.77 387.359 131.725 387.854C131.688 387.862 131.65 387.858 131.615 387.843ZM134.035 384.29H133.826C133.673 384.276 133.518 384.294 133.372 384.343C133.226 384.393 133.092 384.472 132.979 384.576C132.331 385.35 131.946 386.309 131.879 387.315C132.979 386.644 134.31 385.115 134.189 384.521C134.2 384.4 134.2 384.4 134.035 384.29Z" fill="#009DDC"/>
<path d="M122.243 388.811L131.065 388.679L131.439 368.197L122.628 368.329L122.243 388.811Z" fill="#FF8B7B"/>
<path d="M131.747 387.7L122.122 387.854C121.952 387.851 121.788 387.913 121.663 388.028C121.538 388.143 121.462 388.301 121.451 388.47L120.802 396.335C120.79 396.536 120.819 396.738 120.889 396.927C120.958 397.117 121.066 397.29 121.206 397.435C121.345 397.581 121.513 397.696 121.699 397.774C121.885 397.851 122.085 397.89 122.287 397.886C125.752 397.776 130.735 397.49 135.102 397.424C140.195 397.347 139.711 397.556 145.695 397.424C149.303 397.369 149.809 393.695 148.247 393.387C141.141 391.979 140.426 391.902 133.947 388.316C133.278 387.927 132.521 387.715 131.747 387.7Z" fill="#263238"/>
<path opacity="0.2" d="M131.439 368.197L131.252 378.757L122.43 378.9L122.617 368.34L131.439 368.197Z" fill="black"/>
<path d="M124.707 279.812C123.354 238.617 114.708 215 115.5 192.769L152.339 192.175C152.339 192.175 148.654 256.151 145.959 283.013C143.165 310.942 134.552 375.215 134.552 375.215L119.592 375.446C119.592 375.446 121 314.858 124.707 279.812Z" fill="#263238"/>
<path opacity="0.3" d="M131.923 373.609C131.887 373.606 131.851 373.596 131.819 373.58C131.787 373.563 131.758 373.541 131.735 373.513C131.711 373.485 131.693 373.453 131.682 373.419C131.671 373.384 131.667 373.348 131.67 373.312C132.671 363.06 134.508 347.836 136.466 331.732C138.589 314.132 140.8 295.938 142.043 282.991C144.419 258.252 148.28 205.793 148.39 199.831C146.994 199.554 145.688 198.94 144.583 198.043C143.479 197.146 142.611 195.992 142.054 194.683C142.042 194.648 142.037 194.612 142.039 194.575C142.042 194.538 142.051 194.503 142.068 194.47C142.084 194.437 142.107 194.408 142.135 194.384C142.163 194.36 142.195 194.342 142.23 194.331C142.263 194.319 142.298 194.313 142.334 194.315C142.369 194.317 142.403 194.326 142.435 194.341C142.467 194.357 142.495 194.378 142.519 194.405C142.542 194.431 142.56 194.462 142.571 194.496C143.111 195.75 143.956 196.85 145.031 197.693C146.105 198.537 147.373 199.098 148.72 199.325C148.784 199.337 148.842 199.372 148.884 199.422C148.926 199.472 148.95 199.535 148.951 199.6C148.951 204.297 145.002 257.9 142.593 283.046C141.339 296.004 139.139 314.198 137.005 331.787C135.058 347.902 133.221 363.115 132.22 373.367C132.217 373.403 132.207 373.437 132.191 373.469C132.174 373.501 132.151 373.529 132.123 373.552C132.096 373.574 132.064 373.591 132.029 373.601C131.995 373.611 131.958 373.613 131.923 373.609Z" fill="white"/>
<path d="M135.498 376.986L117.722 377.261L116.974 371.508L136.818 370.892L135.498 376.986Z" fill="#263238"/>
<path d="M84.1941 367.636L67.1221 362.389L67.8151 356.603L86.9331 362.158L84.1941 367.636Z" fill="#263238"/>
</g>
<defs>
<clipPath id="clip0_2601_8710">
<rect width="550" height="410" fill="white"/>
</clipPath>
</defs>
</svg>
