<svg width="253" height="81" viewBox="0 0 253 81" fill="none" xmlns="http://www.w3.org/2000/svg">
<path opacity="0.25" d="M128.5 16.0002L128.778 15.0395L128.5 16.0002ZM252.995 78.3578C253.051 78.9072 252.652 79.3982 252.102 79.4545L243.149 80.3716C242.6 80.4279 242.109 80.0281 242.052 79.4787C241.996 78.9293 242.396 78.4383 242.945 78.382L250.904 77.5668L250.088 69.6084C250.032 69.059 250.432 68.568 250.981 68.5117C251.531 68.4555 252.022 68.8552 252.078 69.4046L252.995 78.3578ZM252 78.4597C251.369 79.2352 251.369 79.2352 251.369 79.2352C251.369 79.2352 251.369 79.2352 251.369 79.2352C251.369 79.2352 251.369 79.2352 251.369 79.2351C251.369 79.2351 251.369 79.2349 251.368 79.2347C251.368 79.2343 251.367 79.2336 251.366 79.2327C251.364 79.2308 251.36 79.2278 251.355 79.2238C251.345 79.2158 251.33 79.2036 251.31 79.1872C251.269 79.1544 251.208 79.1051 251.126 79.0396C250.962 78.9087 250.716 78.7135 250.39 78.4582C249.738 77.9474 248.765 77.1961 247.487 76.2374L248.688 74.6377C249.977 75.605 250.96 76.3647 251.623 76.8835C251.954 77.1429 252.205 77.3422 252.374 77.477C252.458 77.5444 252.522 77.5957 252.565 77.6304C252.587 77.6478 252.603 77.661 252.614 77.67C252.62 77.6745 252.624 77.6779 252.627 77.6803C252.628 77.6815 252.629 77.6824 252.63 77.683C252.631 77.6834 252.631 77.6836 252.631 77.6838C252.631 77.6839 252.631 77.684 252.632 77.6841C252.632 77.6841 252.632 77.6841 252.632 77.6841C252.632 77.6842 252.632 77.6842 252 78.4597ZM244.287 73.8756C242.073 72.268 239.365 70.3511 236.196 68.1977L237.321 66.5436C240.507 68.7093 243.232 70.6382 245.462 72.2573L244.287 73.8756ZM232.904 65.9864C230.356 64.2954 227.566 62.4898 224.548 60.5984L225.61 58.9037C228.644 60.8047 231.448 62.6198 234.01 64.32L232.904 65.9864ZM221.181 58.5116C218.496 56.8664 215.652 55.1677 212.658 53.4327L213.661 51.7022C216.67 53.4457 219.528 55.1529 222.226 56.8063L221.181 58.5116ZM209.229 51.4677C206.451 49.8937 203.555 48.296 200.546 46.6869L201.49 44.9234C204.513 46.5403 207.423 48.1459 210.215 49.7275L209.229 51.4677ZM197.041 44.8335C194.181 43.3397 191.228 41.8403 188.186 40.345L189.068 38.5501C192.126 40.0528 195.093 41.5597 197.967 43.0609L197.041 44.8335ZM184.622 38.6152C181.701 37.2153 178.703 35.8225 175.631 34.4447L176.45 32.6199C179.537 34.0047 182.55 35.4047 185.486 36.8116L184.622 38.6152ZM171.992 32.8347C169.014 31.5353 165.97 30.2524 162.865 28.9932L163.617 27.1398C166.739 28.4058 169.798 29.6954 172.792 31.0015L171.992 32.8347ZM159.178 27.5205C156.142 26.3269 153.051 25.1578 149.906 24.0193L150.587 22.1388C153.749 23.2836 156.858 24.4592 159.91 25.6592L159.178 27.5205ZM146.17 22.6899C143.083 21.6112 139.948 20.5635 136.767 19.5526L137.373 17.6465C140.573 18.6633 143.726 19.717 146.83 20.8019L146.17 22.6899ZM132.982 18.3739C131.406 17.8933 129.82 17.4221 128.223 16.9609L128.778 15.0395C130.384 15.5034 131.98 15.9775 133.565 16.4609L132.982 18.3739ZM128.223 16.9609C126.566 16.4824 124.917 16.019 123.279 15.5702L123.807 13.6412C125.454 14.0924 127.112 14.5583 128.778 15.0395L128.223 16.9609ZM119.319 14.5094C115.963 13.6303 112.649 12.8124 109.38 12.0518L109.833 10.1038C113.12 10.8685 116.452 11.6908 119.825 12.5747L119.319 14.5094ZM105.375 11.1431C101.982 10.393 98.6415 9.70433 95.3577 9.07259L95.7355 7.1086C99.037 7.74374 102.396 8.43612 105.807 9.1903L105.375 11.1431ZM91.3179 8.31856C87.88 7.69654 84.5087 7.13668 81.2096 6.63357L81.5111 4.65643C84.828 5.16226 88.2176 5.72514 91.674 6.35051L91.3179 8.31856ZM77.1675 6.04002C73.6925 5.54938 70.3034 5.12149 67.0073 4.74968L67.2315 2.76228C70.5457 3.13615 73.9533 3.56636 77.4472 4.05966L77.1675 6.04002ZM62.9199 4.31197C59.4001 3.9552 55.9951 3.66218 52.714 3.42411L52.8588 1.42935C56.1583 1.66876 59.5823 1.96342 63.1216 2.32217L62.9199 4.31197ZM48.6227 3.15115C45.0475 2.93358 41.6345 2.781 38.3968 2.68088L38.4586 0.68183C41.7156 0.782554 45.1486 0.93602 48.7442 1.15484L48.6227 3.15115ZM34.2995 2.57947C30.6196 2.51128 27.1976 2.51006 24.0556 2.55448L24.0274 0.554685C27.1903 0.509961 30.6342 0.511206 34.3366 0.579809L34.2995 2.57947ZM19.9603 2.64097C15.983 2.75324 12.558 2.93396 9.744 3.12713L9.60702 1.13183C12.4466 0.936902 15.8985 0.754833 19.9038 0.641769L19.9603 2.64097ZM5.66562 3.44779C4.01932 3.59498 2.75935 3.73115 1.91296 3.83023C1.48976 3.87977 1.16996 3.92005 0.956986 3.94778C0.850489 3.96165 0.770703 3.97238 0.718045 3.97958C0.691721 3.98318 0.672172 3.98589 0.659471 3.98767C0.653114 3.98856 0.648477 3.98922 0.645533 3.98963C0.644068 3.98983 0.643043 3.98999 0.642438 3.99007C0.642133 3.99011 0.641929 3.99014 0.641845 3.99016C0.641807 3.99016 0.641785 3.99016 0.64179 3.99016C0.641802 3.99017 0.641828 3.99016 0.641828 3.99016C0.641866 3.99015 0.641908 3.99015 0.50033 3.00022C0.358751 2.01029 0.35881 2.01028 0.358874 2.01027C0.358895 2.01027 0.358971 2.01026 0.35903 2.01026C0.359141 2.01023 0.359285 2.01021 0.359462 2.01019C0.359805 2.01015 0.360254 2.01008 0.360809 2.00999C0.361927 2.00984 0.363473 2.00962 0.365447 2.00934C0.369394 2.00878 0.375064 2.00798 0.382442 2.00694C0.397205 2.00489 0.418808 2.00188 0.447216 1.99801C0.504007 1.99024 0.587977 1.97895 0.698676 1.96453C0.92009 1.93569 1.24847 1.89436 1.6804 1.84379C2.54428 1.74267 3.82243 1.60461 5.48752 1.45574L5.66562 3.44779Z" fill="#14080E"/>
</svg>
