<svg width="244" height="77" viewBox="0 0 244 77" fill="none" xmlns="http://www.w3.org/2000/svg">
<path opacity="0.5" d="M241.474 1.27387C241.349 0.735893 240.812 0.401016 240.274 0.525902L231.507 2.56107C230.969 2.68595 230.634 3.22331 230.759 3.76129C230.884 4.29927 231.421 4.63415 231.959 4.50926L239.752 2.70023L241.561 10.493C241.686 11.031 242.223 11.3659 242.761 11.241C243.299 11.1161 243.634 10.5787 243.509 10.0407L241.474 1.27387ZM240.5 1.5C239.651 0.971107 239.651 0.971062 239.651 0.971031C239.651 0.971024 239.651 0.970993 239.651 0.970985C239.651 0.97097 239.651 0.970978 239.651 0.971008C239.651 0.971069 239.651 0.97123 239.651 0.971481C239.651 0.971992 239.65 0.972885 239.649 0.974159C239.648 0.976707 239.645 0.980782 239.642 0.986366C239.635 0.997536 239.624 1.01476 239.609 1.03791C239.58 1.08422 239.535 1.15427 239.475 1.24715C239.356 1.43291 239.175 1.71001 238.934 2.07122C238.452 2.79368 237.729 3.85254 236.768 5.19016L238.392 6.3571C239.367 4.99961 240.104 3.92165 240.598 3.18108C240.845 2.81078 241.031 2.5248 241.157 2.33037C241.219 2.23315 241.267 2.15881 241.299 2.10827C241.315 2.083 241.327 2.06367 241.335 2.05041C241.339 2.04377 241.343 2.03865 241.345 2.03506C241.346 2.03326 241.347 2.03185 241.347 2.03082C241.348 2.03031 241.348 2.02989 241.348 2.02957C241.348 2.02941 241.348 2.02927 241.349 2.02916C241.349 2.02911 241.349 2.02904 241.349 2.02901C241.349 2.02895 241.349 2.02889 240.5 1.5ZM234.318 8.49983C232.565 10.8023 230.386 13.5343 227.792 16.5552L229.31 17.8582C231.931 14.8051 234.134 12.0424 235.909 9.71138L234.318 8.49983ZM225.054 19.6737C222.913 22.0589 220.543 24.5784 217.948 27.1739L219.362 28.5881C221.984 25.9655 224.379 23.4198 226.542 21.0097L225.054 19.6737ZM214.985 30.0733C212.595 32.3611 210.039 34.6896 207.317 37.021L208.618 38.5399C211.369 36.1831 213.953 33.8298 216.368 31.5179L214.985 30.0733ZM204.137 39.6835C201.539 41.8079 198.805 43.9227 195.937 45.9992L197.11 47.6192C200.012 45.5185 202.776 43.3796 205.403 41.2316L204.137 39.6835ZM192.56 48.3821C189.778 50.2949 186.879 52.1644 183.864 53.9671L184.891 55.6836C187.943 53.8582 190.878 51.9658 193.694 50.0301L192.56 48.3821ZM180.286 56.0437C177.329 57.7081 174.268 59.3035 171.104 60.8097L171.964 62.6155C175.171 61.0889 178.272 59.4724 181.267 57.7866L180.286 56.0437ZM167.356 62.5299C164.252 63.9019 161.055 65.1849 157.765 66.3613L158.438 68.2445C161.775 67.0512 165.018 65.7501 168.165 64.3592L167.356 62.5299ZM153.842 67.6981C150.619 68.7428 147.311 69.6832 143.92 70.5034L144.39 72.4474C147.832 71.6148 151.188 70.6606 154.459 69.6007L153.842 67.6981ZM139.884 71.4137C136.569 72.1076 133.178 72.6854 129.71 73.1334L129.967 75.117C133.486 74.6622 136.929 74.0756 140.294 73.3712L139.884 71.4137ZM125.606 73.5989C123.902 73.7652 122.181 73.9 120.442 74.0016L120.558 75.9982C122.323 75.895 124.071 75.7582 125.8 75.5894L125.606 73.5989ZM120.442 74.0016C118.704 74.1032 116.984 74.1786 115.281 74.229L115.341 76.2282C117.062 76.1772 118.801 76.1009 120.558 75.9982L120.442 74.0016ZM111.166 74.3031C107.663 74.3253 104.238 74.2419 100.893 74.0636L100.787 76.0607C104.171 76.2412 107.636 76.3255 111.179 76.3031L111.166 74.3031ZM96.7779 73.7938C93.2855 73.5219 89.8833 73.1471 86.5724 72.6819L86.2942 74.6625C89.6454 75.1333 93.0886 75.5126 96.6227 75.7877L96.7779 73.7938ZM82.4978 72.0571C79.0295 71.4804 75.6665 70.8059 72.4101 70.049L71.9573 71.9971C75.2543 72.7634 78.6589 73.4462 82.1697 74.03L82.4978 72.0571ZM68.4235 69.0685C65.0145 68.1836 61.7293 67.2107 58.5695 66.1692L57.9434 68.0687C61.1429 69.1233 64.4693 70.1084 67.921 71.0043L68.4235 69.0685ZM54.6772 64.83C51.3409 63.6335 48.155 62.3647 45.1216 61.0487L44.3256 62.8835C47.3975 64.2162 50.6237 65.501 54.002 66.7126L54.6772 64.83ZM41.3633 59.3596C38.1173 57.8493 35.0628 56.2933 32.2026 54.7267L31.2418 56.4808C34.1388 58.0676 37.2324 59.6435 40.5197 61.173L41.3633 59.3596ZM28.6247 52.7047C25.4453 50.8517 22.5388 49.005 19.9099 47.2222L18.7874 48.8775C21.4519 50.6844 24.3969 52.5556 27.6176 54.4327L28.6247 52.7047ZM16.5524 44.8757C13.3295 42.5545 10.6202 40.3983 8.43643 38.5509L7.14473 40.0778C9.3653 41.9563 12.1155 44.1448 15.3835 46.4986L16.5524 44.8757ZM5.35255 35.8438C4.14542 34.7418 3.23729 33.8572 2.63316 33.2505C2.33112 32.9472 2.10507 32.7133 1.95569 32.5566C1.881 32.4782 1.82547 32.4191 1.78918 32.3802C1.77104 32.3607 1.75772 32.3464 1.74921 32.3371C1.74495 32.3325 1.7419 32.3292 1.74005 32.3272C1.73914 32.3262 1.73851 32.3255 1.73819 32.3252C1.73804 32.325 1.73795 32.3249 1.73795 32.3249C1.73793 32.3249 1.73795 32.3249 1.73799 32.325C1.73801 32.325 1.73804 32.325 1.73805 32.325C1.7381 32.3251 1.73814 32.3251 1 32.9998C0.261856 33.6744 0.261917 33.6745 0.261978 33.6745C0.262009 33.6746 0.26207 33.6747 0.262131 33.6747C0.262238 33.6748 0.26236 33.675 0.262512 33.6751C0.262802 33.6755 0.263184 33.6759 0.263626 33.6763C0.264511 33.6773 0.265701 33.6786 0.267212 33.6802C0.270203 33.6835 0.274414 33.6881 0.279831 33.6939C0.290665 33.7057 0.306335 33.7226 0.326843 33.7446C0.367874 33.7885 0.428223 33.8528 0.507828 33.9363C0.667053 34.1034 0.903305 34.3477 1.21596 34.6617C1.84126 35.2897 2.77231 36.1963 4.00412 37.3209L5.35255 35.8438Z" fill="white"/>
</svg>
